<svg xmlns="http://www.w3.org/2000/svg" viewBox="0 0 412.19 523.11"><defs><style>.cls-1,.cls-3{fill:#0f1d4d;}.cls-1{stroke:#dccbc1;stroke-miterlimit:10;}.cls-2{fill:#dccbc1;}</style></defs><g id="Capa_1" data-name="Capa 1"><path class="cls-1" d="M396.89,493.6l-3.22,4.15-1.2,1.09-1.28.41H389.8l-1.21.23-.79,1.12-.05,1.33.48,1,.64,1,.44,1.25.16.77.23.49.8,1,.32.55.15.56,0,.59-1.2,4.26-.5,1.05-.45.66-1,1.16-1.16,1.84-.45.49-.61.34-.85.13-.66.33-1.9,1.46-.69.31-1.49.37-3.15.12-1.48.31-.68.5-.82-.55-1.57-.73-2-1.07-1-.45-1.11-.43-1.15-.43-1.52-.57-1.65-1.22-.11-.12-.21-.3-.18-.16-.15-.07H363l-.18,0-1.9-1.34-.54-.24-1.07-.16-.42-.29-.55-1.14-.36-.57-.45-.21-.5-.13-1.35-.77-.63-.24-1.79-.33h-.6l-1.7-1.27-.68-.3-.44-.31-.09-.08h0l.27-.55.34-1,.12-.27.16-.26.25-.32.95-1,1-.85,2.45-1.41.36-.19.44-.3.19-.25.16-.32.31-1.54.18-.38.27-.42,1-1.28.15-.23.19-.38.26-.69.13-.48.07-.43.09-1.44.08-.32,1-1.72.42-.88.2-.67.24-.58.19-.31.36-.35.48-.33.62-.29,1.36-.83,2-3,.69-1.3.23-.54v-.4l0-.41-.14-.38-.32-.57,0,0-.05-.09-.24-.71,0-.62.09-.49.23-.89.05-.43,0-.41.11-.38.15-.33.56-.84.66-.55.41-.17.56-.07h.56l.73.23.32.18.29.34,1,1.66.31.33.35.26.42.15h.47l.42,0,.68-.62.42-1.68.73,1.27,2.27,2.58,2,2.82.78.83.24.1.25,0h.11l.1,0,.14.06.71.4,1.12.78.67.38.15,0,.27,0h.13l.25.07.34.13,1,.49.25.1h.18l.17,0,.43-.21.19-.13.14-.05.19,0h.29l.18.06.13.09.35.55.14.19.57.53.23.15.23.06.2,0,.19,0,1-.33.31-.17.09,0H393l.48.1,1.3.78.66.52.5.49.45.86.23,1.06.25,2.18Z"/><path class="cls-1" d="M368,297.33l.13.17.13.16.13.17.13.17.12.17.13.17.13.17.13.16,3.77,4.95,3.76,4.94,3.77,5,3.77,5,3.77,5,3.77,5,3.77,5,3.77,5,.9,1.19.18.25-.27.17-.13.29-.1.62-.18.49-.27.48-.36.43-.8.59-.36.4-.22.47,0,.49.3.24,1,.13.34.29-.49,1.43-.19.29-2.3,1-.54.48-.36.68-.25.89h-.66l-.27.6-.21.77-.82.84-.07.7.18,1.27.76,2.89h0L376.9,368.47l-.45.19-.81-.05-20.89-7.08-.48,0-.48.46-1-.09-.95,0-1.53.38-1.4-.11-.92.06-.42.13-.27.2-.09.44.2.35.34.29.4.23.8.36.27.27.06.35-.32.35-.55.32-3.6.72-8.34-.36-.78.16-1,0-.48-.08-3.94-1.87-.5-.17-4.59-.62-3.22-.75-.57-.22-.78-.44-.33-.1-.4-.05-.6.08-1.48.36-.52.07-.65,0-5.67-1-.82-.25-1-.52-.58-.72-.91-1.4-.37-.42-.27-.47-.1-.76.06-.55.31-1.38-.07-.68-.34-.94-.61-1.33-1.27-2.12-.84-1.27-.28-.35-.4-.36-.34-.16-.29-.07-.4-.05-.44,0-.89,0-.87-.26-.39-.25-.34-.34-.34-.44-1.22-3-.34-.6-.38-.46-.44-.23-2.22-.73-2.57-1.18-.59-.44-.13-.13-.09-.13-.13-.27-.84-2.43-.07-.44.06-1.13.17-.86.12-1.91,0-1.17.29-1.68,2.8-7.64.27-1.62-.11-1.83v0l-.1-.67,0-.89.11-.64.2-.78,1.62-4.14,0-.48,0-.38-.3-.47-1.86-1.77-.09-.33v-.3l.24-.35.5-.28,1.06-.08.65.08.53.15,1.33.77.25.09.75.06,4-.71.65-.23.28-.15,12-8.48,2.4-1.09.53-.32,1.05-.87,1.47-1.62,1.36-1.15,1.59-1.72.47-.38.63-.65,2.32-3.71.71-1.51.24-1,.11-1-.29-4.13.05-.69.22-1.36.37-.63.79-1,3.45-3.36h0l.33,2.44.5,3.76.51,3.76.51,3.76.5,3.76.51,3.77.51,3.76.5,3.76.33,2.4L339.5,301l.61-.23.87.58,1.52,1.38.82.57,1.43.48,1.49,0,1.49-.28,1.41-.48,1.13-.58,6.55-4.57,1.23-.1.57.08.57,0,1.17-.24.79-.06.53.15,1.19.56,1,.06,3.55-.88Z"/><path class="cls-1" d="M158.68,3.09l.42-.22.41-.41.3-.48.1-.39,0-.58.24-.33.43-.16.59,0,1.36.18.65.22.61.36,1.36,1.41.38.28.26.06.51-.06.28,0,.2.11,1.37,1.13.43.25.66.19,1,.07.51.11.28-.06.29-.3.57-1.26.33-.13.69.45.49.53L174.71,6l-.72.71-.17.42.53.11h.31l.59.07.73,0,.2.06.14.11.22.12.17.13.11.13.18.08.41,0,.13-.09.17-.17.22-.17.3-.11.31.19,1,1.26L181,9.87l.84.49,1.91.82.39.25.44.38.31.37.16,0,.4,0,.16.11.1.28.08.32h0l.1.26,1.8,2.8,0,.21-.33.37-.1.27.07.56.26.39,1.13,1,.22.1.29.05.51-.05.23.06-.16.5.22.32.34.26.2.35-.13.34-.4.06-.48,0-.35.12-.15.37.21.24.79.38.35.35.59,1.26.77.76.83.32,1.77.07,1.86.44.79-.14.34-.91.37.26,1,1.93.17.23.27.17.37.1.16-.07.13-.17.3-.2.09-.14.07-.2.14-.09.27.17.07.24-.2.54.07.24.42.16.88-.33.51.11.2.24.61,1.1.63.74.33.27.44.21.81.16.48,0,.34,0,.45-.34.37-.8.41-.22.32.49.46.38.6.24.69,0,.33.05.61.33.71.1.19.24.12.31.27.42.09.32.07.12H212l.38-.1h.11l.12.2.09.23.12.63.08.19.17.21.19.17.49.15-.1.33-.38.61.33.41,1.14.35.4.47.67.36.27.28.09.28,0,.31.09.38.48,1.17,0,.56-.64.51-.19.48-.2,1,.09,1.14.68.64,2,.89.05.1.15.38.06.09H219l.31-.09h.42l.32-.06h.36l.39.19.79.53h.3L222,44l.4-.52.44-.12,1,.12.17-.13v-.78l.3,0,.9.76.3.17.29.08.26.12.24.29L226.29,45l.21.38.8.72.23.46,0,.28-.19.77,0,.41.17.44.25.36.61.67.27.52.25.65.31.57.44.32L229,53.08l-.19.67-.92,1.1-.22.35-.07.21v.29l.1.28.34.4.08.17.11.13.44.25.11.14.27.85.1.21.52.26,1.31.14.29.22.27.6.33-.4.25-.71,0-.32,2.15.83.12.15.47.31.68,1.28.34.45.26.15.27,0,1.19-.42.38-.2.31-.38.79-.41.67-.46.5.11.84.43,0-.36.1-.29.21-.25.34-.22.17.19.16.24.12.29.2.74.18,0,.46-.23.32-.4.55-1.69.3-.52h.54l.55.21,1.47.88.57.1,3,.06.29.19.2.33.43.3.56.2.55.05.64-.14,1.12-.47.67-.16.24-.11.05-.22-.11-.59.14-.14.72-.26.29-.06,1.94.17.41-.19,1.08-1.64.72-.82.76-.43.95-.14h1.85l.5-.2.31-.41,0-.66.18-.25,1.23-1.26.83-1.75.1-.32.29-.06,1.54-1.3.6-.37.24.12.1,1,.31.46.55-.17.91-.63.7,0,.62.26.6.35.64.24,1.72.11.36.21.22.52.2,1.21L277,52l.49.16.18-.37.13-1.13.35-.47.31.06.63.84.81.78.15.28-.05.26-.35.41-.08.24.41.56.95-.34,1.94-1.3.28.37.53-.2.56-.4.41-.23.32,0,.39.21.32.06.3-.11.49-.5.77-.53.36-1.45.62-.41.79-.25.38,0,.79.33.38,0,.33-.08.25-.19-.37-.7-.16-.65.25-.45.84-.1,1.3.36.75,0,.57-.35,1,.42L297,48.57l1.09.52,1.12.24.56.05h.77l.16.12.1.22.12.84.12,0,1,.63.22.29.08.29.06.4.1.35.22.13,1.2-.16.2-.15v-.28l-.07-.33,0-.28.46-.39.41.19.42.37.48.16h.5l.57.09.54.18.41.26.21.3.15.28.19.22.37.12.29-.06.65-.39.31-.12.62-.09.63,0,.4.23-.05.65-.13.11-.47.26-.12.15.06.25.17.24.21.19.16.07.69-.29.53-.44.53-.26.68.23.44.49.58,1.18.4.47.56.13.46-.29.47-.21.64.37.12.28,0,.3.09.25.29.11.24-.1.13-.26.08-.33.13-.29.54-.48.35.18L320,57l.24.41.29.32.37.21.17,0v0l-.51,1.12L318.79,63,317,66.87l-1.79,3.88-1.79,3.87-1.79,3.88-1.78,3.87-1.79,3.87-1.79,3.88-.77,1.66,1.28,0L311,93.27l.34.17,1.6.18.78-.1.7-.43,1-1.2.57-.46.81-.2,1.17.24,1.2.64,1.08.87.84.9.5,1,.3,1,.44.92.88.67,3.15,1.1,1,.59.68.61.61.68,1,1.5.18.8-.16.82-.42.76-.87.84-.41.11-.41,0-.4-.2-.4-.31-.19-.2-.24-.7-.39-.49-.6-.14-.65.16-.49.35-.3.59-.33,1.16-.48.56-.38-.36-.3-.43-.23-.25-.23,0-.26,0-.29,0-1.59-.94-.33-.35-.13-.52.12-1.13-.14-.59-.28-.39-.39-.34-.38-.05-.42.91-.37-.06-.81-.55-.51-.13-.43,0-.41.15-.43.27-1.05,1.12-.42.2-.33-.14L313,102l-.19-.41-.48-.11-.43.3-.12.52-.06.54-.21.35-1.48-.62-.08-.44,0-.55-.1-.41-.47,0-.44.26-.22.36-.2.93-.28.29-.53.06-1.87-.24-.3.08-1.29.86-.33.39,0,.4.35.68-.05.28-.43.22-.42.27-.16.47-.08.54-.22.51-.76,1-.29.52-.2.6-.51.69-.69-.47-.53-.48,0,.67-.5.54-1.6-.42-.68.38-.3.71-.24.19h-.46l-.27-.19-.4-.61-.22-.16-.44.34-.33.74-.33.49-.92-.78-.69,0-.67.25-.41.47,0,.36.1.28,0,.3-.24.42h-.09l-.18-.06h-.2l-.17.12-.21.37-.09.12-.38.22-.25-.14-.23-.29-.3-.18h-.41l-1.31.38-.89.13-.42.13-.38.22-.16.28-.09.66-.14.2h-.23l-.75,0-.4.1-1.25.75,0-.63-.28.13-.51.66-.36.18-.24.06-.25-.08-.34-.25-.51-.29-.29.13-.3.28-.54.16-.34-.06-.71-.21h-.31l-.22.15-.05.2v.21l-.09.14-.19.09-2.36.6-.48.2-.68.64-1.19,1.52-.82.39-.42.47-.24.22-.23.09-.3-.07-.29-.09H270l-.18.28-.38,1.13-.27.46-.49.54-1.49,1.11-1.32,1.31-.48.37-.5.25-.38.07h-1.11l-.34.14-.11.22,0,.22-.13.18-1.16.49-.26.39v1.62l-.24.51-.43.4-.58.42-.15,0-.4.07-.13.07-.06.17v.18l0,.16,0,.11-.11.29-.06.27-.15.19-.43.07-.53.16-.49.3-.41.42-.6.86-.76.49-.32.43-.08.33v.28l0,.27-.25.3-.26.11-1.56.22-.63-.09h-.55l-.33.33-.31.53-.47.29-1.16.39h-.15l-.38-.07-.15,0-.06.16,0,.43,0,.12-.38.28-.22.08-.38.07-.68.27-.05.45.27.49.33.39.22.43.4,1.76v.47l-.2.44-.26.44-.16.45,0,1.28-.06.48-.61,1.91-.14,1,.26,1,.38.9.11.82-.11,2.76-.18.9-.3.86-2.47,4.46-.87,1.05-1.16,3.93-.49,1.11-.31,1.15.17,1.35.37.68,1.62,1.39.23.49.63,2.3.26.64.82,1.24.29.65.09.64-.05.67-.3,1.26-.53,1.3-.68.93-.93.68-1.26.52-2.05.3-.6.3-.9,1.07-1,.86-1.74,2-2.16,1.68L233,191l-.75.6-.33.38-.25.79-.23.4-1.11.92-.27.39L230,195l.16,1.62-.35,2.75-.3.89-.07.74.22.42.13.24,2.4,2.61.46,1.2.32.52.16.52-.25.64-.45.35-.55.16-1.15.11-.74.15-.49.24-1,.79-.61.33-.54,0-1.24-.3-.64.09.18.51,1,1.31.29.73-.1.5-.17.48.06.63-.28.7-.36.21H226l-.32-.28-.41-.25-.38-.17-1.42-.47-5-1.13-1.53-.18h-.77l-2,.25-1.42-.25-3-1.33-1.16,0-.46.11-.38.23-.27.42-.17.68.09.55.19.45.27.38.38.76,1.24,3.85.19,1,.14,1.85.82,2.6.25,2.62v.49l-.1.45-.23.44-.34.44-.48.43-1.7,1.24-.71.37-6.45,2-2.26,1.13-.91.61-1.5,1.4-.53.37-.7.39-1.36.51-3.63.52-.53-.2-.38-.09-.28.09-.33.4-.19.6-.09.5v.47l-.1.41-.19.39-.24.25-.68.16-.37,0-.32.09-.42.21-.49.46-.34.42-.22.61V242l.08.6.46,1.09.24.37.6.67,1.75,1.57.27.37.17.43-.06.42-.35.31-.64.1-.65-.15-.46-.17-2.39-1.53-.4-.2-.43-.16-.49-.06-.61.12-.48.29-.37.53-.23.5-.36.59-.48.57-1.82,1.62-.8.92-.75,1.11-1,1.14-2.75,1.78.31-2.35.41-2.92,0-1.65.06-1.51.11-.57.15-.48,2.3-3.73.21-.44.15-.46.07-.52-.1-.73-.26-1-1.37-2.82-9.12-14.07-.89-1.8-.55-1.44-.43-1.65-.48-6.48-.22-1-.28-.6-.26-.44-.38-.77-.06-.22v-.24l.28-1.66,1-3.31.73-1.53.52-.56.37-.23.59-.27.6-.17.79-.12.74,0,1.15.16.62.18,1,.44.82.5,2.95,2.83.37.25.4.15.45,0,.42-.13.37-.25.27-.3.19-.37.41-1.25,1.19-2.44.15-.41.08-.37.23-2.44,0-.29-.21-1.08-.3-8.52-.07-.36-.11-.37-.15-.35-.24-.38-.72-1-.28-.28-2.26-1.73-1-.42-1.92-.46-1.64-.18-3.67-.27-1.91.15-2.63.56-1.15.41-.57.11-.65,0-1.09-.23-.65-.24-.56-.31-2.62-2.06-.83-.89-.77-.68-.47-.25-.5-.19-.63,0-.5,0-.83.41-3.83,3.58-.75.5-.84.31-.55.1-.6,0-.85-.16L142,181l-.94-.47-1-.85-.88-1.25-1.34-2.8-.58-.85-.95-.86-1.64-.92-.82-.36-.7-.23-1-.17-6.07.54-.86-.08-1.23-.44-1.68-1.06-.81-.67-.31-.34-1.24-.82-2-.73-3.6-.85-.83-.35-1.42-.78-.7-.65-2.68-4.28-1-2.68-1-4.09-.54-1.44-.43-.79-.18-.44-.15-.55-.13-.78-.08-1.54.09-1,.45-1.84.38-.85.45-.77.47-.66.38-.43.16-.26.57-1.36.6-2.17.49-1.29.16-.56.08-.9-.16-2.11-.33-1.83-.36-5.1.08-1.13.31-.91v-.36l-.2-.4-.22-.35-.3-.77-.5-1.85-.2-.45-.38-.63-.26-.37-1.52-1.59-.17-.28-.19-.4-.2-.58-.15-.75-.1-1v-.73l-.05-.39-.14-.41-.83-1.7-.69-2.58-.47-1.07-1.1-1.88-1.79-2.32-.16-.39-.15-.48-.42-2.4-.18-.54-1-2.15-.88-3.11v0l.77-.4,3.47-1.77,3.48-1.78,3.48-1.79,3.47-1.77L114.84,87l3.48-1.78,3.48-1.77,3.48-1.79,2.54-1.3.4-.32,1.18-1,1.47-1.49L132.43,76,134,74.45l1.55-1.56,1.55-1.57,1.55-1.57,1.55-1.56,1.55-1.57,1.55-1.56,1.22-1.89,1.22-1.89,1.22-1.89,1.22-1.89,1.22-1.89,1.22-1.89,1.21-1.89L153,49.94l1-1.52,1.4-1.7.38-.62.19-.3.23-1.07.2-1.73.4-3.55.41-3.54.4-3.55.4-3.54.17-1.49.14-.28.93.65.46.4.21.27.32.19.66-.07,1.22-.32L163.5,28l.26-.05,0-.2-.25-.26-.31-.2-.27-.3-.09-.26,0-.51-.05-.26-1.89-4.21,0-.36.12-.55,0-.31-.06-.29-.2-.52-.07-.28.09-.36.28-.25.33-.23.22-.31,0-.27-.08-.21-.09-.2-.06-.24-.07-1.15-.18-.52-.4-.48-.13,0-.26.18h-.15l-.13-.13-.19-.31-.15-.12-1.25-.72-.14-.16-.18-.07-.36.08h-.3l-.36-.16-.61-.43-1-1-.7-1.16L153.4,8,153,7.6l-.51-.23-.65-.12-.38-.13-.69-.49-.38-.17h-.29l-.61.14-.29,0-.3-.26-.36-.53-.23-.62.09-.53.41-.2.54.07.56.14.46,0,.52-.12.4,0,.41,0,2.2.82.76,0,.71-.63.24-.06h1l.46-.09.37-.18.35-.24.59-.55Z"/><path class="cls-1" d="M82.51,114.9l.21-1.23,0-1.29,0-.32-.26-.55,0-.18.24-.6.47-.21h.62l1.31.18.4.24.28.41.65,1.81.36.49.36-.24.41-.44.5-.18.42-.25.19-.64-.17-.79-.42-.37-.51-.26-.4-.48-.09-.64.29-.46,1-.93.29-.57.66-1.84.34-.51,1.25-1.36,2.39-4.34,1.88-2.16.51-.36,1.07-.54v0l.88,3.11,1,2.15.18.54.42,2.4.15.48.16.39,1.79,2.32,1.1,1.88.47,1.07.69,2.58.83,1.7.14.41.05.39v.73l.1,1,.15.75.2.58.19.4.17.28,1.52,1.59.26.37.38.63.2.45.5,1.85.3.77.22.35.2.4v.36l-.31.91-.08,1.13.36,5.1.33,1.83.16,2.11-.08.9-.16.56-.49,1.29-.6,2.17-.57,1.36-.16.26-.38.43-.47.66-.45.77-.38.85-.45,1.84-.09,1,.08,1.54.13.78.15.55.18.44.43.79.54,1.44,1,4.09,1,2.68,2.68,4.28-1,1.08-.67,1.32-.11.53,0,.39.06.41.86,2.75.08.5,0,.65-.09.43L110,175l.46,1.22,3.46,4.73,1,1.72.86.88.51.37.87.33,1.21.16,3.85.5,1.6.39,1,.37.58.33.72.63.89,1.08.45.69.25.58,1.06,2.12.15.93-.6,1.06-2.27,2.53-.47.68-.31.53-.12.47-.12.94-.13.58-.26.78-.43.51-.51.37-1.9.79-.48.07h-.83l-.6,0-1.53.37-.51,0-.5-.07-.45-.14-.92-.39-.86-.28-.56,0-.7.57-.18.35-.16.5-.06,1,.24,1.69.06,2.88-.46,2.67v.92l.12.65.21.44.3.35.27.24.53.3-1.61.44-.66,0-.94-.17-.64,0-.5.1L110,214l-.62.34-1.22.41-.53.27-.43-.31-.12-.3-.17-.72-.45-.75v-.64l.09-.66,0-.54-.16-.23-.44-.35-.11-.13.06-.32.18-.15.2-.11.07-.2-.22-1.31-.2-.58-.33-.56-1.95-2.43-1.62-3-.39-.45-.89-.61,0-.16-.42-.73-.19-.24-.45-.22L98.15,199l-1-.64-1.78-.61-.82-.67L93,194.64l-1.26-1.44-.58-1.13-.34-.46-.85-.43-1.44-.63-.7-.55-.4-.14h-.18l-.38.08-.27,0-.41,0-.43-.17-.24-.13-.14-.14-.08-.13-.18-.45-.08-.14-.18-.23-2.21-1.7-.28-.31-.64-1-.18-.23-.25-.38-.17-.2-.69-.66-.29-.41-.18-.85,0-.38.11-.61.06-.21.07-.16.1-.13.13-.11.26-.15.06-.05.08-.1.26-.54v-.21L81,180l-.14-.06-.36-.09-.08-.06-.06-.1-.07-.22,0-.15.1-.11.38-.2.07-.1.11-.17.51-1.15,0-.08,1.15-2.43.11-.18.15-.15.41-.6.21-.57.06-.26,0-.2-.1-.28-.1-.2-.11-.52-.18-2.64-.83-2.93-.24-1-.78-1.46-.19-.49-.11-.49,0-.54.06-.77.41-2.26.14-.25.46-.45.19-.33.15-.57v-.44l-.06-.48-.44-1.55-.16-.35-.51-.74-.81-.82-.53-1.1L79,149.9l-1.42-2-.52-1,.72-.63.19-.51,0-.56-.11-.58v-.54l.32-.74.38-.61v-.48l-.75-.33-.43-.51-.38-1-.19-1.09.16-.64.47-.52.18-.6.1-1.31,1.26-4,.13-1.33-.26-1.73.07-.5.25-.34.32-.13.34-.08.36-.17.38-.28.1-.13,0-.2v-2.2l.13-.58L81,124l.15-.15.34-.22.21-.18.61-.79.1-.58-.63-1.83,0-.37v-.15l.13-.07.36-.11.2-.2,0-.29-.2-.57-.16-1v-.57l.11-.63.38-1.24Z"/><path class="cls-1" d="M63.34,160.16,64,160h.52l1,.21.52,0,.3-.05.45-.18h.31l.33.11.35.19.61.45.74-.81.64-.9.13-.64.12-1.46.25-.53.56-.22.76-.11.66-.25.22-.62-.24-.67-.84-1.22-.13-.8.22-.85.44-.82,1.16-1.4,1.12-.86,2.51-1.43.29-.25.52,1,1.42,2,.89,2.58.53,1.1.81.82.51.74.16.35.44,1.55.06.48V158l-.15.57-.19.33-.46.45-.14.25-.41,2.26-.06.77,0,.54.11.49.19.49.78,1.46.24,1,.83,2.93.18,2.64.11.52.1.2.1.28,0,.2-.06.26-.21.57-.41.6-.15.15-.11.18-1.15,2.43,0,.08L81,178.73l-.11.17-.07.1-.38.2-.1.11,0,.15.07.22.06.1.08.06.36.09L81,180l.07.13v.21l-.26.54-.08.1-.06.05-.26.15-.13.11-.1.13-.07.16-.06.21-.11.61,0,.38.18.85.29.41.69.66.17.2.25.38.18.23.64,1,.28.31,2.21,1.7.18.23.08.14.18.45.08.13.14.14.24.13.43.17.41,0,.27,0,.38-.08h.18l.4.14.7.55,1.44.63.85.43.34.46.58,1.13L93,194.64l1.54,2.42.82.67,1.78.61,1,.64,1.46.33.45.22.19.24.42.73,0,.16.89.61.39.45,1.62,3,1.95,2.43.33.56.2.58.22,1.31-.07.2-.2.11-.18.15-.06.32.11.13.44.35.16.23,0,.54-.09.66v.64l.45.75.17.72.12.3.43.31.49.38.21.53.65.75.65,2,.2.41.29.25.36.2.32.26.19.46.11.2.21.11.25.07.23.12.24.28,0,.21,0,.25.09.76.06.15.18.22.19.1.2,0,.17.05.1.29.14,1,.37,1.07.65.52.81.35.77.48.25.46.36.52-.86,0-.31,0-1,.26-.33.05-.37.1-.36.18-1.42,1.24-.09.37.08.29.23.62.16.64.07.72-.1,1-.21,1-.18.25-.29.16-1.13.11-.37.08-1.53.88-.37.12-.4-.05-.27-.16-.46-.39-.25-.14-.34.05-.35.22-1.11,1.52-1,1.09-.37.24-.76.2-.3.21-.47.13-.24-.41-.22-1.09-.08-.26-.17-.13-.29-.1-.61-.07-.49-.12-.54-.3-.28-.27-.22-.27-.32-.13-.28-.07-1.2.38-1.32-.1-.69-.29-1-.65-1.36-.63-.42-.06h-.53l-.91.15-.46.15-.34.17-.48.36-.22,0-.19,0-.77-.34L87.13,234l-.34.06-.14.06-.66.54-1.08.67-.5.11-.76.06-.09,0-.12.05-.52.29-.46.38-.17.2-.21.35L82,237l0,.17,0,.53,0,.16-.07.14-.08.12-.1.1-.09.12-.07.13-.28.72-.17,0-.27-.06-1.62-1-.21-.24-.11-.46,0-.36.15-.8v-.25l0-.29-.1-.31-.13-.28-1-1.35-.08-.17-.1-.26-.33-.33-.52-.41-1.74-1.11-.75-.38-1-.11h-.46l-2-.44-1.24-.15-.56-.21-.26-.15L68.5,230l-.13-.23.08-.81.22-.29.25-.48.21-.58.15-.61,0-.34v-.35l-.11-.4-.13-.27-.6-.76-.25-4.49.35-.08.18-.11.15-.21,0-.22v-.46l-.39-2.35.09-.31.21-.29.48-.33.7-.37.54-.57.78-1.51.33-.31.49-.3.21-.21.12-.27,0-.32,0-.36-.06-.36-.12-.32-.29-.24-.28-.13-1.45-.11-.92-.33-.7.07-.65.16-.43-.2-.47-.42-.71-1.07-.7-1.41-.22-.29-.32-.33-.41-.15h-.34l-.3.09-.29,0-.29-.18-.19-.2-.34-1.33.17-.76,0-.32-.07-.32-.16-.25-.55-.68-.15-.25,0-.31,0-.38.2-.49.23-.4.39-.47.3-.3.45-.31.63-.32,2.29-.77.83-1.24.15-.84,0-.37-.17-.23-.44-.13-.42-.07-.33-.22-.16-.35-.05-.34.06-.31.14-.26,1.48-1.81.13-.26.09-.3,0-.32-.06-.32-.15-.25-.31-.18-.43-.13-.72-.11-.6-.19-.19-.14-.23-.12-.26-.11-.31,0-.34.19-.28.41-.54.53-.18-.22,0-.12-.13-.24-.19-.13-.31,0-.47.2-.29.17-.26.22-.31.06-.44-.3.46-.38.9-1.19.29-.32.28-.25.25-.15.27-.49L63.13,187l-.44-.35-.38-.25,0,0-.07-.08-.13-.21-.14-.3v0l-.12-.7-.1-.29-.5-.79-.13-.31-.1-.51.17-2v-1.67l-.09-.55,0-.18-.07-.16-.24-.38-.11-.31,0-.16v-.12l0-.25.28-1,.13-.11.26-.12.53,0,.31,0,.3.07.42-.07,0-.61-.8-4-.23-.27-.28-.17-.3-.09-.24-.23-.15-.39,0-.74-.08-.47-.13-.38-.91-1.6,0-.4.16-.51.65-.93.43-.5.27-.48.33-1.2.31-.32.33-.16.27-.1.08-.47,0-.71.16-.39Z"/><path class="cls-1" d="M31.94,132.26l0,.27-.39.59-2.12,1.35-.34.57-.33.73-.41.67-.56.38-.56,0-1.32-.49-.62-.11-.6.05-.58.12-.52.23-.39.37-.25.51-.24.75-.15.77v0l0,0-3.18,3.69-.48.81-.19.24-.2.14-.14,0L18,144l-2.92-.68-1-.12-.84.09-2.31.46-1.46-.18-.59-.24-2.14-1.52,0,0,0,.06.33-1,1.24-2.58L9,137.15l1-1,1.09-.83.39-.48.09-.63,0-.67.12-.64.38-1.09.64-1.09.93-1,4.23-3.39.71-.91,1-2,.09-.64.22-.12.28-.09.24-.19.43-.23,2-.21.54-.2.56-.33.42-.45.12-.55,0-.33.3-.71.08-.33,0-.29.21.08.51.18,1.14.14.45.26V120l-.09.63.15.59.19.14.51.13.22.19.1.25,0,.28,0,.57-.12.81,0,.23.22.18.3.05.27.08.11.27.05.32.24.53.08.32v.29l-.12.59v.27l0,.29.06.22.25.52.07.28-.06.24-.1.22,0,.23.21.57.71.85.34.55.07.26.08.54.11.24.29.26.29.13.2.15Z"/><path class="cls-1" d="M22.59,139l0,.55.2.34.57.59.21.35,0,.28,0,.56,0,.28.79,1.2,1,0,1.21-.55,1.32-.35-.24.69-3.14,5.64,0,.51.34.58.44.3,1.41.56.51.11.51-.09.23-.05.24-.29,1.1-.81,2-2,.39-.56.15-.49.16-1.06.19-.44.22-.23.28-.19.3-.15,1.16-.32.08,0,.23.29.5.09.61,0,.52.12.59.37,1.08.9.64.33.85.32h.77l.74-.09.79.09.83.58.74.82.82.65,1.1,0,1.87-.87.92-.73,1-.29.86.29L51.43,148l.24.08.45.25.2.07.69-.1.64.27.2.25v.44l-.51,1.28.07.63,1,1.12L55,154l.95,1.33,0,0,.16.53.29.59.56.33.64.24.56.3.19.24.27.55.19.23.28.15.59.13.28.14.46.5.4.57.47.44.69.08,1.35-.23-.64.86-.16.39,0,.71-.08.47-.27.1-.33.16-.31.32-.33,1.2-.27.48-.43.5-.65.93-.16.51,0,.4.91,1.6.13.38.08.47,0,.74.15.39.24.23.3.09.28.17.23.27.8,4,0,.61-.42.07-.3-.07-.31,0-.53,0-.26.12-.13.11-.28,1,0,.25v.12l0,.16.11.31.24.38.07.16,0,.18.09.55v1.67l-.17,2,.1.51.13.31.5.79.1.29.12.7v0l.14.3.13.21.07.08,0,0,.38.25.44.35.44,1.13-.27.49-.25.15-.28.25-.29.32-.9,1.19-.46.38-.66-.85-.26-.14-.36-.13-1.21-.21-.39,0-.34.09-.59.25-.62.2-.29,0h-.6l-.34-.13-.26-.19-.48-.77-.22-.28-.28-.27-.48-.31-.38-.14L53,188l-.81,0-.47,0-.29-.16-.18-.24-.08-.26,0-.18V187l0-.27.18-.57.14-.26.12-.27v-.31l-.12-.3-.27-.31-.49-.43-.19-.21-.21-.29-.2-.36-.51-.58-.38-.29-2-1.09-1.43-1L45,180h-.13l-.15.16-.06.67.89,2.79.51,3v.87L46,188l-.22.27-.94.83-8.64,3.83-.35.26-.31.32-3,4.59-.35.82-.13.42-.18,1.22-.12.38-2,4.05L29,206.32l-.58.63-3-1-1.94-.62L21.4,203.8l-2.32-1.17-2.76-1.12-2.81-1.61-1-1-.83-1.63-.1-1.18-.18-1.27-.06-.27.53-.59.09-.59.12-.2.64-.13.22-.72,0-.46.22-.42.52,0,.68.8.89.28,1.16.27h.94l.91-1.2.86-2.22L19,186.61l-1-2.14-1.91-3-1-.86-3.07-2.26-.58-.55-.67-.08-.36.18-.77-.4-.73-.87-.87-.75-.71-.81.11-.3.16-.27.36-.21.14-.62-.15-.31-.28-.27,0-.38.4-.16-.2-.5-.22-.61.2-.46h.46l.48-.36.55.42.86-.19.35-.7,0-1-.82-1.3-1.09-.86-1-.56-.83-.94-.59-.81L4.9,163.45l-2.67-2.18-1.16-1.1.09-.42.33-.23.38-.49-.16-.56-.34-.63,0-1.52,0-.47-.24-.5-.36-.55-.25-.54,0-.45.27-.32.18-.17.16-.19.17-.36.28-1-.08-.67L.9,149.49l.06-.6.23-.73.31-.69.27-.44L4.07,145l.56-.77.41-1,.35-.51.52-.27.51-.19.27-.37,0-.06,0,0,2.14,1.52.59.24,1.46.18,2.31-.46.84-.09,1,.12L18,144l.37,0,.14,0,.2-.14.19-.24.48-.81L22.57,139Zm-.33,68.9-.13.24-.13.51.21.39.28.24.07.35,0,.49.15.51-.32.09-.38,0-.15-.26.07-.31-.16-.45-.27-.19.18-.27,0-.44.2-1.07Z"/><path class="cls-1" d="M226.1,214.15l-.93.55.33.48,1.26.53,4.34,3.46.88.44,1,.27,1.13.18,1,.59.43,1.12-.17,1.17-.86.72-1-.21-.43.05,0,.53.5,1.37.24.38,1,.55,1.31.32,1.18.44.6.88.29.63,1.14,1.16.4.65.1.57,0,1.11.16.54.46.63,1,1,.37.74.31,1.19.27.52.47.34,2.48,1,.35.22.56.55.32.23.3.08h.63l.27.06.47.37.28.51.11.59-.09,1.35.09.55.25.46,1.46,1.45.6.43.65.24,1.73.13.6.22.57.43.4.51.68,1.18,2.7,3,.48.3,1.17.57.44.35,1,1.11.25.46.64,2.42v.89l-.17.59-.25.42-1.17,1.24.09.81-.12.38-.36.28-.46.19-.4.12-.32.26-.25.51-.35,1-.55,1-1.32,1.77-.48,1.07,11.67-1.55,3.63.23.15,0,.29.18.17,0,.13-.06.21-.19.11,0,.58,0,1.22.21,1.29.43.57.09,1.33,0,1.74-.37.62,0,.6.22.9.6.57.29h.3l.33-.1.3,0,.2.23.07.28.08.87.17.6.34.46.92.83.24.5,0,.58-.19,1.16.49,1.07,2.23,1,.77,1.09.12.32.32.56.12.3,0,.38-.38.61-.12.33,0,.61.13.51,0,.52-.24.66,1.56-.21,5.18-.71,5.18-.7,5.18-.7,5.18-.7,1.09-.15.5-.21.25-.26.09-.25.14-.18.41-.11.33.07.23.15.26.11.4-.08.52-.37.91-.95,1.35-.67.31-.62.17-.73.29-.69.43-.44,1.83-1.12,1.73-.73.47-.49.18-.37.25-.79.2-.38.29-.33.69-.56.29-.33.67-1.34.39-.6,1.35-1,.52-.54.93-1.27.54-.54,1.78-1.35.47-.62.84-1.39.53-.61.53-.35.56-.2,1.2-.3.09.38,0,.09-.23.56v.5l-.09.39-.51.31.07.09.11.22.07.09-.35.14-.2.33v.38l.49.64-.26.11H333l-.16,0-.77.13-.15.06.36.5.35.93.26.52.38.4,1,.56.4.38.28.58,0,.56-.16.53-.29.54-.07.2,0,.37-.12.19-.16,0-.33-.15-.15,0-.27.22-.25.25-.2.29-.13.33-.11,1.23.24,1.76.18,1.31h0l-3.45,3.36-.79,1-.37.63-.22,1.36-.05.69.29,4.13-.11,1-.24,1-.71,1.51-2.32,3.71-.63.65-.47.38-1.59,1.72-1.36,1.15-1.47,1.62-1.05.87-.53.32-2.4,1.09-12,8.48-.28.15-.65.23-4,.71-.75-.06-.25-.09-1.33-.77-.53-.15-.65-.08-1.06.08-.5.28-.24.35v.3l.09.33,1.86,1.77.3.47,0,.38,0,.48L294,315.39l-.2.78-.11.64,0,.89.1.67v0l-.52-.13H293l-.37,0-.72.35-.33.06-.37-.14-.57-.28-.25,0-.22.15-1.95.85-1,.59-.49.46-1,1.11-.23.22-.68.4-.23.24-.25.2-.17.23-.22.22-.28.2-1,.28-1.29-.07-.41-.09-.3-.1-.77-.43-.27-.09-.34,0-.26-.11-.18-.22-.13-.31-.2-.27-.31-.11-.53.14-.3.22-.26.24-.22.14-.33.07h-.33l-.93.2-.42-.09-.77-.5-.29-.11-1.21-.2-.83-.48-.16-.26-.16-.6-.17-.22-.45-.36-.19-.24-.15-.28-.11-.32-.16-.31-.22-.23-.31-.19-.31.17-.21.22-.84,1.61-.18.23-.24.22-.88.49-1.08.45-3.7,1-2.09.26-.74.22-1.25.62-.87-.07-.65-.31-.74-.71-.56-.78-.84-1.7-.11-.35-.06-.29.09-4-.16-1.09-.06-.19-1.27-2-1.29-1.66-1.27-1.21-.48-.34-.52-.29-.3-.09-.32-.06-1.4-.11-.66-.12-.68-.2-.43,0-.32.38-.86,2.15-1.77,3.39-.33.42-.35.36-.4.28-.41.2-.87.15H239l-.42.11-.43.17-.89.27-.44.07-.44.12-1.5.64-.49.38-.45.17-.62.15-1.69.14-.51.16-.4.27-.38.34-.53.38-1.15.47-.86.05-.57-.12-.46-.21-.95-1.11-.21-.36-.44-1-.92-2.73,1.14-.85,1.37-1.53,1.42-1.95.57-.63,1-1.43.43-.45,1.2-.9,1.23-.6.33-.23.13-.33,0-.37-.23-.35-.3-.3-.37-.24-.45-.17-2.2-.5-.34-.13-.18-.14-.09-.13-.56-1.35-.7-1.14-.31-.4-1.22-2.18-.16-.44-.08-.45-.2-4.37-.15-.73-.48-.8-1.75-2.31-.63-1.28-.16-1.05,0-1.14-.31-1-1.56-2.92-.85-1.3-.39-.47-.84-.73L214,273.55l-.58-.52-.53-.64-.6-1.07-.14-.37,0-.25v-.25l.12-1.32.48-2.59.13-1.39,0-.74-.08-.36-.49-1.23-.07-.35v-.35l.05-.33.09-.3.37-.83.54-1.77.08-1L213,255l0-.33.09-.3.16-.24.26-.22,1.52-1.06.48-.47.12-.31,0-.35,0-.28-.08-.32-.23-.61-.29-.58-.17-.25-.19-.22-.23-.19-.24-.16-.54-.25-.31-.07-.36,0-2.7.16-.64.17-.83.37-2,1.12-.41.37-2.24,2.49-.27.22-1.39.9-.62.61-1.23,1.62-.83,1.35-1.39,2.95-.58,1-.18.4-.13.38-.21.94-.11.28-.55,1.05-.2.59-.29,1.19-.16.33-.76,1.05-.48,1.09-.36.36-.55.41-1.28.7-.62.26-.77.23-.28.19-3.1,3.4-.26.22-.68.44-.68.25-1,.09-.44-.23-.4-.36-1.73-2.51-.22-.19-.49-.34-.82-.41-.23-.16-.27-.34-.25-.48-.35-1-.12-.51,0-.46v-.34l0-.37-.07-.36-.18-.6-.15-.28-.73-1-.35-.33-.33-.23-.3-.1-.28-.06-.26-.08-.16-.07L177,265l-.08-.14-.09-.24-1.15-5.08-.18-.47-.28-.52-1.56-1.75-.53-.79-.29-1.14,2.75-1.78,1-1.14.75-1.11.8-.92,1.82-1.62.48-.57.36-.59.23-.5.37-.53.48-.29.61-.12.49.06.43.16.4.2,2.39,1.53.46.17.65.15.64-.1.35-.31.06-.42-.17-.43-.27-.37-1.75-1.57-.6-.67-.24-.37-.46-1.09-.08-.6v-.53l.22-.61.34-.42.49-.46.42-.21.32-.09.37,0,.68-.16.24-.25.19-.39.1-.41V238l.09-.5.19-.6.33-.4.28-.09.38.09.53.2,3.63-.52,1.36-.51.7-.39.53-.37,1.5-1.4.91-.61,2.26-1.13,6.45-2,.71-.37,1.7-1.24.48-.43.34-.44.23-.44.1-.45v-.49l-.25-2.62-.82-2.6-.14-1.85-.19-1-1.24-3.85-.38-.76-.27-.38-.19-.45-.09-.55.17-.68.27-.42.38-.23.46-.11,1.16,0,3,1.33,1.42.25,2-.25H217l1.53.18,5,1.13,1.42.47.38.17.41.25.32.28h.08Z"/><path class="cls-1" d="M394,356.68l.11.42.27,3.56.24,1.19.74,2.29.46,5.88.2.66-.07.77-.16.75-.2.42-.52.75-.18.37v.42l.11.37,0,.35-.21.37-.33.1-.9,0-.38.09-.31.74.71.78,1.75,1.06.38.4.05.35-.1.37,0,.49.09.41.53,1.09.61.69.25,1,.15,1.09.31.94.46.49,1.7.82.36.39.23.44.32,1,1,1.9.27,1-.47.69-1.93.52-.94.39-.67.62-.09.54,0,.59.19,1.15.3.51.48.54.21.59-.5.62L396.77,399l-.5.49-1,1.49-.19.13-.48.2-.15.16,0,.53.27,1.37-.12.36-.64.07-.68,0-.56.14-.3.63.35,3.87-.29.93-.42.33-1.55.67-.6.49-.21.44,0,.53.46,2.44,0,.24-.33,1.19-.05.58.26.5.7.5.55.39,2,2.34.54.42,1.91,1.06.53.4.86.93.78.58v.56l-.41.44-.69,0-.56.12-.23,1.21-.92.47-.49.59-.38.68-.1.51.46.85,0,.27-.19.16-.75.38-.28.2-.3.59-.07.62v.61l-.07.61-1.49,3.12-.13.94.29.88.47.84,1.66,2.95,1.67,2.94,1.66,2.94,1.66,3,.88,1.56,1.19,1.14.6.39.68.31.73.14.74-.1.31-.19.5-.51.31-.16h.31l1,.16.78-.38.71.31,1.36,1.15,1.6.4.73.37.41.77-.51,1.13L408,458l-.9.64-.63,1-.18.56,0,.62.28,1.77.06.95.21.49.93,1-.29.51-.4.69-.43.44-1.57,1.11-.52.21-1,.24-.42.36-.21.47-.33,1.71-.31.7-2.52,3.56-.54,1.79-.28.46-1.15.91-.16.23,0,.31.12.16.22.06.17.18-.08.5-.52.81-.73.4-.81.27-.75.42-.82.74L393.06,484l-.17.08-.49.15-.12.06-.23.7-.22,1.75-.39.85h.06l-.09,0-.31.17-1,.33-.19,0-.2,0-.23-.06-.23-.15-.57-.53-.14-.19-.35-.55-.13-.09-.18-.06h-.29l-.19,0-.14.05-.19.13-.43.21-.17,0h-.18l-.25-.1-1-.49-.34-.13-.25-.07h-.13l-.27,0-.15,0-.67-.38-1.12-.78-.71-.4-.14-.06-.1,0h-.11l-.25,0-.24-.1-.78-.83-2-2.82-2.27-2.58-.73-1.27-.13-.39-.11-.44,0-.24-.05-.82.07-.27.19-.33.33-.25.29-.16.85-.26.32-.16.27-.23.65-.91,1-1.09.14-.53-.82-.94-1.86,0-.33-.07-.46-.22-.54-.35L373,467.87l-.62-.69-.5-.68-.25-.24-.33-.22-1.35-.55-.44-.38-.53-.93-.73-1.75-.61-1.06-.07-.24,0-.6.05-.68.27-1.13v-.33l-.17-.37-.31-.36-1.22-.5-.42-.34-.22-.58,0-1-.14-.92-.15-.45-.24-.38-.36-.31-.43-.12-.57.08-.45.15H362l-2-.86-.88.45-.28.28-.42.31-.32.3-.85.43-.52.1-.8-.09-.77-.22-1.82-.93-.07-.05-.27-.15-.66-.17-.63.18.13-1v-.73l-.25-.74-1.32-.73-.38-.47-.6-1-.31-.32-.3-.25-.21-.22-.15-.27,0-.37v-.21l0-.29.58-1.39.07-.31,0-.37-.15-.4-.35-.47-.28-.28-1.32-.81-.45-.36-1.11-1-.15-.31-.12-.41,0-1,0-.39,0-.2-.09-.29-.24-.35-.25-.24-.21-.35-.12-.48-.05-2-.26-.95.33-.32.18-.12.43-.21.19-.14.13-.33,0-.46-.26-2.38-.33-1-.35-.7-.32-.5-.24-.25-.14-.3-.1-.42v-.66l0-.42.1-.49-.05-.1,0-.17-.53-.56-.09-.9.17-.6.51-1.14,0-.44-.17-.55-.45-1-.17-.5-.08-.42.14-1.43-.11-.36-.27-.31-.67-.24-.4,0-.37.08-.3,0-.3-.1-.3-.18-.59-.53-.83-.91-.18-.24-.11-.29-.05-.27.15-.46.49-.19.8-.18.29-.11.26-.22.25-.31.31-.48.45-.58.2-.18.26-.3.12-.22,0-.29-.08-.33-.38-.54-.2-.46.07-.89.34-1.45.23-.28.23-.19,1.52-.15.26-.25.11-.2.11-.29.46-3.81.33-1.18.13-.72.12-4.06-.12-.66-.38-.65-.41-.27-.38-.36-.24-.38.23-2.57-.1-1.55.05-1.56.4-.32,2.31-.71.75-.36.33-.3.38-.9,1.83-7,.64-1.66.36-.66.5-.76.73-.82,1.46-2.06.36-.71.5-1.8.11-.84,0-.34-.06-.34-.69-1.7-.08-1.11.31-3.42.48-.46.48,0,20.89,7.08.81.05.45-.19L394,356.69Z"/><path class="cls-1" d="M349.71,509l-.94-.82-.5-.28-1.5-.43-1.17-.62-.66-.24-.63,0-.95.26-.11.1-.07-.32.14-.38.35-.65,0-.72-.18-.6-.24-.58-.7-3-.2-.55-.57-1.15-.27-1-.14-.11-.19,0-.25-.12-.93-.93-1.13-.59-.09-.08-.17-.29h0l1-1,.43-.52.25-.58.13-1,.22-.64.65-1.1.09-.24.07-.29.3-2.78.1-.31.12-.26.09-.25-.25-.34-.28-.24-2-1.11-.54-1-.7-1-.27-.63-.19-.64,0-.31,0-.37.23-.58.19-.39,1.3-1.54.6-.46.93-.42.25-.21.14-.28,0-.38,0-.9-.07-.34-.42-1.36,0-.36.15-.36.8-1.07,1.06-2.25.42-.55.31-.26,1.38-.87.28-.1,1-.15.34-.1.59-.27.3-.1.3,0,.25.14.45.38.24.13h.24l.17-.07,1-.57.21-.26.12-.35-.05-.59-.11-.39-.39-1-.05-.25v-.28l.06-.35.15-.42.17-.31,1.11-1.44.61-1,.1-1.78-.5-6.64.63-.18.66.17.27.15.07.05,1.82.93.77.22.8.09.52-.1.85-.43.32-.3.42-.31.28-.28.88-.45,2,.86h1.12l.45-.15.57-.08.43.12.36.31.24.38.15.45.14.92,0,1,.22.58.42.34,1.22.5.31.36.17.37v.33l-.27,1.13-.05.68,0,.6.07.24.61,1.06.73,1.75.53.93.44.38,1.35.55.33.22.25.24.5.68.62.69,1.69,1.35.54.35.46.22.33.07,1.86,0,.82.94-.14.53-1,1.09-.65.91-.27.23-.32.16-.85.26-.29.16-.33.25-.19.33-.07.27.05.82,0,.24.11.44.13.39-.42,1.68-.68.62-.42,0h-.47l-.42-.15-.35-.26-.31-.33-1-1.66-.29-.34-.32-.18-.73-.23h-.56l-.56.07-.41.17-.66.55-.56.84-.15.33-.11.38,0,.41-.05.43-.23.89-.09.49,0,.62.24.71.05.09,0,0,.32.57.14.38,0,.41v.4l-.23.54-.69,1.3-2,3-1.36.83-.62.29-.48.33-.36.35-.19.31-.24.58-.2.67-.42.88-1,1.72-.08.32-.09,1.44-.07.43-.13.48-.26.69-.19.38-.15.23-1,1.28-.27.42-.18.38-.31,1.54-.16.32-.19.25-.44.3-.36.19-2.45,1.41-1,.85-.95,1-.25.32-.16.26-.12.27-.34,1-.27.55Z"/><path class="cls-1" d="M338.64,495.75l-.36-.6-.54-.32-.49-.08-1.15,0-.72-.14-.3-.15-.57-.39-.54-.26-.14,0-5-.56-1.18-.36-1-.65L325,490.72l-.79-.57-1.71-.73-.66-.18-.69-.09-1.84.11-.25-.08-.2-.28,0-.65-.11-.31-.45-.34-1.27-.53-.28-.23-.37-.47-.73-.23L314.2,486l-.77-.35-.21-.51-.06-.6-.35-.55-1.88-1.68-.73-.39-.34-.05-.27,0h-.24l-.29-.17-.36-.39-.22-.15-.31,0-.19-.06-.69-.34-.31-.1-1.23,0-1.79-.51-3,.46-2.71-.59-3.42-1.84L289.55,477l-1.12-.91-1.37-.48-1.19-.62-.53-.12-1.13.19-.57-.08-.48-.22-.44-.11-.44.29-.3-.38-.54-1.21-.29-.26-.31-.09-.88-.08-1.71-.59-1.85-.18-3.56-.72-2.29-.05-.65.6-.08-.72-.59-.37-.32-.27-.23-.15-1.11-.22-2.2-.67-.93-.42-2-1-2.23-1.22-.94-.63-.06-.35.11-.38-.3-.44-.37-.35-.94-.31-2.64-1-.48-.06h-1.28l-.51-.24-.45-.4-.13-.3-.4-.19-.73-.15-1.07.41-1.06-.13-1.07-.23-1.39-.7-.16-.16-.15-.58-.12-.29-.18-.22-.08-.41-.22-.41-.78-.17-1.51-.25-4.39-1.26-2.2-.85-2.95-.77-.73-.77-3.44-1.24-.88-.53-.41-.07-.43.13-.18.11h-.21l-.51-.28-.38-.31h0l1.28-2.8.13-.46.11-.63.15-.52.8-2,.62-.74,5.6-4.73.1.37.1.25.16.27.23.23.31.16.85.18,2.26.06,2.3.45,1.1,0,.3.05.23.14.1.26,0,.3-.06.3.12.45.33.55.83,1,.37.55.25.48.1.34.24.3.36.22,1.17.22.62.31.12.63.1.28.15.26.2.23,1.13.95.27.14.28.12.32.09.66.1h.56l.31-.08.37-.13.65-.35.66-.48.63-.63.26-.14.27,0,.3.22.11.3.19.84,0,.1,0,.06.19.2.2.16.17.22.08.29,0,1.37,0,.27.08.32.16.23.31.08.46-.11,2.06-1.48.26-.3.17-.31.23-1,.9-2,.19-.25.35-.23.52-.19,3.08-.37,2.93-.88,1.31-.25,1.22-.49,3.19-2,.92.23.27.1.6.11,2.2,0,1.2-.2-.08-.27-.22-.58-.27-1.24,0-.92.14-.27.26-.15.3-.08.64,0,.68.07.92.19h.24l.21-.07.21-.17.17-.22.27-.54.69-2,.18-.34,1.49-1.85.28-.51.12-1.26-.08-1.52,0-1.18.11-.49v-.34l-.1-.37-.24-.38-.48-.47-.31-.61.06-1.4.12-.37.23-.48.14-.22.19-.2.23-.2.53-.31.32-.13.37-.07h1.33l.37-.05.36-.09.61-.28.26-.17.17-.21v-.28l-.38-.67-.21-.95.58-1.2.68-.8.49-.38.43-.13.64.12.3.1.28.12.4.08.5,0,.9-.17.54,0,.43,0,.32.13.36.1h.53l.56-.16,2.34-1v.55l-.06.57,0,.26.11.26.21.28,2.12,2.05.76.31,1.9.21,1.87-.76.78-.19.7-.26.59-.33.64-.45.31-.09.39,0,.3.12.24.18.19.25.46.85.17.26.2.24.21.2.26.14h.28l.27-.16.62-1.21v-.26l0-.31,0-.34.26-.67,0-.29-.08-.64-.06-.27-.12-.3-.18-.24-.39-.46-.14-.26,0-.32.05-.31.11-.29.17-.23.25-.12.29,0,.26.05.16.05.23.1.71.57,1.66,1.81.68.73.5.89.19.26.21.21.31.18.39.12.61.08h.43l.34.05.14.21v.27l-.08.29-.15.26-.19.22-.51.35-.21.2L318,425l0,.32.5,1.53.06.28v.21l-.05.25-.19.57,0,.31.42.31.78.26,3.79.46.33.08.36.18.29,0,.25-.12.71-.71.41-.28.3-.13.65-.22.33-.05h.69l.36-.05.33-.11.27-.17.16-.23.06-.27-.1-.26-.16-.24-.13-.27v-.28l.2-.15H329l1,.59.47.06.63-.2.42.07.49.22,1.89,1.29.32.14.42.06.34-.07.24-.17.7-1,.22-.21.24-.16.29-.11.26,0,.31,0,.29.08.27.13.28.21.26.29.29.51.11.34,0,.39,0,.68.08,1.29.12.26.24.24.47.15.83.17.51.21.91.54.51.38.74.83.58.39.26.95.05,2,.12.48.21.35.25.24.24.35.09.29,0,.2,0,.39,0,1,.12.41.15.31,1.11,1,.45.36,1.32.81.28.28.35.47.15.4,0,.37-.07.31-.58,1.39,0,.29v.21l0,.37.15.27.21.22.3.25.31.32.6,1,.38.47,1.32.73.25.74v.73l-.13,1,.5,6.64-.1,1.78-.61,1-1.11,1.44-.17.31-.15.42-.06.35v.28l.05.25.39,1,.11.39.05.59-.12.35-.21.26-1,.57-.17.07h-.24l-.24-.13-.45-.38-.25-.14-.3,0-.3.1-.59.27-.34.1-1,.15-.28.1-1.38.87-.31.26-.42.55L342,472.54l-.8,1.07L341,474l0,.36.42,1.36.07.34,0,.9,0,.38-.14.28-.25.21-.93.42-.6.46-1.3,1.54-.19.39-.23.58,0,.37,0,.31.19.64.27.63.7,1,.54,1,2,1.11.28.24.25.34-.09.25-.12.26-.1.31-.3,2.78-.07.29-.09.24-.65,1.1-.22.64-.13,1-.25.58-.43.52-1,1Z"/><path class="cls-1" d="M226.61,453.12l-.64-.54-.36-.22-.59-.1h-.59l-.47-.13-.24-.45-.17-.1-.52-.05-.08-.22,0-.12.38-.26.56-.23.06-.42-.53-.6-.92-.41-1.25-.35-.88-.68.56-.05.3-.22.09-.31-.09-.36-.17-.26-.24-.25-1.59-1.14-.62-.19h-1.55l-.47-.27-.32-.47-.36-.66-1.63-1.81-.29-.56-.26-.27-1.14-.56-.37-.29-.07-.19-.09-1-.14-.2-1.41-.82-2.55-.85-.85-.32-.64-.24-.77-.36-1.41-.87-1.54-.51-.12-.13-.27-.13-.31-.11-.25,0-.34-.08-.25-.25-.22-.3-.24-.27-.23-.17-.24-.13-1.3-.45-.48-.37v-.69l-.19-.69-.16-.7-.48-.58-.59-.65-.32-.14-.14-.33.1-.29.14-.51-.16-.24-.43-.63-.71-.25-1.07-.48-.39-.29-.67-.73-.45-.35-.31-.1-.72,0-.31-.07-.22-.2L191,424l.78-.2.19-.3v-.31l-.26-.36-.35-.53-.22-.29-.32-.61-.42-.49-.49-.17-.5-.1-.3-.38-.22-.46-.26-.34-.42-.17-1.05-.26,0,.66-.44,1-.7-.92.13-.83-.17-1.11-.35-.65.27-.27-.05-.48.34-.28-.23-.29,0-.26,0-.33-.32-.31-.23-.48.32-.18,0-.75-.28-.49-.56-.25-.12-.36v-.22l0-.23v-.22l-.18-.16-.32,0-.17.17v.49l-.17.28-.38-.09-.49.16-.58-.25-.61.06-.1-.78v-.43l.27-1,.25-.46-.18-.37.24-.26.53,0,.48-.5.51-.05h.36l.21.32-.24.47v.42l.3.18.41.15.6.36.19-.35-.07-.63.08-.66.24-1.39.13-.93-.1-.61v-.82l.21-1,.2-1,.15-2.55-.5-2.2-.38-1.06-1-2-1-1,1.23-1.18.39-.74.78-2.2.21-.34,3.68-4,.24-.38.15-.35.26-1,.18-.38.21-.17.19,0h.14l.13.06,1.47.48.72.07,2-.34,2.7-.76.39-.19.72-.64.72-.45.24.27.09.13,0,.11,0,.21-.07.4-.22.69-.25.39-.26.27-1,.68-.2.21-.12.32,0,.44.6,1.59.09.41.05.48,0,.67-.14.38-.22.28-.54.33-.21.2-.15.26-.06.33v.75l0,.34-.09.31-.41.8-.22.57-.06.32v.34l.07.32.17.24.23.18.83.08,2-.38.6-.1.61,0,1,.11,1.57.43.66,0,1.07-.07.33.09.29.14.22.31-.56,2.24-.24.55-.33.49-.26.51.74,1.31.36.5.15.3.09.41-.67,1.88-.36.57,0,.4.09.24.13.28.55.71.1.28,0,.29-.22.53v.29l.12.26.34.5.29.28.4.28,1.78.46.37.15.54.31.45.19.59.14.42,0,1.11-.05.28.08.43.17.6.44,1.72.88,1.5,1.25.84.06.86-.08.38,0,.42.09.57.22.68.43.66.69-.23.54-.09.33,0,.48.07.5.7,1.11.23.51-.1.59-.79,2.27-.26.5-.18.5-.15.58.28.28.26.21,1.37.68.24.18.2.21.36.49.1.37.05.3-.44,1.28.54,1.22.18.75.15.21.27,0,1.48-.49.26-.13.23-.2.18-.23.56-1.06.22-.2.26-.14.32,0,.31.06.31.2.29.26.4.43.31.25.29.19.24.19.15.27-.09.82.06.38.34.41.31.23,1.38.71.24.18.21.21.19.37.19.53.2.9.38.84.63.55.51.79.62.66.18.29.15.34.24,1.09.12,1v.47l-.62,2.74-5.6,4.73-.62.74-.8,2-.15.52-.11.63-.13.46-1.28,2.8Zm-37.36-30.83.23.32.12.23.32.12-.08.22-.35,0-.51-.28-.41-.15,0-.34.21-.15Zm-9-12,.22.06,0,.32-.09.31-.27.11-.31,0-.26,0,0-.38.22-.28,0-.32.32,0Z"/><path class="cls-1" d="M183.81,394.3l-.86-.89-1.08-.77-2.2-2.23-2.74-2.72-1.08-.93-.32-.69-.52-.6-.5-1.27v-1.07l-.3-1.2-.56-.71-.35-.32-2.24-1.44-.64-.63-1.57-2.27-.33-.36-.07-.8-.07-.27-.26-.26-.51-.39-1.09-1.13-1.39-.69-.61-.34.18-.14.2-.11.22-.19.33-.42.1-.36,0-.35-.07-.3,0-.34.13-.84,1.52-.92.21-.23.1-.17.06-.16,0-.1-.14-.05-.11-.09-.09-.11,0-.53,0-.3.09-.18.09-.26.11-.15.1-.24,0-.32.24-.48.14-.72V364l0-.24-.07-.22-.12-.17-.3-.19-.3-.25-.64-.86-.12-.13-.22-.12-.25-.25-.25-.4-.09-.34-.17-.25-.42-.33-.2-.34.06-.36.27-.21.18-.19.15,0,.85.3.09-.06-.1-.18-.5-.49-.47-.35-.61-.37-.3,0h-.2l-.12-.07-.15-.11-.15-.91,0-.29.31-.28.18-.09.22-.07.47-.42.23-.42-.07-.24-.13-.28-.51-.57-.13-.19-.13-.17-.75-.59-.28-.18-.41-.17-.2,0-.29.52-1,1.28-.19.15-.3.17-.2.21-.15.25-.22.15-.45.17-.75.45-.22.11-.26,0-.11,0h-.1l-.12-.14-.13-.36.06-.29v-.19l0-.14v-.16l0-.19v-.49l.06-.15.09-.12.11-.21-.05-.18-.11-.18-.31,0-.29.07-.19-.09-.12-.34,0-.32v-.22l.15-.15.26-.34.12-.3,0-.45.11-.23.18-.11.2-.06.22,0,.32-.09.17-.12.63-1.13.1-.26-.09-.12-.31-.1-.78,0-.6-.12h-.48l-.35.18-.13.27-.25.28-.17.08-.35-.13-.18-.17-.21-.14-.3-.28-.33-.69-.06-.34-.1-.07-.19,0-.26.08-.62-.08-.14-.1-.12-.14-.11-.62.13-.56,0-.35.08-.29,0-.15-.14-.15-.47-.35-.25-.12-.24-.14-.24-.1h-.37l-.12.1-.06.11-.15,1-.23.46-.18.31-.28.22-.06.29v.24l.08.14.06.16-.08.11-.73.32-.7.68-.06,0h0l-.11-.31-.41-.66-.5-.51-.46-.17-.4-.09-.36-.27-.59-.58-.13-.19.17-.31,0-.25-.15-.22-.58-.51-.5-.69-.27-.3-.28-.1-.33-.05-.25-.2-.43-.46-.55-.26-1.33-.4L141,342.1l-4.84-1.79-.83-.46-.42-.27,0-.38-.16-.68-.23-.56.18-.21-.12-.24.21-.29.26-.05.36,0,.25-.2.32-.16.05-.49-.13-.76-.49-.63-.36-.4.12-.37-.69-.59.1-.32-.37-.48.1-.27L134,332l-.63-.61.09-.26.26-.33-.35-.56-.31-.44v-.39l-.3-.55-.38-.48-.51-.51-.54-.61v-.47l-.83-.49-.59-.42-.06-.43.12-.29-.59-.62v-.22l-.94-.67-.49-.26-.22-.33-.21-.3-.25-.22-.71-.48-1.51-1.93.72-.74.14-.09.48-.26.25-.17.23-.26.18-.36.16-.59.06-.39V317l0-.17-.19-.47-.07-.28,0-.3.26-1.27,0-.32-.1-1.18.11-.25.33-.21.34-.11,1.66-.05.5.39.15.15.34.57-.07.55-.16.57-.12.28-.15.26-.39.44-.65.58-.37.42-.05.11,0,.22.1.25.26.2.53.1.4,0,.7-.16.33,0,.33.07.61.48.33.19.85.22.32.17.22.34.08.28,0,.33-.11.62,0,.32,0,.28.08.32.11.28.29.55.11.3.06.33v.34l.06.27.19.2h.52l1.78-.2.44-.14,1.41-.78.87-.75.76-2,2.73-2.1.65-.64,1.26-1.62.5-1,.22-.7,0-.35-.06-1.47.05-.33.1-.3,1.18-1,4.77-2.79.27.94.19.26.35.32.32.11.33,0,.39-.08.43,0,.66.1.32.23.2.32.21.66.31.58,1.19.55.19,0,.55,0,.9,1.11.33.53.84,2.23.3.48,1,1.28.3.48.21.43.59,1.82.73.84,1,.86.53.63.51,2.54.13,1.66.12.38.11.27.22.21,1.49.67.47.36.4.7.08.41v.4l.14,2.07.65,3,.45,1.24,1.62,1.24.46.56.18.62,1.37,2.87.54.55.31.42.37.21.77.28.31.24.38.35.23,0,.42-.39.36-.11.66.1.34.2.2.24.12.37.17,1.33.43,1.29.21,1.17.18.43.22.27,1.47,1.09.28.39.32.86.21.26.26.17.61.29,1.09.65,1.44,2.46.33.3.46.3h.29l.5-.19,1.31-.84.38-.14.59-.13.39,0,2.46.71.28.12.26.15.84.38,2.36.52,1.56,1,.17.22.24.51-.4,1.14.16.56.43.5,2.67,4.12.44.4.51,1,.1,2.66-.08.65-.29,1.1-.09,1,.09.49.19.33.27.14,1.16.41,1.79,1,.11.87-.48,1.43-.61,1.15-1.08,1.33-.93.74-.2.39-.14.57-.1,1.86-.22,1.13-.72.45-.72.64-.39.19-2.7.76-2,.34-.72-.07-1.47-.48-.13-.06h-.14l-.19,0-.21.17-.18.38-.26,1-.15.35-.24.38-3.68,4-.21.34-.78,2.2-.39.74Z"/><path class="cls-1" d="M164.52,372.32l-.48-.74.49-.85.1-1.15-.4-1.11-1.12-.71-1-1.37-3-1.18-1.77-.48-.32,0-.12-.14-.58-.41-.22-.26-.12-.41,0-.27.09-.24v-.33l-.62-1.11-1.12-.61-.77-.13.08-.41,0-.78-.23-.68-.91-.46h0l-.42-2-.34-.64-.34-.86-.17-.28-.54-.64-.25-.59.07-.75-.53-.65,0-.27h.55l.26-.46-.2-.59-.89-1.23-.11-.3h0l.06,0,.7-.68.73-.32.08-.11-.06-.16-.08-.14v-.24l.06-.29.28-.22.18-.31.23-.46.15-1,.06-.11.12-.1h.37l.24.1.24.14.25.12.47.35.14.15,0,.15-.08.29,0,.35-.13.56.11.62.12.14.14.1.62.08.26-.08.19,0,.1.07.06.34.33.69.3.28.21.14.18.17.35.13.17-.08.25-.28.13-.27.35-.18h.48l.6.12.78,0,.31.1.09.12-.1.26-.63,1.13-.17.12-.32.09-.22,0-.2.06-.18.11-.11.23,0,.45-.12.3-.26.34-.15.15V353l0,.32.12.34.19.09.29-.07.31,0,.11.18.05.18-.11.21-.09.12-.06.15V355l0,.19v.16l0,.14v.19l-.06.29.13.36.12.14h.1l.11,0,.26,0,.22-.11.75-.45.45-.17.22-.15.15-.25.2-.21.3-.17.19-.15,1-1.28.29-.52.2,0,.41.17.28.18.75.59.13.17.13.19.51.57.13.28.07.24-.23.42-.47.42-.22.07-.18.09-.31.28,0,.29.15.91.15.11.12.07h.2l.3,0,.61.37.47.35.5.49.1.18-.09.06-.85-.3-.15,0-.18.19-.27.21-.06.36.2.34.42.33.17.25.09.34.25.4.25.25.22.12.12.13.64.86.3.25.3.19.12.17.07.22,0,.24v.26l-.14.72-.24.48,0,.32-.1.24-.11.15-.09.26-.09.18,0,.3,0,.53.09.11.11.09.14.05,0,.1-.06.16-.1.17-.21.23-1.52.92-.13.84,0,.34.07.3,0,.35-.1.36-.33.42-.22.19-.2.11Z"/><path class="cls-1" d="M153.61,360.85l-.56-.09-1.23.06.16-.59.28-.47.22-.51,0-.73h0l.91.46.23.68,0,.78Zm-3.5,0,1.27.87.29.24.13.18-.31,0-.36.1-.42-.22-.6-.29-.4-.43-.22-.39.26-.17Z"/><path class="cls-1" d="M125.05,320.14l-.77-1,0-.34-.48-.67-.63-.36-.85-.54v-.48l-.41-.61-.63-.63-.53-.51-.09-.27.19-.32-.09-.32-.37-.27-1.2-.57-.13-.56-.13-.77-.6-.38-.29-.24-.13-.46-.31-.58.09-.37-.34-.38-.18-.38-.66-.56-1.38-1-.34-.56-.24-.28,0-.3.24-.08.16-.19-.1-.36-.31-.32.06-.19-.1-.34,0-.25-.55-.58-.21-.67-.21-.3-.31-.36-.12-.29-.32-.08-.12-.12-.17,0-.07-.16,0-.16.14-.2-.07-.31,0-.35-.08-.37-.2-.44-.24-.24-.12-.5,0-.61.2-.44-.11-.92-1.29-.88-1.08-.95-.29-.67-.56-.45-.3-.5-.34-.25-.43-.57-.51-.43-.26-.88.07-.85-.59-.22-.18-.48,0-.41-.33-.38-.29-.69.19-.44.31-.42-.3-.44-.38.05-.67-.37-.24-.79,0-.5.19-.26.16-.2-.34-.08-.3-.3-.27-.13-.21-.35-.39-.09-.4.1-.23.19-.75-.65-.08-.27-.1-.33-.3-.14-.26-.23.24-.22.23-.25.32-.12.14-.62,0-.59-.37-.67-.59-.26-.59-.09-.41.24-.21.18-.06.25.16.22.07.37.21.57,0,.35-.34-.05-.49-.76-.65-.57-.47-.38,0-.31-.13-.15.12-.15.47.1.71.11.14-.26.1-.37-.08-.6-.34-.67-.37-.39-.44-.3-.39,0-.52.15-.28-.17-.34-.43,0-.49.13-.52.1-.31-.29-.22-.73-.17-.06-.31.24,0,.11-.21-.06-.5.51-.17.24-.29.09-.25.17-1-.05-2.54.47-1.31,1-1,3.94-2,1.4-1.31.68-.3.71-.18.74-.11h.13l.23-.11.66-1.91-.19-.49-.3-.5-.1-.28v-.32l.16-.4.76-1.27.79-1.94.06-.29v-.26l0-.31v-.26l.06-.29.5-1.06.05-.27V254l.08-.35.2-.38,4-4.42.4-.64.25-.57.26-1.49.15-.37.23-.3.48-.1h.37l.35.08.68.07.74-.05.45-.15.54-.24.81-.52.72-.31,1-.55.43-.44.53-.36-.08.56.2.54.4.47.54.45-.16.32,0,.37.14.36.19.31.52.6,2.35,1.64.65.17.3.1.21.12.42.33,2.21,2.63,2.43,2.3.69,1,.36.77.13,1.07.2.31.14.31.29,1,.39.69.09.25.22,1.43.22.35.34.2.8.32.35.26,1,1.05.23.35.08.45-.09.36,0,.36.24.44.58.58,1.82,1.31.42.18,1.48.22.25.38,1.21.78,1.14,1.24.36.23.4.13,1.61.24.19.08.15.18.09.2.12.15.27.06.44.57.72.3,1.53.29.91.32.84.45.54.45,0,1-.13.34-.19.28-.43.41-1.94,2.54-.23.48-2,7.21.19,1.52-.27,1-1.85,3-.32.67-.17.53,0,.34.06.26.2.32.77.84,1.24,2.05.53,1.14.27,1.78.32,1.08.21.39.23.28.5.32.28.11.32.07.38,0,.37.08.38.2.17.26.06.26-.05.28-.36,1.2-.05.33,0,1.47.31,1.59-4.77,2.79-1.18,1-.1.3-.05.33.06,1.47,0,.35-.22.7-.5,1-1.26,1.62-.65.64-2.73,2.1-.76,2-.87.75-1.41.78-.44.14-1.78.2h-.52l-.19-.2-.06-.27v-.34l-.06-.33-.11-.3-.29-.55-.11-.28-.08-.32,0-.28,0-.32.11-.62,0-.33-.08-.28-.22-.34-.32-.17-.85-.22-.33-.19-.61-.48-.33-.07-.33,0-.7.16-.4,0-.53-.1-.26-.2-.1-.25,0-.22.05-.11.37-.42.65-.58.39-.44.15-.26.12-.28.16-.57.07-.55-.34-.57-.15-.15-.5-.39-1.66.05-.34.11-.33.21-.11.25.1,1.18,0,.32-.26,1.27,0,.3.07.28.19.47,0,.17v.29l-.06.39-.16.59-.18.36-.23.26-.25.17-.48.26-.14.09Z"/><path class="cls-1" d="M96.39,274.85l0-.15L96.1,274l-.3-.42-.41-.56-.29-.4-.5-.46-.71-.75-1.61-1.62,0-.28,0-.28.19-.28.3-.28,0-.85-.22-.66v-.46l-.31-.74-.42-1.09-1-1.1-1-1-1.3-.92-.72-.4-1-.23-.47-.29-.43-.4.11-.39h.3l.17.06.33-.32.06-.62-.09-.61-2.16-2.39-.14-.64-.84-.87.06-.44-1.09-1-3.44-2.25-.11-.72-1.88-.92-3.72-2.09-1.74-1.49-1.13-1.25L70,243.44,68.33,242l-.39-.28-.31-.26.11-.24.33-.16.31-.37,0-.57-.48-.66L66.6,238l-2.46-2.58-.92-.83-.15-.7-.22-.53,0-.28.27-.38.07-.41-.44-.81-.45-.72-.05-.55-.68-1.28L60.49,228l-1.3-1-.44-.36.08-.51.61-1,4.22-5.43.17-.14.24-.14.44-.05,2.83.41.88.55.25,4.49.6.76.13.27.11.4v.35l0,.34-.15.61-.21.58-.25.48-.22.29-.08.81.13.23.19.23.26.15.56.21,1.24.15,2,.44h.46l1,.11.75.38,1.74,1.11.52.41.33.33.1.26.08.17,1,1.35.13.28.1.31,0,.29v.25l-.15.8,0,.36.11.46.21.24,1.62,1,.27.06.17,0,.28-.72.07-.13.09-.12.1-.1.08-.12.07-.14,0-.16,0-.53,0-.17.1-.28.21-.35.17-.2.46-.38.52-.29.12-.05.09,0,.76-.06.5-.11,1.08-.67.66-.54.14-.06.34-.06,1.16.25.77.34.19,0,.22,0,.48-.36.34-.17.46-.15.91-.15h.53l.42.06,1.36.63,1,.65.69.29,1.32.1,1.2-.38.28.07.32.13.22.27.28.27.54.3.49.12.61.07.29.1.17.13.08.26.22,1.09.24.41.47-.13.3-.21.76-.2.37-.24,1-1.09,1.11-1.52.35-.22.34-.05.25.14.46.39.27.16.4.05.37-.12,1.53-.88.37-.08,1.13-.11.29-.16.18-.25.21-1,.1-1-.07-.72-.16-.64-.23-.62-.08-.29.09-.37,1.42-1.24.36-.18.37-.1.33-.05,1-.26.31,0,.86,0-.36-.52-.25-.46-.77-.48-.81-.35-.65-.52-.37-1.07-.14-1-.1-.29-.17-.05-.2,0-.19-.1-.18-.22-.06-.15-.09-.76,0-.25,0-.21-.24-.28-.23-.12-.25-.07-.21-.11-.11-.2-.19-.46-.32-.26-.36-.2-.29-.25-.2-.41-.65-2-.65-.75-.21-.53-.49-.38.53-.27,1.22-.41L110,214l.44-.15.5-.1.64,0,.94.17.66,0,1.61-.44.44.35.35.38.46.7,1,2.09.34.26,1.67.86.37.3.28.38.08.54v.44l-.54,1.68.14.69.3.93,1.07,1.73.85.9.6.49.89.48.29.28.93,1.13,1,.78.33.38.13.58,0,.44-.43,1.71,0,.77.14,1,.33,1.2.25.6.29.56.67,1,1.4,1.53.27.43.16.39.15.93v.28l0,.17-.19.45-.07.22v.11l0,.1.15.2.23.21.61.46.2.25.14.28.23.3.39.22.8.1.58-.13.39-.17.51-.36.59-.08h.44l3.24.48,1,.32,1.33.21.6.17,1.4.58.24.15,2.18,2,.21.43.24.65,1.53,6.56.19.42.15.27.51.51-.2.7-.43.84-.29.21-.45.11-1.26-.19-.47.09-.37.14-.35,0-.29-.22-.2-.33-.41-1.33-.4-.71-.2-.18-.13-.1-.31,0-.51.09-1.31.66-.39.32-.48.22-.66.2-2.7.32-1.82.34-.13-1.07-.36-.77-.69-1-2.43-2.3-2.21-2.63-.42-.33-.21-.12-.3-.1-.65-.17-2.35-1.64-.52-.6-.19-.31-.14-.36,0-.37.16-.32-.54-.45-.4-.47-.2-.54.08-.56-.53.36-.43.44-1,.55-.72.31-.81.52-.54.24-.45.15-.74.05-.68-.07-.35-.08h-.37l-.48.1-.23.3-.15.37-.26,1.49-.25.57-.4.64-4,4.42-.2.38-.08.35v.49l-.05.27-.5,1.06-.06.29v.26l0,.31v.26l-.06.29-.79,1.94-.76,1.27-.16.4v.32l.1.28.3.5.19.49-.66,1.91-.23.11h-.13l-.74.11-.71.18-.68.3-1.4,1.31-3.94,2-1,1-.47,1.31.05,2.54-.17,1-.09.25-.24.29Z"/><path class="cls-1" d="M58.83,226.13l0-.14-.06-.76-.65-.63-3.51-2.68-1.71-1.29-.41-.56L50.75,219l-.52-.86-.24-.92-.58-.9-.81-.77-.54-.43-3.68-2.18-1.6-.73-4-1.66-5-1.75-5.3-1.8.58-.63.82-1.33,2-4.05.12-.38.18-1.22.13-.42.35-.82,3-4.59.31-.32.35-.26,8.64-3.83.94-.83L46,188l.1-.51v-.87l-.51-3-.89-2.79.06-.67.15-.16H45l.82.4,1.43,1,2,1.09.38.29.51.58.2.36.21.29.19.21.49.43.27.31.12.3v.31l-.12.27-.14.26-.18.57,0,.27v.2l0,.18.08.26.18.24.29.16.47,0,.81,0,.39.06.38.14.48.31.28.27.22.28.48.77.26.19.34.13h.6l.29,0,.62-.2.59-.25.34-.09.39,0,1.21.21.36.13.26.14.66.85.44.3.31-.06.26-.22.29-.17.47-.2.31,0,.19.13.13.24,0,.12.18.22.54-.53.28-.41.34-.19.31,0,.26.11.23.12.19.14.6.19.72.11.43.13.31.18.15.25.06.32,0,.32-.09.3-.13.26-1.48,1.81-.14.26-.06.31.05.34.16.35.33.22.42.07.44.13.17.23,0,.37-.15.84-.83,1.24-2.29.77-.63.32-.45.31-.3.3-.39.47-.23.4-.2.49,0,.38,0,.31.15.25.55.68.16.25.07.32,0,.32-.17.76.34,1.33.19.2.29.18.29,0,.3-.09h.34l.41.15.32.33.22.29.7,1.41.71,1.07.47.42.43.2.65-.16.7-.07.92.33,1.45.11.28.13.29.24.12.32.06.36,0,.36,0,.32-.12.27-.21.21-.49.3-.33.31L70.58,215l-.54.57-.7.37-.48.33-.21.29-.09.31.39,2.35v.46l0,.22-.15.21-.18.11-.35.08-.88-.55-2.83-.41-.44.05-.24.14-.17.14-4.22,5.43Z"/><path class="cls-1" d="M246,354.1l2.92-.45,1-.28,3.26-1.41.92-.5.24-.19.2-.21.33-.48.13-.25.4-1.18.12-.65,0-.67,0-.65-.27-1.27,0-.25,0-.65.07-.29,2.23-4.59.06-.27.07-2.58-.06-.52-.07-.3-.12-.29-.16-.21-.16-.14-.87-.51-.55-.25-.28-.09-.89-.1-1.21-.34-.32,0h-.35l-.66.13-.26,0-.23-.13-.09-.31.1-.26.18-.22.91-.76,2.4-2.58,1.35-2.72.89-3,.12-.9.87.07,1.25-.62.74-.22,2.09-.26,3.7-1,1.08-.45.88-.49.24-.22.18-.23.84-1.61.21-.22.31-.17.31.19.22.23.16.31.11.32.15.28.19.24.45.36.17.22.16.6.16.26.83.48,1.21.2.29.11.77.5.42.09.93-.2h.33l.33-.07.22-.14.26-.24.3-.22.53-.14.31.11.2.27.13.31.18.22.26.11.34,0,.27.09.77.43.3.1.41.09,1.29.07,1-.28.28-.2.22-.22.17-.23.25-.2.23-.24.68-.4.23-.22,1-1.11.49-.46,1-.59,1.95-.85.22-.15.25,0,.57.28.37.14.33-.06.72-.35.37,0h.29l.52.13.11,1.83-.27,1.62-2.8,7.64-.29,1.68,0,1.17-.12,1.91-.17.86-.06,1.13.07.44.84,2.43.13.27.09.13.13.13.59.44,2.57,1.18,2.22.73.44.23.38.46.34.6,1.22,3,.34.44.34.34.39.25.87.26.89,0,.44,0,.4.05.29.07.34.16.4.36.28.35.84,1.27,1.27,2.12.61,1.33.34.94.07.68-.31,1.38-.06.55.1.76.27.47.37.42.91,1.4.58.72,1,.52.82.25,5.67,1,.65,0,.52-.07,1.48-.36.6-.08.4.05.33.1.78.44.57.22,3.22.75,4.59.62.5.17,3.94,1.87.48.08,1,0,.78-.16,8.34.36,3.6-.72.55-.32.32-.35-.06-.35-.27-.27-.8-.36-.4-.23-.34-.29-.2-.35.09-.44.27-.2.42-.13.92-.06,1.4.11,1.53-.38.95,0,1,.09-.31,3.42.08,1.11.69,1.7.06.34,0,.34-.11.84-.5,1.8-.36.71-1.46,2.06-.73.82-.5.76-.36.66-.64,1.66-1.83,7-.38.9-.33.3-.75.36-2.31.71-.4.32-.05,1.56.1,1.55-.23,2.57.24.38.38.36.41.27.38.65.12.66-.12,4.06-.13.72-.33,1.18-.46,3.81-.11.29-.11.2-.26.25-1.52.15-.23.19-.23.28-.34,1.45-.07.89.2.46.38.54.08.33,0,.29-.12.22-.26.3-.2.18-.45.58-.31.48-.25.31-.26.22-.29.11-.8.18-.49.19-.15.46.05.27.11.29.18.24.83.91.59.53.3.18.3.1.3,0,.37-.08.4,0,.67.24.27.31.11.36-.14,1.43.08.42.17.5.45,1,.17.55,0,.44-.51,1.14-.17.6.09.9.53.56,0,.17.05.1-.1.49,0,.42v.66l.1.42.14.3.24.25.32.5.35.7.33,1,.26,2.38,0,.46-.13.33-.19.14-.43.21-.18.12-.33.32-.58-.39-.74-.83-.51-.38-.91-.54-.51-.21-.83-.17-.47-.15-.24-.24-.12-.26-.08-1.29,0-.68,0-.39-.11-.34-.29-.51-.26-.29-.28-.21-.27-.13-.29-.08-.31,0-.26,0-.29.11-.24.16-.22.21-.7,1-.24.17-.34.07-.42-.06-.32-.14L332,427l-.49-.22-.42-.07-.63.2-.47-.06-1-.59h-.35l-.2.15v.28l.13.27.16.24.1.26-.06.27-.16.23-.27.17-.33.11-.36.05h-.69l-.33.05-.65.22-.3.13-.41.28-.71.71-.25.12-.29,0-.36-.18-.33-.08-3.79-.46-.78-.26-.42-.31,0-.31.19-.57.05-.25v-.21l-.06-.28-.5-1.53,0-.32.12-.27.21-.2.51-.35.19-.22.15-.26.08-.29v-.27l-.14-.21-.34-.05h-.43l-.61-.08-.39-.12-.31-.18-.21-.21-.19-.26-.5-.89-.68-.73-1.66-1.81-.71-.57-.23-.1-.16-.05-.26-.05-.29,0-.25.12-.17.23-.11.29-.05.31,0,.32.14.26.39.46.18.24.12.3.06.27.08.64,0,.29-.26.67,0,.34,0,.31v.26l-.62,1.21-.27.16h-.28l-.26-.14-.21-.2-.2-.24-.17-.26-.46-.85-.19-.25-.24-.18-.3-.12-.39,0-.31.09-.64.45-.59.33-.7.26-.78.19-1.87.76-1.9-.21-.76-.31L299,421.74l-.21-.28-.11-.26,0-.26.06-.57v-.55l0-.74,0-.75-.1-.33-.15-.27-.54-.75-.12-.29,0-.33,0-.3.12-.32.16-.31.24-.37.28-.27.37-.25.64-.27L300,414l.42-.47.2-.34.12-.36.18-.27.29-.23.6-.17.49-.19.37-.27,1-.41.22-.29.59-1.7.22-.45.59-.81.58-1,.17-.24.19-.22.91-.8.17-.24.14-.27.23-.61.43-3.3-.72-5.2-.52-.8-.61-.77-.16-.29-.83-1.12-.41-.67-.5-.6-1.76-1.2-.3-.27-.22,0-1-.57-.18-.15-1.44.31-.45,0-1.2-.48-.59-.33-.39-.35.19-.25-.72-.81-.4-.34-.41-.1-1.19.16h-.39l-.21-.1-.16-.12-.19-.09-1.15-.17-1.2.1-.32-.06-.29-.4-.25-.07-.35,0-2.27-.89-2.13-1.28-1-.35h-1.12l-1.2.13-.15-.08-.2-.23-.17-.28-.09-.27-.17-.06-.76.08-1,.25-.4.24-.77.78-.08.05-.12.06H278l-.32-.12-.13,0-.37.15-.2.14-.42.58-.62.46-.54-.15-.53-.36-.57-.16-.17.11-.19.2-.19.14-.21-.05-.28-.14-1.08-.18-.25-.28-.88-.62-1.51-.68-.25-.22-.18-.37-.63-.52-.92-1.21-1.76-1.68-.94-.61-1-.19-.2-.15-.77-1.07-.46-.29-1.07-.43-.52-.15,0-.2.32-.7-.89-2.25.2-.55.12-.11-.1-.19-.23-.18-.29-.05-.25-.09-.17-.27-.63-1.48-.27-.47-.23-.19-.19-.2-.44-1.05-.24-1.07-.17-.36-.54-.63-.27-.49-.39-1-.3-.37-1.61-1.27-.51-.22,0,.17-.07.3V364l-.47-.28-1.86-1.88-.33-.8-.23-.4-.34-.14-.53-.08-.17-.33,0-.84-.1-.51-.13-.21-.22-.15L249,358l-.18-.35-.26-.78-.24-.32-1.3-1.21Z"/><path class="cls-1" d="M246,354.1l1,1.28,1.3,1.21.24.32.26.78.18.35.37.37.22.15.13.21.1.51,0,.84.17.33.53.08.34.14.23.4.33.8,1.86,1.88.47.28v-.16l.07-.3,0-.17.51.22,1.61,1.27.3.37.39,1,.27.49.54.63.17.36.24,1.07.44,1.05.19.2.23.19.27.47.63,1.48.17.27.25.09.29.05.23.18.1.19-.12.11-.2.55.89,2.25-.32.7,0,.2.52.15,1.07.43.46.29.77,1.07.2.15,1,.19.94.61,1.76,1.68.92,1.21.63.52.18.37.25.22,1.51.68.88.62.25.28-.09.33-.14.9-.16.34-.25.2-.32.05-1-.11h-.39l-.48.08h-.38l-.6-.16-.3,0-2.83,0-.89-.29-1.33-1-.52-.31L257,382.62l-.64-.42-.47-.6-.43-.37-.37-.15h-.34l-.26.14-.16.25-.09.3-.12.66-.21.55v.28l.11.27.47.55-.13.58-.53.93-.08.45,0,.41.27,1,.12.26.38.56.19,1,.43,1.1.41,2,.18.46.55.86.26.29.29.13.49,0,.29,0,.28.1.24.16.21.21.78,1,.72.69.07.43-.15.17-.29.19-1.2.51.23.67,4.14,5.82.51,1.95.54,1.21.32.58.28.41.83.85,1.13,1.39.21.47.1.4.05.47.33,1.23.19,1.17.05,2.09.08,1.87.11.53.88,1.15.58.82.13.69-.34,2.6-.17.35-.3.17-.68,0-.29.08.06.2,1.57,3,.48.39.5-.18.76-.33.89-.2.28-.12.22-.2.15-.25.2-.61.14-.27.53-.7.14-.27.09-.3.06-.33.08-.3.17-.21.28,0,.32,0,.7.18.48.07h.37l.32,0,.67-.16.67-.23,1.17-.58.6-.22.49-.12.25-.14.21-.19.35-.46.28-.15L281,422l.5,0,.37-.08.28-.17.16-.24.2-.52.18-.33.89.32.67.37.76.28,1,.62.38.19,2,.62.21.95.38.67v.28l-.17.21-.26.17-.61.28-.36.09-.37.05H285.9l-.37.07-.32.13-.53.31-.23.2-.19.2-.14.22-.23.48-.12.37-.06,1.4.31.61.48.47.24.38.1.37v.34l-.11.49,0,1.18.08,1.52-.12,1.26-.28.51-1.49,1.85-.18.34-.69,2-.27.54-.17.22-.21.17-.21.07h-.24l-.92-.19-.68-.07-.64,0-.3.08-.26.15-.14.27,0,.92.27,1.24.22.58.08.27-1.2.2-2.2,0-.6-.11-.27-.1-.92-.23-3.19,2-1.22.49-1.31.25-2.93.88-3.08.37-.52.19-.35.23-.19.25-.9,2-.23,1-.17.31-.26.3-2.06,1.48-.46.11-.31-.08L256,454l-.08-.32,0-.27,0-1.37-.08-.29-.17-.22-.2-.16-.19-.2,0-.06,0-.1-.19-.84-.11-.3-.3-.22-.27,0-.26.14-.63.63-.66.48-.65.35-.37.13-.31.08h-.56l-.66-.1-.32-.09-.28-.12-.27-.14-1.13-.95-.2-.23-.15-.26-.1-.28-.12-.63-.62-.31-1.17-.22-.36-.22-.24-.3-.1-.34-.25-.48-.37-.55-.83-1-.33-.55-.12-.45.06-.3,0-.3-.1-.26-.23-.14-.3-.05-1.1,0-2.3-.45-2.26-.06-.85-.18-.31-.16-.23-.23-.16-.27-.1-.25-.1-.37.62-2.74V438l-.12-1-.24-1.09-.15-.34-.18-.29-.62-.66-.51-.79-.63-.55-.38-.84-.2-.9-.19-.53-.19-.37-.21-.21-.24-.18-1.38-.71-.31-.23-.34-.41-.06-.38.09-.82-.15-.27-.24-.19-.29-.19-.31-.25-.4-.43-.29-.26-.31-.2-.31-.06-.32,0-.26.14-.22.2-.56,1.06-.18.23-.23.2-.26.13-1.48.49-.27,0-.15-.21-.18-.75-.54-1.22.44-1.28-.05-.3-.1-.37-.36-.49-.2-.21-.24-.18-1.37-.68-.26-.21-.28-.28.15-.58.18-.5.26-.5.79-2.27.1-.59-.23-.51-.7-1.11-.07-.5,0-.48.09-.33.23-.54.22-.64.63-.55,1.12-.7,4.72-1.66,1.58-.13.45-.11.21-.23.16-.44,0-.55-.18-3.58-.43-1.51-1-1.94-1.38-2.22-.29-.9-.22-2.31-.23-.48-.27-.35-.13-.14-.2-.17-.23-.16-.53-.28-.23-.18-.2-.22-.14-.25-.16-.34-.07-.09-.15-.14-.5-.28-.88-.32-.27-.15-.19-.18-.13-.23.44-2.92.1-.21.18-.13,1.42-.56,1-.62.28-.08h.3l.28.15.21.21.56.84.17.18.34.13.46.08.83,0,.45.09.38.12.6,0,.88-1.2.12-.27-.1-.15-.45-.07h-.38l-.37-.07-.28-.08-.8-.73-.24-.25.09-.28.32-.36,1.3-1,.32-.47.36-.94.14-.23.2-.15.23,0,.54.19.31,0,.31-.07.61-.24.33-.09.61-.07,1-.35.38-.23.45-.39.18-.44,0-.36-.07-.28-.12-.27-.33-.5L236,380l-.07-.37,0-.35V379l.06-.31.12-.28.18-.24.21-.2.26-.18.35-.1h.45l.67.25,1,.53.24.08h.19l.19-.36-.14-.72-.16-.46-1.12-2-.82-.61,0-1,0-.28-.26-.91.19-.22.08-.06.09,0h.4l0,0,0,0,0-.11,0-.14,0-.14,0-.15,0-.13.13-.31v-.33l-.06-.38-.09-.37-.16-.29-.84-1.21-.2-.41-.08-.29.07-.32v-.36l-.08-.6-.11-.33-.23-.42-.36-.46-1.71-1.61-.67-.79-.2-.28-.45-.81-.09-.12-.17-.11-.23-.09-.44-.06-.24,0-.18.06-.23.18-.14.07-.16.07-.18,0-.3-.16-.24-.15-1.29-1.5.45-1.7.44-2.65.14-.37.21-.4.89-1.16,1.7-1.67.62.53.15.18.23.4.21.49.07.11.09.11.12.09.24.09,1,.22.32.11.22.11.67.57.51.31.48.35.26.14.33.09,1.3.21h.23l.27-.06.49-.25.4-.32.63-.82.34-.29.26-.17.2-.06.26,0,.49.09.47.16.13.07.25.09.42,0Z"/><path class="cls-1" d="M272.19,385.25l1.08.18.28.14.21.05.19-.14.19-.2.17-.11.57.16.53.36.54.15.62-.46.42-.58.2-.14.37-.15.13,0,.32.12h.18l.12-.06.08-.05.77-.78.4-.24,1-.25.76-.08.17.06.09.27.17.28.2.23.15.08,1.2-.13h1.12l1,.35,2.13,1.28,2.27.89.35,0,.25.07.29.4.32.06,1.2-.1,1.15.17.19.09.16.12.21.1h.39l1.19-.16.41.1.4.34.72.81-.19.25.39.35.59.33,1.2.48.45,0,1.44-.31.18.15,1,.57.22,0,.3.27,1.76,1.2.5.6.41.67.83,1.12.16.29.61.77.52.8.72,5.2-.43,3.3-.23.61-.14.27-.17.24-.91.8-.19.22-.17.24-.58,1-.59.81-.22.45-.59,1.7-.22.29-1,.41-.37.27-.49.19-.6.17-.29.23-.18.27-.12.36-.2.34L300,414l-.46.28-.64.27-.37.25-.28.27-.24.37-.16.31-.12.32,0,.3,0,.33.12.29.54.75.15.27.1.33,0,.75,0,.74-2.34,1-.56.16h-.53l-.36-.1-.32-.13-.43,0-.54,0-.9.17-.5,0-.4-.08-.28-.12-.3-.1-.64-.12-.43.13-.49.38-.68.8-.58,1.2-2-.62-.38-.19-1-.62-.76-.28-.67-.37-.89-.32-.18.33-.2.52-.16.24-.28.17-.37.08-.5,0-.32.07-.28.15-.35.46-.21.19-.25.14-.49.12-.6.22-1.17.58-.67.23-.67.16-.32,0h-.37l-.48-.07-.7-.18-.32,0-.28,0-.17.21-.08.3-.06.33-.09.3-.14.27-.53.7-.14.27-.2.61-.15.25-.22.2-.28.12-.89.2-.76.33-.5.18-.48-.39-1.57-3-.06-.2.29-.08.68,0,.3-.17.17-.35.34-2.6-.13-.69-.58-.82-.88-1.15-.11-.53-.08-1.87-.05-2.09-.19-1.17L266.6,412l-.05-.47-.1-.4-.21-.47-1.13-1.39-.83-.85L264,408l-.32-.58-.54-1.21-.51-1.95-4.14-5.82-.23-.67,1.2-.51.29-.19.15-.17-.07-.43-.72-.69-.78-1-.21-.21-.24-.16-.28-.1-.29,0-.49,0-.29-.13-.26-.29-.55-.86-.18-.46-.41-2-.43-1.1-.19-1-.38-.56-.12-.26-.27-1,0-.41.08-.45.53-.93.13-.58-.47-.55-.11-.27V383l.21-.55.12-.66.09-.3.16-.25.26-.14h.34l.37.15.43.37.47.6.64.42,5.49,2.54.52.31,1.33,1,.89.29,2.83,0,.3,0,.6.16h.38l.48-.08h.39l1,.11.32-.05.25-.2.16-.34.14-.9Z"/><path class="cls-1" d="M233.09,351.93l-1.7,1.67-.89,1.16-.21.4-.14.37-.44,2.65-.45,1.7,1.29,1.5.24.15.3.16.18,0,.16-.07.14-.07.23-.18.18-.06.24,0,.44.06.23.09.17.11.09.12.45.81.2.28.67.79,1.71,1.61.36.46.23.42.11.33.08.6v.36l-.07.32.08.29.2.41.84,1.21.16.29.09.37.06.38v.33l-.13.31,0,.13,0,.15,0,.14,0,.14,0,.11,0,0,0,0h-.4l-.09,0-.08.06-.19.22.26.91,0,.28,0,1,.82.61,1.12,2,.16.46.14.72-.19.36h-.19l-.24-.08-1-.53-.67-.25h-.45l-.35.1-.26.18-.21.2-.18.24-.12.28-.06.31v.36l0,.35.07.37.26.63.33.5.12.27.07.28,0,.36-.18.44-.45.39-.38.23-1,.35-.61.07-.33.09-.61.24-.31.07-.31,0-.54-.19-.23,0-.2.15-.14.23-.36.94-.32.47-1.3,1-.32.36-.09.28.24.25.8.73.28.08.37.07h.38l.45.07.1.15-.12.27-.88,1.2-.6,0-.38-.12-.45-.09-.83,0-.46-.08-.34-.13-.17-.18-.56-.84-.21-.21-.28-.15h-.3l-.28.08-1,.62-1.42.56-.18.13-.1.21-.44,2.92.13.23.19.18.27.15.88.32.5.28.15.14.07.09.16.34.14.25.2.22.23.18.53.28.23.16.2.17.13.14.27.35.23.48.22,2.31.29.9,1.38,2.22,1,1.94.43,1.51.18,3.58,0,.55-.16.44-.21.23-.45.11-1.58.13-4.72,1.66-1.12.7-.63.55-.22.64-.66-.69-.68-.43-.57-.22-.42-.09-.38,0-.86.08-.84-.06-1.5-1.25-1.72-.88-.6-.44-.43-.17-.28-.08-1.11.05-.42,0-.59-.14-.45-.19-.54-.31-.37-.15-1.78-.46-.4-.28-.29-.28-.34-.5-.12-.26v-.29l.22-.53,0-.29-.1-.28-.55-.71-.13-.28-.09-.24,0-.4.36-.57.67-1.88-.09-.41-.15-.3-.36-.5-.74-1.31.26-.51.33-.49.24-.55.56-2.24-.22-.31-.29-.14-.33-.09-1.07.07-.66,0-1.57-.43-1-.11-.61,0-.6.1-2,.38-.83-.08-.23-.18-.17-.24-.07-.32v-.34l.06-.32.22-.57.41-.8.09-.31,0-.34v-.75l.06-.33.15-.26.21-.2.54-.33.22-.28.14-.38,0-.67-.05-.48-.09-.41-.6-1.59,0-.44.12-.32.2-.21,1-.68.26-.27.25-.39.22-.69.07-.4,0-.21,0-.11-.09-.13-.24-.27.22-1.13.1-1.86.14-.57.2-.39.93-.74,1.08-1.33.61-1.15.48-1.43-.11-.87,0-.31,0-.61L204,371l.14-.28.28-.21.26-.11.27-.18.19-.27.13-.45.13-.79.16-.35.26-.42,1.89-2.55.32-.3.5-.25.39-.14.35-.17.24-.35.69-1.41.64-.5,1.78-.67-.27-.08-.05,0-.11-.08-.27-.34-.07-.12-.2-.69-.38-.5-.06-.12-.11-.3.07-.06.14-.08.44-.16.57-.29.28-.29.19-.28.13-.27.74-2.08,0-.34,0-.35-.2-.68-.13-.3-.17-.26-.23-.19-.75-.46-.41-.44-.18-.25-.14-.27-.06-.29.07-.27.16-.23.57-.66.13-.24.1-.24.12-.42.12-.23.18-.16.33.09.23.16.63.7.24.17.23.13.24.1.4.13.61.13h.42l.48-.06.7-.23,1.08-.51.36-.08.47,0,.37.08.41,0,.46,0,.64-.11,1.4-.58.18-.15.11-.15L223,349l.13-.31.15-.23.11-.1.12-.09.21-.05.27,0,1.22.13.76,0,.57.2,1.44.84.86-.12H229l.31.15,2.11,1.56Z"/><path class="cls-1" d="M111.31,166l.7.65,1.42.78.83.35,3.6.85,2,.73,1.24.82.31.34.81.67,1.68,1.06,1.23.44.86.08,6.07-.54,1,.17.7.23.82.36,1.64.92.95.86.58.85,1.34,2.8.88,1.25,1,.85.94.47.57.16.85.16.6,0,.55-.1.84-.31.75-.5,3.83-3.58.83-.41.5,0,.63,0,.5.19.47.25.77.68.83.89,2.62,2.06.56.31.65.24,1.09.23.65,0,.57-.11,1.15-.41,2.63-.56,1.91-.15,3.67.27,1.64.18,1.92.46,1,.42,2.26,1.73.28.28.72,1,.24.38.15.35.11.37.07.36.3,8.52.21,1.08,0,.29-.23,2.44-.08.37-.15.41-1.19,2.44-.41,1.25-.19.37-.27.3-.37.25-.42.13-.45,0-.4-.15-.37-.25-2.95-2.83-.82-.5-1-.44-.62-.18-1.15-.16-.74,0-.79.12-.6.17-.59.27-.37.23-.52.56-.73,1.53-1,3.31-.28,1.66v.24l.06.22.38.77.26.44.28.6.22,1,.48,6.48.43,1.65.55,1.44.89,1.8,9.12,14.07,1.37,2.82.26,1,.1.73-.07.52-.15.46-.21.44-2.3,3.73-.15.48-.11.57-.06,1.51,0,1.65-.41,2.92-1.31,1.06-.25.33-.34.57-.75,1.81-.15.51-.29.53-.74.72-.79.06-.34-.09-.44-.25-.27-.29-.23-.29-.3-1.15-.63-1.21-.11-.3-.13-.26-.21-.55-.19-.28-.23-.28-.46-.25-.28-.27-.19-.28-.15-.49-.09-.13-.09-.08-.69-.46-.2-.24-.14-.3L163,250l-.08-.3-.15-.29-.64-.84-.28-.16-.38.05-.44.33-.22.33-.12.34,0,.68.36,2.12v1.36l-.17.67-.17.33-.23.33-.85.33-1.08.18-4.14-.09-.71-.14-2.54-.19-1-.19-1,0-2.39.86-.51-.51-.15-.27-.19-.42L144.43,248l-.24-.65-.21-.43-2.18-2-.24-.15-1.4-.58-.6-.17-1.33-.21-1-.32-3.24-.48h-.44l-.59.08-.51.36-.39.17-.58.13-.8-.1-.39-.22-.23-.3-.14-.28-.2-.25-.61-.46-.23-.21-.15-.2,0-.1v-.11l.07-.22.19-.45,0-.17v-.28l-.15-.93-.16-.39-.27-.43-1.4-1.53-.67-1-.29-.56-.25-.6-.33-1.2-.14-1,0-.77.43-1.71,0-.44-.13-.58-.33-.38-1-.78-.93-1.13-.29-.28-.89-.48-.6-.49-.85-.9-1.07-1.73-.3-.93-.14-.69.54-1.68v-.44l-.08-.54-.28-.38-.37-.3-1.67-.86-.34-.26-1-2.09-.46-.7-.35-.38-.44-.35-.53-.3-.27-.24-.3-.35-.21-.44-.12-.65v-.92l.46-2.67-.06-2.88-.24-1.69.06-1,.16-.5.18-.35.7-.57.56,0,.86.28.92.39.45.14.5.07.51,0,1.53-.37.6,0h.83l.48-.07,1.9-.79.51-.37.43-.51.26-.78.13-.58.12-.94.12-.47.31-.53.47-.68,2.27-2.53L129,192l-.15-.93L127.76,189l-.25-.58-.45-.69-.89-1.08-.72-.63-.58-.33-1-.37-1.6-.39-3.85-.5-1.21-.16-.87-.33-.51-.37-.86-.88-1-1.72-3.46-4.73L110,175l.43-.91.09-.43,0-.65-.08-.5-.86-2.75-.06-.41,0-.39.11-.53.67-1.32Z"/><path class="cls-1" d="M172.8,254.82l.29,1.14.53.79,1.56,1.75.28.52.18.47,1.15,5.08.09.24.08.14.18.13.16.07.26.08.28.06.3.1.33.23.35.33.73,1,.15.28.18.6.07.36,0,.37v.34l0,.46.12.51.35,1,.25.48.27.34.23.16.82.41.49.34.22.19,1.73,2.51.4.36.44.23,1-.09.68-.25.68-.44.26-.22,3.1-3.4.28-.19.77-.23.62-.26,1.28-.7.55-.41.36-.36.48-1.09.76-1.05.16-.33.29-1.19.2-.59.55-1.05.11-.28.21-.94.13-.38.18-.4.58-1,1.39-2.95.83-1.35,1.23-1.62.62-.61,1.39-.9.27-.22,2.24-2.49.41-.37,2-1.12.83-.37.64-.17,2.7-.16.36,0,.31.07.54.25.24.16.23.19.19.22.17.25.29.58.23.61.08.32,0,.28,0,.35-.12.31-.48.47-1.52,1.06-.26.22-.16.24-.09.3,0,.33.26,2.92-.08,1-.54,1.77-.37.83-.09.3-.05.33v.35l.07.35.49,1.23.08.36,0,.74-.13,1.39-.48,2.59-.12,1.32v.25l0,.25.14.37.6,1.07.53.64.58.52,4.58,5.11-6.11,4-6,1.94-.23.05-3.47-.07-.52.06-.42.13-5.19,3.43-.8.38-2.21.8-1.82.43-3.55.32-2.1.54-.48.18-.7.36-.42.3-.83.71-.54.65-.23.56-.18.75,0,1.42.06.78.13.64,1.79,5.17.86,1.46-.2.5-.72.67-3.8,2.37-1.33-.72-1.45-.35-5.69.37h-.25l-.29-.1-.22-.12-.44-.59-.31-.4-.4-.36-.24-.16-.55-.26-1.21-.34h-1.23l-3.53.45-1.58.58-.31.23-.29.34L160,308.63l-.62.7-1.82,1.57-.55,0-.19,0-1.19-.55-.31-.58-.21-.66-.2-.32-.32-.23-.66-.1-.43,0-.39.08-.33,0-.32-.11-.35-.32-.19-.26-.27-.94-.31-1.59,0-1.47.05-.33.36-1.2.05-.28-.06-.26-.17-.26-.38-.2-.37-.08-.38,0-.32-.07-.28-.11-.5-.32-.23-.28-.21-.39-.32-1.08-.27-1.78-.53-1.14-1.24-2.05-.77-.84-.2-.32-.06-.26,0-.34.17-.53.32-.67,1.85-3,.27-1-.19-1.52,2-7.21.23-.48,1.94-2.54.43-.41.19-.28.13-.34,0-1-.54-.45-.84-.45-.91-.32-1.53-.29-.72-.3-.44-.57-.27-.06-.12-.15-.09-.2-.15-.18-.19-.08-1.61-.24-.4-.13-.36-.23-1.14-1.24-1.21-.78-.25-.38-1.48-.22-.42-.18-1.82-1.31-.58-.58-.24-.44,0-.36.09-.36-.08-.45-.23-.35-1-1.05-.35-.26-.8-.32-.34-.2-.22-.35-.22-1.43-.09-.25-.39-.69-.29-1-.14-.31-.2-.31,1.82-.34,2.7-.32.66-.2.48-.22.39-.32,1.31-.66.51-.09.31,0,.13.1.2.18.4.71.41,1.33.2.33.29.22.35,0,.37-.14.47-.09,1.26.19.45-.11.29-.21.43-.84.2-.7,2.39-.86,1,0,1,.19,2.54.19.71.14,4.14.09,1.08-.18.85-.33.23-.33.17-.33.17-.67v-1.36l-.36-2.12,0-.68.12-.34.22-.33.44-.33.38-.05.28.16.64.84.15.29.08.3.08.64.14.3.2.24.69.46.09.08.09.13.15.49.19.28.28.27.46.25.23.28.19.28.21.55.13.26.11.3.63,1.21.3,1.15.23.29.27.29.44.25.34.09.79-.06.74-.72.29-.53.15-.51.75-1.81.34-.57.25-.33,1.31-1.06Z"/><path class="cls-1" d="M218.57,278.66l.84.73.39.47.85,1.3,1.56,2.92.31,1,0,1.14.16,1.05.63,1.28,1.75,2.31.48.8.15.73.2,4.37.08.45.16.44,1.22,2.18.31.4.7,1.14.56,1.35.09.13.18.14.34.13,2.2.5.45.17.37.24.3.3.23.35,0,.37-.13.33-.33.23-1.23.6-1.2.9-.43.45-1,1.43-.57.63-1.42,1.95-1.37,1.53-1.14.85-5.11.79-2.89-.41-1.25-.41-.47-.24-2.36-1.45-1.66-.71-1.2-.38L209,311h-.4l-.53.11-.48.21-.6.45-.3.31-.39.55-.36.26-4.34,1.74-.92.61-1,.32-2.84.43-2.4,1L188.26,320l-6.93,1.09h-.19l-.18,0-.22-.11-.21-.17-.39-.46-.2-.19-.29,0-.35.21L177.58,322l-.74.4-.69.28-.68.11-1.24,0-.29-.07-.24,0-.15,0-.18,0-.14,0-.08.36,0,.68.33,1.57.33,1.05.09.46-.1,1.15L170.17,329l-.7.12-1.68.06v-.4l-.08-.41-.4-.7-.47-.36-1.49-.67-.22-.21-.11-.27-.12-.38-.13-1.66-.51-2.54-.53-.63-1-.86-.73-.84-.59-1.82-.21-.43-.3-.48-1-1.28-.3-.48-.84-2.23-.33-.53-.9-1.11,1.82-1.57.62-.7,1.53-2.92.29-.34.31-.23,1.58-.58,3.53-.45h1.23l1.21.34.55.26.24.16.4.36.31.4.44.59.22.12.29.1h.25l5.69-.37,1.45.35,1.33.72,3.8-2.37.72-.67.2-.5-.86-1.46L182.9,297l-.13-.64-.06-.78,0-1.42.18-.75.23-.56.54-.65.83-.71.42-.3.7-.36.48-.18,2.1-.54,3.55-.32,1.82-.43,2.21-.8.8-.38,5.19-3.43.42-.13.52-.06,3.47.07.23-.05,6-1.94Z"/><path class="cls-1" d="M257.4,323.72l-.12.9-.89,3L255,330.34l-2.4,2.58-.91.76-.18.22-.1.26.09.31.23.13.26,0,.66-.13H253l.32,0,1.21.34.89.1.28.09.55.25.87.51.16.14.16.21.12.29.07.3.06.52-.07,2.58-.06.27-2.23,4.59-.07.29,0,.65,0,.25.27,1.27,0,.65,0,.67-.12.65-.4,1.18-.13.25-.33.48-.2.21-.24.19-.92.5L250,353.37l-1,.28-2.92.45-1.21.3-.42,0-.25-.09-.13-.07-.47-.16L243,354l-.26,0-.2.06-.26.17-.34.29-.63.82-.4.32-.49.25-.27.06H240l-1.3-.21-.33-.09-.26-.14-.48-.35-.51-.31-.67-.57-.22-.11-.32-.11-1-.22-.24-.09-.12-.09-.09-.11-.07-.11-.21-.49-.23-.4-.15-.18-.62-.53-1.68-1-2.11-1.56-.31-.15h-.19l-.86.12-1.44-.84-.57-.2-.76,0-1.22-.13-.27,0-.21.05-.12.09-.11.1-.15.23L223,349l-.14.44-.11.15-.18.15-1.4.58-.64.11-.46,0-.41,0-.37-.08-.47,0-.36.08-1.08.51-.7.23-.48.06h-.42l-.61-.13-.4-.13-.24-.1-.23-.13-.24-.17-.63-.7-.23-.16-.33-.09-.18.16-.12.23-.12.42-.1.24-.13.24-.57.66-.16.23-.07.27.06.29.14.27.18.25.41.44.75.46.23.19.17.26.13.3.2.68,0,.35,0,.34-.74,2.08-.13.27-.19.28-.28.29-.57.29-.44.16-.14.08-.07.06.11.3.06.12.38.5.2.69.07.12.27.34.11.08.05,0,.27.08-1.78.67-.64.5-.69,1.41-.24.35-.35.17-.39.14-.5.25-.32.3L205.83,368l-.26.42-.16.35-.13.79-.13.45-.19.27-.27.18-.26.11-.28.21L204,371l-.08.33,0,.61,0,.31-1.79-1-1.16-.41-.27-.14-.19-.33-.09-.49.09-1,.29-1.1.08-.65-.1-2.66-.51-1-.44-.4L197.17,359l-.43-.5-.16-.56.4-1.14-.24-.51-.17-.22-1.56-1-2.36-.52-.84-.38-.26-.15-.28-.12-2.46-.71-.39,0-.59.13-.38.14-1.31.84-.5.19h-.29l-.46-.3-.33-.3-1.44-2.46-1.09-.65-.61-.29-.26-.17-.21-.26-.32-.86-.28-.39-1.47-1.09-.22-.27-.18-.43-.21-1.17-.43-1.29-.17-1.33-.12-.37-.2-.24-.34-.2-.66-.1-.36.11-.42.39-.23,0-.38-.35-.31-.24-.77-.28-.37-.21-.31-.42-.54-.55-1.37-2.87-.18-.62-.46-.56L169,335.49l-.45-1.24-.65-3-.14-2.07,1.68-.06.7-.12,3.66-1.11.1-1.15-.09-.46-.33-1.05-.33-1.57,0-.68.08-.36.14,0,.18,0,.15,0,.24,0,.29.07,1.24,0,.68-.11.69-.28.74-.4,1.72-1.75.35-.21.29,0,.2.19.39.46.21.17.22.11.18,0h.19l6.93-1.09,6.18-2.94,2.4-1,2.84-.43,1-.32.92-.61,4.34-1.74.36-.26.39-.55.3-.31.6-.45.48-.21.53-.11h.4l.34.07,1.2.38,1.66.71,2.36,1.45.47.24,1.25.41,2.89.41,5.11-.79.92,2.73.44,1,.21.36.95,1.11.46.21.57.12.86-.05,1.15-.47.53-.38.38-.34.4-.27.51-.16,1.69-.14.62-.15.45-.17.49-.38,1.5-.64.44-.12.44-.07.89-.27.43-.17.42-.11h1.34l.87-.15.41-.2.4-.28.35-.36.33-.42,1.77-3.39.86-2.15.32-.38.43,0,.68.2.66.12,1.4.11.32.06.3.09.52.29.48.34,1.27,1.21,1.29,1.66,1.27,2,.06.19.16,1.09-.09,4,.06.29.11.35.84,1.7.56.78.74.71Z"/><polygon class="cls-2" points="155.02 361.89 156.78 359.87 154.25 359.28 155.04 356.89 157.38 357.87 157.17 355.34 159.69 355.34 159.46 357.94 161.97 356.89 162.75 359.27 160.18 359.89 161.91 361.87 159.87 363.36 158.48 361.11 157.07 363.39 155.02 361.89"/><path class="cls-3" d="M159.55,355.47l-.23,2.66,2.57-1.07.7,2.13-2.64.63,1.78,2-1.83,1.33-1.42-2.31L157,363.2l-1.82-1.33,1.8-2.08-2.6-.6.7-2.13,2.41,1-.21-2.59h2.24m.28-.25H157l0,.27.18,2.18-2-.84-.25-.11-.08.26-.71,2.13-.08.26.26.06,2.2.51L155,361.71l-.18.2.22.16,1.82,1.34.22.16.14-.23,1.24-2,1.21,2,.14.23.22-.16,1.83-1.33.22-.16-.18-.21L160.41,360l2.24-.53.26-.06-.08-.26-.7-2.13-.09-.26-.24.11-2.19.91.19-2.25,0-.27Z"/><polygon class="cls-2" points="215.52 433.19 217.27 431.16 214.74 430.57 215.53 428.19 217.87 429.16 217.67 426.64 220.18 426.64 219.96 429.23 222.46 428.19 223.25 430.57 220.68 431.18 222.41 433.16 220.36 434.66 218.97 432.4 217.56 434.68 215.52 433.19"/><path class="cls-3" d="M220.05,426.76l-.24,2.67,2.57-1.08.7,2.13-2.64.63,1.78,2-1.82,1.34L219,432.16l-1.45,2.34-1.82-1.33,1.8-2.08-2.6-.61.71-2.13,2.4,1-.21-2.6h2.25m.27-.25h-2.79l0,.27.18,2.19-2-.85-.25-.1-.08.25-.7,2.13-.09.26.27.06,2.19.52L215.51,433l-.18.21.22.16,1.83,1.33.21.16.15-.23,1.23-2,1.21,2,.15.23.21-.16,1.83-1.33.22-.17-.18-.2-1.5-1.72,2.23-.54.27-.06-.09-.26-.7-2.13-.08-.25-.25.1-2.19.92.2-2.25,0-.28Z"/><polygon class="cls-2" points="326.13 472.48 327.88 470.45 325.36 469.86 326.14 467.48 328.49 468.45 328.28 465.93 330.8 465.93 330.57 468.52 333.08 467.48 333.86 469.86 331.29 470.47 333.02 472.45 330.98 473.95 329.59 471.69 328.17 473.97 326.13 472.48"/><path class="cls-3" d="M330.66,466.05l-.23,2.67,2.57-1.08.7,2.13-2.64.63,1.78,2L331,473.77l-1.42-2.32-1.45,2.34-1.83-1.33,1.8-2.08-2.59-.61.7-2.13,2.41,1-.21-2.6h2.24m.27-.25h-2.78l0,.27.18,2.19-2-.85-.25-.1-.09.25-.7,2.13-.08.26.26.06,2.19.52-1.52,1.76-.18.21.22.16L328,474l.22.16.14-.23,1.24-2,1.21,2,.14.23.22-.16,1.82-1.33.22-.17-.18-.2-1.5-1.72,2.24-.54L334,470l-.08-.26-.7-2.13-.09-.25-.25.1-2.19.92.2-2.25,0-.28Z"/><polygon class="cls-2" points="284.23 380.19 285.98 378.16 283.45 377.57 284.24 375.19 286.58 376.17 286.38 373.64 288.89 373.64 288.67 376.24 291.17 375.19 291.96 377.57 289.38 378.19 291.12 380.17 289.07 381.66 287.68 379.4 286.27 381.68 284.23 380.19"/><path class="cls-3" d="M288.76,373.77l-.24,2.66,2.57-1.07.7,2.12-2.64.63,1.78,2-1.82,1.33-1.43-2.32-1.45,2.34-1.82-1.33,1.8-2.08-2.59-.61.7-2.12,2.4,1-.21-2.59h2.25m.27-.25h-2.79l0,.27.18,2.18-2-.85-.25-.1-.08.26-.7,2.12-.09.26.27.07,2.19.51L284.22,380l-.18.2.22.16,1.83,1.33.21.16.15-.23,1.23-2,1.21,2,.15.23.21-.16,1.83-1.33.22-.16-.18-.21-1.5-1.72,2.23-.53.27-.07-.09-.26-.7-2.12-.08-.26-.25.1-2.19.92.2-2.25,0-.27Z"/><polygon class="cls-2" points="305.04 390.62 306.8 388.6 304.27 388.01 305.06 385.62 307.4 386.6 307.19 384.07 309.71 384.07 309.48 386.67 311.99 385.62 312.77 388.01 310.2 388.62 311.93 390.6 309.89 392.09 308.5 389.84 307.08 392.12 305.04 390.62"/><path class="cls-3" d="M309.57,384.2l-.23,2.66,2.57-1.07.7,2.13-2.64.63,1.78,2-1.83,1.33-1.42-2.31-1.45,2.34-1.82-1.34,1.79-2.08-2.59-.6.7-2.13,2.41,1-.21-2.59h2.24m.28-.25h-2.79l0,.27.18,2.19-2-.85-.25-.11-.08.26-.71,2.13-.08.26.26.06,2.2.51L305,390.44l-.18.21.22.16,1.82,1.33.22.16.14-.23,1.24-2,1.21,2,.14.23.22-.16,1.82-1.33.22-.16-.17-.2-1.51-1.73,2.24-.53.26-.06-.08-.26-.7-2.13-.09-.26-.25.11-2.19.91.2-2.25,0-.27Z"/><polygon class="cls-2" points="306.57 345.27 308.32 343.25 305.8 342.66 306.58 340.27 308.93 341.25 308.72 338.73 311.24 338.73 311.01 341.32 313.51 340.27 314.3 342.66 311.73 343.27 313.46 345.25 311.42 346.74 310.03 344.49 308.61 346.77 306.57 345.27"/><path class="cls-3" d="M311.1,338.85l-.23,2.67,2.57-1.08.7,2.13-2.64.63,1.77,2-1.82,1.33L310,344.25l-1.45,2.34-1.83-1.34,1.8-2.07-2.59-.61.7-2.13,2.41,1-.21-2.6h2.24m.27-.25h-2.78l0,.27.18,2.19-2-.85-.25-.1-.09.25-.7,2.13-.08.26.26.06,2.19.51-1.53,1.77-.17.21.22.16,1.82,1.33.22.16.14-.23,1.24-2,1.21,2,.14.23.22-.15,1.82-1.34.22-.16-.18-.2-1.5-1.72,2.24-.54.26-.06-.08-.26-.7-2.13-.09-.25-.25.1-2.19.92.2-2.26,0-.27Z"/><path class="cls-2" d="M295.88,472.6h-.78l0-1.67a24.86,24.86,0,0,0,3.76-.17l.2,1.66A29.3,29.3,0,0,1,295.88,472.6Zm-4.76-.42a28.76,28.76,0,0,1-3.19-.74l-.68-.2.49-1.59.65.19a28,28,0,0,0,3,.7Zm11.91-.52-.42-1.61a35,35,0,0,0,3.6-1.17l.6,1.55A35.3,35.3,0,0,1,303,471.66Zm-19.51-1.73c-1.17-.47-2.39-1-3.61-1.59l.72-1.5c1.19.57,2.37,1.08,3.51,1.54Zm26.91-1.11-.75-1.49c1.09-.54,2.22-1.16,3.36-1.83l.85,1.43C312.71,467.63,311.55,468.26,310.43,468.82Zm-34-2.27c-1.11-.6-2.25-1.26-3.4-2l.86-1.43c1.13.69,2.25,1.34,3.33,1.93Zm122.28-.73c-.78-.39-1.58-.82-2.35-1.26-.35-.21-.71-.39-1.06-.56l.71-1.51a13.35,13.35,0,0,1,1.18.63c.75.43,1.51.83,2.26,1.21Zm-81.48-1-.91-1.4c1.06-.69,2.12-1.42,3.19-2.17l.95,1.37C319.37,463.41,318.3,464.15,317.22,464.86Zm74.57-2.08a34.54,34.54,0,0,0-3.74-.67l.22-1.65a34.64,34.64,0,0,1,3.91.71Zm-122.08-.3c-1.08-.71-2.15-1.45-3.23-2.21l1-1.36c1.06.75,2.12,1.48,3.18,2.18Zm114.49-.85c-1.08-.14-2.5-.34-3.91-.66l.37-1.62c1.34.3,2.71.5,3.75.63Zm-60.57-1.24-1-1.35,1.49-1.08c.54-.39,1.08-.8,1.62-1.21l1,1.32q-.82.63-1.65,1.23Zm52.82-.67a17.59,17.59,0,0,1-1.83-1,10.1,10.1,0,0,1-1.65-1.25l1.12-1.23a8.53,8.53,0,0,0,1.4,1.05,14.18,14.18,0,0,0,1.64.87ZM263.33,458c-1-.78-2.06-1.58-3.09-2.39l1-1.31c1,.81,2,1.6,3.05,2.37Zm66.52-2.27-1-1.31.58-.45,2.48-1.95,1,1.32-2.48,1.94Zm40.49-1.26c-.54-.78-1.06-1.59-1.59-2.42l-.56-.86,1.4-.91.56.88c.52.8,1,1.6,1.55,2.35Zm-113.13-1.34c-1-.83-2-1.68-3-2.53l1.09-1.26c1,.85,2,1.69,2.95,2.51ZM336,451l-1-1.34c1.14-.85,2.19-1.58,3.21-2.26l.92,1.38C338.14,449.4,337.11,450.12,336,451ZM366,448a15.2,15.2,0,0,0-2.6-2.6l1-1.32A17,17,0,0,1,367.3,447ZM251.32,448c-1-.87-1.93-1.75-2.87-2.63l1.13-1.22q1.41,1.32,2.85,2.61Zm91.06-1.25-.82-1.44a39.32,39.32,0,0,1,3.53-1.8l.68,1.52C344.67,445.48,343.53,446.06,342.38,446.71Zm17.86-3a13.79,13.79,0,0,0-3.57-.77l.15-1.66a15.61,15.61,0,0,1,4,.87Zm-10.94,0-.46-1.6a22.83,22.83,0,0,1,4-.79L353,443A20.62,20.62,0,0,0,349.3,443.69Zm-103.69-1c-1-.91-1.88-1.82-2.8-2.72l1.17-1.19c.91.9,1.84,1.8,2.78,2.71Zm-5.55-5.48c-.93-.93-1.84-1.86-2.73-2.78l1.19-1.16c.89.92,1.8,1.84,2.72,2.77Zm-5.43-5.59c-.92-1-1.81-1.91-2.67-2.84l1.22-1.13c.86.92,1.74,1.86,2.66,2.82Zm-5.32-5.7c-.92-1-1.79-1.95-2.63-2.87l1.24-1.12,2.62,2.87ZM224,420.5a13.3,13.3,0,0,0-3.23-1.71l.58-1.56a15.07,15.07,0,0,1,3.62,1.91Zm-6.82-2.6a28.68,28.68,0,0,0-3.77-.29l0-1.66a30.21,30.21,0,0,1,4,.3Zm-9.23-.26c-.79,0-1.57,0-2.33-.06l.08-1.66c1.24.06,2.52.05,3.83,0l0,1.66Zm-6.34-.64a10.52,10.52,0,0,1-3.77-1.83l1-1.31A8.93,8.93,0,0,0,202,415.4Zm-6.45-5a15.83,15.83,0,0,1-1-2.15c-.2-.53-.38-1.06-.55-1.59l1.58-.51c.17.51.34,1,.53,1.52a14.22,14.22,0,0,0,.87,1.92Zm-2.63-7.51-.22-.84c-.26-1-.52-1.93-.8-2.89l1.6-.46c.28,1,.54,1.94.81,2.92l.22.84Zm-2.22-7.36c-.44-1.17-.95-2.35-1.5-3.49l1.5-.73c.57,1.19,1.1,2.41,1.56,3.64Zm-3.3-6.85c-.63-1.07-1.33-2.15-2.07-3.22l1.37-.95c.76,1.1,1.48,2.22,2.13,3.32ZM182.61,384c-.77-1-1.61-1.95-2.49-2.92l1.24-1.11c.9,1,1.75,2,2.55,3Zm-5.13-5.7c-.91-.91-1.84-1.8-2.78-2.67l1.13-1.23c1,.89,1.9,1.8,2.82,2.72ZM171.82,373c-1-.85-2-1.68-3-2.5l1.06-1.28c1,.83,2,1.67,3,2.52Zm-6-4.94-3.05-2.4,1-1.31c1,.8,2,1.6,3,2.41Z"/><path class="cls-2" d="M404.28,468.06q-.94-.3-1.86-.63l.57-1.57c.59.22,1.18.42,1.78.6Z"/><path class="cls-3" d="M153.84,461c.29-.16.63-.31,1-.48A11.8,11.8,0,0,1,156,460a11.18,11.18,0,0,1,1.29-.36,6.42,6.42,0,0,1,1.29-.13,5.47,5.47,0,0,1,1.64.23,3.3,3.3,0,0,1,2.2,2,4.76,4.76,0,0,1,.33,1.88,6.45,6.45,0,0,1-.71,2.89,14.74,14.74,0,0,1-2.23,3.13l-1.25,1.43h4.54v3.05h-9.32l-.38-.95c.23-.33.46-.69.72-1.06s.5-.77.77-1.16.52-.78.78-1.15l.71-1.09q.77-.9,1.32-1.59a14.24,14.24,0,0,0,.88-1.26,5.42,5.42,0,0,0,.48-1,2.93,2.93,0,0,0,.15-.9,1.56,1.56,0,0,0-.33-1,1.09,1.09,0,0,0-.91-.42,3.44,3.44,0,0,0-1.27.29c-.47.2-1,.46-1.68.79Z"/><path class="cls-3" d="M173.93,461.43a9.16,9.16,0,0,1,1.34,5.33,12.27,12.27,0,0,1-.35,3.09,7.17,7.17,0,0,1-1.06,2.39,4.83,4.83,0,0,1-1.74,1.54,5.12,5.12,0,0,1-2.4.55,4.61,4.61,0,0,1-4-1.87,9,9,0,0,1-1.35-5.33,12.06,12.06,0,0,1,.37-3.11,7.33,7.33,0,0,1,1.07-2.4,4.91,4.91,0,0,1,1.75-1.55,5,5,0,0,1,2.41-.55A4.5,4.5,0,0,1,173.93,461.43Zm-5.57,1.81a12.63,12.63,0,0,0-.4,3.64c0,.75,0,1.43.09,2.05a6.35,6.35,0,0,0,.3,1.56,2.22,2.22,0,0,0,.62,1,1.42,1.42,0,0,0,1,.35c.63,0,1.08-.39,1.33-1.19a12.43,12.43,0,0,0,.39-3.6c0-.76,0-1.44-.08-2.05a7,7,0,0,0-.31-1.58,2.52,2.52,0,0,0-.59-1,1.37,1.37,0,0,0-1-.36C169.08,462,168.63,462.44,168.36,463.24Z"/><path class="cls-3" d="M182.76,459.63v14.49h-3.32V463.53a8.49,8.49,0,0,1-1.15.81A7.17,7.17,0,0,1,177,465l-1.15-2.31c.71-.33,1.44-.72,2.19-1.16a9.07,9.07,0,0,0,2.15-1.85Z"/><path class="cls-3" d="M190.28,474.33a6.7,6.7,0,0,1-1.78-.24,5,5,0,0,1-1.59-.73,3.85,3.85,0,0,1-1.13-1.24,3.63,3.63,0,0,1-.43-1.78,3.68,3.68,0,0,1,.66-2.13,7.08,7.08,0,0,1,1.94-1.79,4.87,4.87,0,0,1-1.56-1.31,3,3,0,0,1-.62-1.92,3.09,3.09,0,0,1,.43-1.66,3.63,3.63,0,0,1,1.1-1.14,5.28,5.28,0,0,1,1.49-.66,6.32,6.32,0,0,1,1.59-.21,5.94,5.94,0,0,1,1.57.21,4.58,4.58,0,0,1,1.39.66,3.42,3.42,0,0,1,1,1.12,3.22,3.22,0,0,1,.38,1.59,3.06,3.06,0,0,1-.55,1.82,5.1,5.1,0,0,1-1.51,1.39,5.3,5.3,0,0,1,1.93,1.77,4,4,0,0,1,.63,2.13,3.79,3.79,0,0,1-.42,1.82,3.94,3.94,0,0,1-1.1,1.29,4.78,4.78,0,0,1-1.57.76A7,7,0,0,1,190.28,474.33Zm-1.41-3.85a1.45,1.45,0,0,0,.42,1.1,1.53,1.53,0,0,0,1.09.39,1.09,1.09,0,0,0,.92-.43,1.57,1.57,0,0,0,.34-1,2.24,2.24,0,0,0-.39-1.25,6.26,6.26,0,0,0-.95-1.13A2.89,2.89,0,0,0,188.87,470.48Zm2.43-7.5a1,1,0,0,0-.34-.87,1.23,1.23,0,0,0-.7-.24,1.38,1.38,0,0,0-.74.24,1,1,0,0,0-.38.87,2,2,0,0,0,.31,1.06,2.73,2.73,0,0,0,.85.84A2.26,2.26,0,0,0,191.3,463Z"/></g></svg>