<svg xmlns="http://www.w3.org/2000/svg" viewBox="0 0 410.56 173.15"><defs><style>.cls-1{fill:#0a4fba;}.cls-2{fill:#efefef;}.cls-3{fill:#d20c22;}.cls-4{fill:#2a3939;}.cls-5{fill:#4c6970;}.cls-6{fill:#c3c3c3;}.cls-7{fill:#929085;}.cls-8{fill:#394949;}.cls-9{fill:#a49b80;}.cls-10{fill:#565656;}.cls-11{fill:#405959;}.cls-12{fill:#71a52e;}.cls-13{fill:#f95100;}.cls-14{fill:#f77a00;}.cls-15{fill:#fbae66;}.cls-16{fill:#cf7716;}.cls-17{fill:#fddb00;}.cls-18{fill:#fba000;}.cls-19{fill:#fac000;}.cls-20{fill:#fde457;}.cls-21{fill:#fcd500;}</style></defs><g id="Capa_1" data-name="Capa 1"><path class="cls-1" d="M178.12,131.3a34.19,34.19,0,0,0,2.12,11.89l32,3,32.05-3a34.25,34.25,0,0,0,0-23.78l-32.05-3-32,3A34.23,34.23,0,0,0,178.12,131.3Z"/><path class="cls-2" d="M244.34,119.41a34.19,34.19,0,0,0-64.1,0Z"/><path class="cls-3" d="M180.24,143.19a34.19,34.19,0,0,0,64.1,0Z"/><path class="cls-4" d="M256.28,150.8a1.23,1.23,0,0,1-.69-2.25l5.75-3.84a2.44,2.44,0,0,0,1.1-2.05v-4.18a2.47,2.47,0,0,0-4.93,0,1.23,1.23,0,1,1-2.46,0,4.93,4.93,0,1,1,9.85,0v4.18a4.93,4.93,0,0,1-2.19,4.11L257,150.6A1.22,1.22,0,0,1,256.28,150.8Z"/><path class="cls-5" d="M231.47,150.8a1.23,1.23,0,0,1-.69-.2L225,146.77a4.92,4.92,0,0,1-2.2-4.11v-4.18a4.93,4.93,0,1,1,9.86,0,1.23,1.23,0,0,1-2.46,0,2.47,2.47,0,0,0-4.93,0v4.18a2.45,2.45,0,0,0,1.09,2.05l5.75,3.84a1.23,1.23,0,0,1-.68,2.25Z"/><path class="cls-6" d="M256.2,131.09H231.55a1.22,1.22,0,0,0-1.23,1.23v14.79c0,4.16,2.22,7.49,6.26,9.39a6.16,6.16,0,0,1,3.6,5.56,1.22,1.22,0,0,0,1.23,1.23h4.93a1.22,1.22,0,0,0,1.23-1.23v-.4a6,6,0,0,1,2.86-5.09c4.21-2.39,7-4.9,7-9.46V132.32A1.22,1.22,0,0,0,256.2,131.09Z"/><path class="cls-7" d="M257.43,132.32v14.79c0,4.56-2.79,7.07-7,9.46a6,6,0,0,0-2.86,5.09v.4a1.22,1.22,0,0,1-1.23,1.23h-2.47v-32.2H256.2A1.22,1.22,0,0,1,257.43,132.32Z"/><path class="cls-8" d="M248.8,160.83h-9.86a3.69,3.69,0,0,0-3.69,3.69V167a1.22,1.22,0,0,0,1.23,1.23h14.79A1.22,1.22,0,0,0,252.5,167v-2.47A3.69,3.69,0,0,0,248.8,160.83Z"/><path class="cls-5" d="M251.27,165.76H236.48a3.69,3.69,0,0,0-3.7,3.69v2.47a1.22,1.22,0,0,0,1.23,1.23h19.72a1.22,1.22,0,0,0,1.23-1.23v-2.47A3.69,3.69,0,0,0,251.27,165.76Z"/><path class="cls-9" d="M251.19,141.34a1.19,1.19,0,0,0-1-.84l-3.6-.54-1.6-3.25a1.23,1.23,0,0,0-1.11-.64,1.26,1.26,0,0,0-1.11.64l-1.6,3.25-3.6.54a1.22,1.22,0,0,0-.69,2.1l2.62,2.54-.62,3.57a1.23,1.23,0,0,0,.49,1.21,1.19,1.19,0,0,0,1.28.09l3.23-1.7,3.23,1.7a1.15,1.15,0,0,0,1.28-.09,1.21,1.21,0,0,0,.5-1.21l-.62-3.57,2.61-2.54A1.19,1.19,0,0,0,251.19,141.34Z"/><path class="cls-10" d="M247.1,150l-3.23-1.7V136.07a1.23,1.23,0,0,1,1.11.64l1.6,3.25,3.6.54a1.22,1.22,0,0,1,.69,2.1l-2.61,2.54.62,3.57a1.21,1.21,0,0,1-.5,1.21A1.15,1.15,0,0,1,247.1,150Z"/><path class="cls-4" d="M252.5,164.52V167a1.22,1.22,0,0,1-1.23,1.23h-7.4v-7.39h4.93A3.69,3.69,0,0,1,252.5,164.52Z"/><path class="cls-11" d="M255,169.45v2.47a1.22,1.22,0,0,1-1.23,1.23h-9.86v-7.39h7.4A3.69,3.69,0,0,1,255,169.45Z"/><circle class="cls-2" cx="374.95" cy="142.95" r="22.6"/><path class="cls-3" d="M397.55,143a22.59,22.59,0,0,0-14.74-21.19v42.38A22.59,22.59,0,0,0,397.55,143Z"/><path class="cls-12" d="M352.35,143a22.59,22.59,0,0,0,14.74,21.19V121.76A22.59,22.59,0,0,0,352.35,143Z"/><path class="cls-13" d="M404.86,158.37a.81.81,0,0,1-.46-1.49l3.8-2.54a1.61,1.61,0,0,0,.73-1.35v-2.77a1.63,1.63,0,1,0-3.26,0,.82.82,0,1,1-1.63,0,3.26,3.26,0,1,1,6.52,0V153a3.24,3.24,0,0,1-1.45,2.71l-3.8,2.53A.77.77,0,0,1,404.86,158.37Z"/><path class="cls-14" d="M388.45,158.37a.73.73,0,0,1-.45-.14l-3.81-2.53a3.27,3.27,0,0,1-1.45-2.71v-2.77a3.26,3.26,0,0,1,6.52,0,.82.82,0,0,1-.81.82.82.82,0,0,1-.82-.82,1.63,1.63,0,0,0-3.26,0V153a1.61,1.61,0,0,0,.73,1.35l3.8,2.54a.82.82,0,0,1,.23,1.13A.84.84,0,0,1,388.45,158.37Z"/><path class="cls-15" d="M404.8,145.33H388.5a.81.81,0,0,0-.81.82v9.78a6.65,6.65,0,0,0,4.14,6.21,4.08,4.08,0,0,1,2.38,3.67.81.81,0,0,0,.81.82h3.26a.81.81,0,0,0,.82-.82v-.26a3.91,3.91,0,0,1,1.89-3.36c2.78-1.59,4.63-3.25,4.63-6.26v-9.78A.81.81,0,0,0,404.8,145.33Z"/><path class="cls-16" d="M405.62,146.15v9.78c0,3-1.85,4.67-4.63,6.26a3.91,3.91,0,0,0-1.89,3.36v.26a.81.81,0,0,1-.82.82h-1.63v-21.3h8.15A.81.81,0,0,1,405.62,146.15Z"/><path class="cls-8" d="M399.91,165h-6.52a2.44,2.44,0,0,0-2.44,2.44v1.63a.81.81,0,0,0,.81.82h9.78a.81.81,0,0,0,.82-.82v-1.63A2.45,2.45,0,0,0,399.91,165Z"/><path class="cls-5" d="M401.54,168.26h-9.78a2.44,2.44,0,0,0-2.44,2.44v1.63a.81.81,0,0,0,.81.82h13a.81.81,0,0,0,.82-.82V170.7A2.45,2.45,0,0,0,401.54,168.26Z"/><path class="cls-14" d="M401.49,152.11a.78.78,0,0,0-.67-.55l-2.38-.36-1.06-2.15a.83.83,0,0,0-1.46,0l-1.06,2.15-2.38.36a.8.8,0,0,0-.46,1.38l1.73,1.68-.41,2.37a.78.78,0,0,0,.33.79.8.8,0,0,0,.85.07l2.13-1.12,2.14,1.12a.74.74,0,0,0,.84-.07A.78.78,0,0,0,400,157l-.41-2.37,1.73-1.68A.78.78,0,0,0,401.49,152.11Z"/><path class="cls-13" d="M398.79,157.85l-2.14-1.12v-8.11a.81.81,0,0,1,.73.43l1.06,2.15,2.38.36a.8.8,0,0,1,.46,1.38l-1.73,1.68L400,157a.78.78,0,0,1-.33.79A.74.74,0,0,1,398.79,157.85Z"/><path class="cls-4" d="M402.36,167.44v1.63a.81.81,0,0,1-.82.82h-4.89V165h3.26A2.45,2.45,0,0,1,402.36,167.44Z"/><path class="cls-11" d="M404,170.7v1.63a.81.81,0,0,1-.82.82h-6.52v-4.89h4.89A2.45,2.45,0,0,1,404,170.7Z"/><path class="cls-17" d="M279.61,142.9a22.55,22.55,0,0,0,1.41,7.87l21.19,2,21.2-2a22.64,22.64,0,0,0,0-15.73l-21.2-2L281,135A22.54,22.54,0,0,0,279.61,142.9Z"/><path class="cls-3" d="M323.41,135A22.61,22.61,0,0,0,281,135Z"/><path class="cls-3" d="M281,150.77a22.61,22.61,0,0,0,42.39,0Z"/><path class="cls-13" d="M331.94,158.37a.82.82,0,0,1-.68-.36.81.81,0,0,1,.23-1.13l3.8-2.54A1.63,1.63,0,0,0,336,153v-2.77a1.63,1.63,0,0,0-3.26,0,.82.82,0,0,1-.81.82.82.82,0,0,1-.82-.82,3.26,3.26,0,0,1,6.52,0V153a3.24,3.24,0,0,1-1.45,2.71l-3.8,2.53A.77.77,0,0,1,331.94,158.37Z"/><path class="cls-14" d="M315.53,158.37a.75.75,0,0,1-.45-.14l-3.8-2.53a3.24,3.24,0,0,1-1.45-2.71v-2.77a3.26,3.26,0,1,1,6.51,0,.81.81,0,1,1-1.62,0,1.63,1.63,0,1,0-3.26,0V153a1.63,1.63,0,0,0,.72,1.35l3.8,2.54a.81.81,0,0,1,.23,1.13A.84.84,0,0,1,315.53,158.37Z"/><path class="cls-15" d="M331.88,145.33h-16.3a.81.81,0,0,0-.81.82v9.78a6.66,6.66,0,0,0,4.14,6.21,4.07,4.07,0,0,1,2.38,3.67.81.81,0,0,0,.81.82h3.26a.81.81,0,0,0,.82-.82v-.26a3.91,3.91,0,0,1,1.89-3.36c2.79-1.59,4.63-3.25,4.63-6.26v-9.78A.81.81,0,0,0,331.88,145.33Z"/><path class="cls-16" d="M332.7,146.15v9.78c0,3-1.84,4.67-4.63,6.26a3.91,3.91,0,0,0-1.89,3.36v.26a.81.81,0,0,1-.82.82h-1.63v-21.3h8.15A.81.81,0,0,1,332.7,146.15Z"/><path class="cls-8" d="M327,165h-6.52a2.44,2.44,0,0,0-2.44,2.44v1.63a.81.81,0,0,0,.81.82h9.78a.81.81,0,0,0,.82-.82v-1.63A2.44,2.44,0,0,0,327,165Z"/><path class="cls-5" d="M328.62,168.26h-9.78a2.44,2.44,0,0,0-2.44,2.44v1.63a.81.81,0,0,0,.81.82h13a.81.81,0,0,0,.82-.82V170.7A2.44,2.44,0,0,0,328.62,168.26Z"/><path class="cls-14" d="M328.57,152.11a.76.76,0,0,0-.66-.55l-2.38-.36-1.06-2.15a.84.84,0,0,0-1.47,0l-1.06,2.15-2.38.36a.78.78,0,0,0-.67.55.82.82,0,0,0,.21.83l1.73,1.68-.41,2.37a.82.82,0,0,0,1.18.86l2.13-1.12,2.14,1.12a.76.76,0,0,0,.85-.07A.78.78,0,0,0,327,157l-.41-2.37,1.73-1.68A.78.78,0,0,0,328.57,152.11Z"/><path class="cls-13" d="M325.87,157.85l-2.14-1.12v-8.11a.83.83,0,0,1,.74.43l1.06,2.15,2.38.36a.76.76,0,0,1,.66.55.78.78,0,0,1-.21.83l-1.73,1.68L327,157a.78.78,0,0,1-.32.79A.76.76,0,0,1,325.87,157.85Z"/><path class="cls-4" d="M329.44,167.44v1.63a.81.81,0,0,1-.82.82h-4.89V165H327A2.44,2.44,0,0,1,329.44,167.44Z"/><path class="cls-11" d="M331.07,170.7v1.63a.81.81,0,0,1-.82.82h-6.52v-4.89h4.89A2.44,2.44,0,0,1,331.07,170.7Z"/><path class="cls-3" d="M159.94,80a80,80,0,0,1-52.15,75V5A80,80,0,0,1,159.94,80Z"/><path class="cls-2" d="M107.79,5V155a80.32,80.32,0,0,1-55.63,0V5a80.17,80.17,0,0,1,55.63,0Z"/><path class="cls-18" d="M149.15,136.21a2,2,0,0,1-1.13-3.74l9.5-6.33a4.07,4.07,0,0,0,1.82-3.39v-6.92a4.08,4.08,0,0,0-8.15,0,2,2,0,0,1-4.08,0,8.15,8.15,0,0,1,16.3,0v6.92a8.15,8.15,0,0,1-3.63,6.78l-9.5,6.33A2.06,2.06,0,0,1,149.15,136.21Z"/><path class="cls-19" d="M108.13,136.21a2.06,2.06,0,0,1-1.13-.35l-9.5-6.33a8.15,8.15,0,0,1-3.63-6.78v-6.92a8.15,8.15,0,0,1,16.3,0,2,2,0,0,1-4.08,0,4.08,4.08,0,0,0-8.15,0v6.92a4.07,4.07,0,0,0,1.82,3.39l9.5,6.33a2,2,0,0,1-1.13,3.74Z"/><path class="cls-20" d="M149,103.61H108.27a2,2,0,0,0-2,2v24.44c0,6.89,3.67,12.39,10.35,15.53a10.19,10.19,0,0,1,6,9.19,2,2,0,0,0,2,2h8.14a2,2,0,0,0,2-2v-.65a9.84,9.84,0,0,1,4.73-8.42c7-4,11.57-8.11,11.57-15.65V105.65A2,2,0,0,0,149,103.61Z"/><path class="cls-21" d="M151.05,105.65v24.44c0,7.54-4.6,11.7-11.57,15.65a9.84,9.84,0,0,0-4.73,8.42v.65a2,2,0,0,1-2,2h-4.07V103.61H149A2,2,0,0,1,151.05,105.65Z"/><path class="cls-8" d="M136.79,152.78h-16.3a6.1,6.1,0,0,0-6.11,6.11V163a2,2,0,0,0,2,2h24.44a2,2,0,0,0,2-2v-4.07A6.1,6.1,0,0,0,136.79,152.78Z"/><path class="cls-5" d="M140.86,160.92H116.42A6.11,6.11,0,0,0,110.3,167v4.07a2,2,0,0,0,2,2h32.6a2,2,0,0,0,2-2V167A6.11,6.11,0,0,0,140.86,160.92Z"/><path class="cls-19" d="M140.74,120.56a2,2,0,0,0-1.67-1.39l-5.95-.89-2.65-5.38a2.11,2.11,0,0,0-3.66,0l-2.65,5.38-6,.89a2,2,0,0,0-1.14,3.47l4.32,4.19-1,5.91a2,2,0,0,0,.81,2,2,2,0,0,0,2.12.16l5.34-2.81L134,134.9a1.91,1.91,0,0,0,2.12-.16,2,2,0,0,0,.81-2l-1-5.91,4.32-4.19A2,2,0,0,0,140.74,120.56Z"/><path class="cls-18" d="M134,134.9l-5.34-2.81V111.84a2.05,2.05,0,0,1,1.83,1.06l2.65,5.38,5.95.89a2,2,0,0,1,1.14,3.47l-4.32,4.19,1,5.91a2,2,0,0,1-.81,2A1.91,1.91,0,0,1,134,134.9Z"/><path class="cls-4" d="M142.9,158.89V163a2,2,0,0,1-2,2H128.64V152.78h8.15A6.1,6.1,0,0,1,142.9,158.89Z"/><path class="cls-11" d="M147,167v4.07a2,2,0,0,1-2,2h-16.3V160.92h12.22A6.11,6.11,0,0,1,147,167Z"/><path class="cls-1" d="M52.16,5V155c-1-.36-1.93-.74-2.88-1.13s-1.83-.78-2.73-1.2q-2.05-.94-4-2c-.45-.23-.89-.47-1.33-.72s-.87-.49-1.3-.74c-.87-.5-1.73-1-2.57-1.56q-.64-.39-1.26-.81c-.42-.27-.84-.55-1.25-.84-1.23-.84-2.45-1.73-3.63-2.64l-1-.79-1.32-1.08c-.73-.6-1.45-1.22-2.15-1.86s-1.6-1.46-2.38-2.21c-.33-.32-.66-.64-1-1s-.7-.71-1.05-1.07-.56-.58-.83-.88c-.5-.53-1-1.06-1.45-1.6-.25-.27-.49-.55-.73-.84s-.67-.78-1-1.18c-.57-.69-1.12-1.39-1.68-2.1-.35-.46-.7-.93-1-1.4s-.59-.8-.88-1.21l-.31-.44c-.24-.33-.47-.67-.69-1q-.6-.87-1.17-1.77c-.29-.46-.58-.92-.86-1.38-.75-1.24-1.47-2.49-2.15-3.77-.24-.43-.47-.87-.69-1.31a.61.61,0,0,1-.07-.14c-.29-.55-.57-1.11-.83-1.67-.61-1.25-1.17-2.51-1.71-3.79-.22-.52-.43-1-.63-1.56s-.47-1.19-.69-1.79-.47-1.33-.7-2L3.68,104c-.44-1.38-.83-2.77-1.19-4.18-.16-.6-.3-1.21-.44-1.81-.09-.4-.18-.79-.26-1.18s-.17-.76-.24-1.15-.21-1-.3-1.57S1,92.88.94,92.25c0-.11,0-.21,0-.31-.08-.5-.15-1-.21-1.51-.26-2-.44-4-.55-6,0-.24,0-.48,0-.72,0-.52,0-1-.06-1.58,0-.73,0-1.46,0-2.2s0-1.47,0-2.2c0-.53,0-1.06.06-1.58,0-.24,0-.48,0-.72Q.3,72.4.69,69.4c.06-.41.11-.82.18-1.23.19-1.32.42-2.63.68-3.92.08-.42.16-.82.26-1.23s.16-.79.26-1.18c.13-.58.27-1.15.42-1.72.28-1.12.59-2.23.92-3.32.11-.36.21-.71.33-1.06s.22-.68.33-1c.47-1.41,1-2.81,1.52-4.18.19-.47.38-.95.58-1.41s.35-.83.53-1.24.31-.7.47-1c.26-.59.54-1.17.83-1.75s.49-1,.75-1.52.48-.93.73-1.38c.68-1.28,1.4-2.54,2.15-3.77.28-.46.57-.92.86-1.38.7-1.09,1.42-2.17,2.17-3.22.29-.41.58-.81.88-1.21s.69-.94,1-1.4c.56-.71,1.11-1.41,1.68-2.1.33-.4.66-.79,1-1.18s.48-.57.73-.84c.47-.54,1-1.07,1.45-1.6.27-.3.55-.59.83-.88s.69-.72,1.05-1.07.65-.65,1-1c.78-.75,1.57-1.49,2.38-2.21s1.42-1.26,2.15-1.86l1.32-1.08,1-.79c.39-.31.79-.61,1.19-.9l1.32-1A82.91,82.91,0,0,1,41.17,10c.88-.49,1.77-1,2.66-1.42L45.19,8l1.36-.64c.92-.43,1.85-.83,2.78-1.22S51.21,5.33,52.16,5Z"/></g></svg>