<svg xmlns="http://www.w3.org/2000/svg" viewBox="0 0 531 151.49"><defs><style>.cls-1{fill:#0f1d4d;}.cls-2{fill:#dccbc1;}</style></defs><g id="Capa_1" data-name="Capa 1"><circle class="cls-1" cx="58.33" cy="75.75" r="58.33"/><circle class="cls-2" cx="58.33" cy="75.75" r="11.08"/><circle class="cls-1" cx="203.26" cy="75.75" r="75.75"/><circle class="cls-2" cx="203.26" cy="75.75" r="3.03"/><circle class="cls-1" cx="345.92" cy="75.75" r="56.05"/><circle class="cls-2" cx="345.92" cy="75.75" r="1.68"/><circle class="cls-1" cx="471.92" cy="75.75" r="59.08"/><circle class="cls-2" cx="471.92" cy="75.75" r="2.07"/><rect class="cls-2" x="149.79" y="136.64" width="107.34" height="14.85"/><path class="cls-1" d="M169.09,143.26a1.18,1.18,0,0,0-.35.26,1.64,1.64,0,0,0-.28.45,1.8,1.8,0,0,0-.11.65v3.57h-2.21v-3.64a6.71,6.71,0,0,0-.12-1.39,5.31,5.31,0,0,0-.27-.91,2.62,2.62,0,0,0-.38-.63l1.78-.56c.07.1.15.2.23.33a2.29,2.29,0,0,1,.21.39,2.63,2.63,0,0,1,.19.54,2.35,2.35,0,0,1,.83-1,2.11,2.11,0,0,1,1.14-.3,2.81,2.81,0,0,1,.53.05,3.72,3.72,0,0,1,.38.11l-.57,2.11a1.28,1.28,0,0,0-.26-.1,1.18,1.18,0,0,0-.4,0A.93.93,0,0,0,169.09,143.26Z"/><path class="cls-1" d="M170.93,143.21a3.47,3.47,0,0,1,.76-1.2,3.31,3.31,0,0,1,1.13-.74,4,4,0,0,1,1.4-.25,3.64,3.64,0,0,1,1.12.16,2,2,0,0,1,.75.45,1.86,1.86,0,0,1,.44.67,2.55,2.55,0,0,1,.14.84,1.91,1.91,0,0,1-.26,1,2.33,2.33,0,0,1-.72.79,4.12,4.12,0,0,1-1.13.57,6.44,6.44,0,0,1-1.5.29,1.34,1.34,0,0,0,.35.68,1.09,1.09,0,0,0,.79.26,3.9,3.9,0,0,0,.66-.07c.23-.05.45-.1.64-.16a7,7,0,0,0,.69-.22l.42,1.46a7.79,7.79,0,0,1-.82.32l-.88.21a5.87,5.87,0,0,1-1.06.1,3.77,3.77,0,0,1-1.46-.26,2.41,2.41,0,0,1-1-.7,2.65,2.65,0,0,1-.56-1.08,5.18,5.18,0,0,1-.18-1.41A4.74,4.74,0,0,1,170.93,143.21Zm2.55-.45a1.24,1.24,0,0,0-.3.4,3.06,3.06,0,0,0-.17.56c0,.21-.06.41-.07.61a2.31,2.31,0,0,0,.71-.13,1.43,1.43,0,0,0,.47-.28,1,1,0,0,0,.26-.36.91.91,0,0,0,.09-.37.61.61,0,0,0-.15-.43.51.51,0,0,0-.38-.16A.73.73,0,0,0,173.48,142.76Z"/><path class="cls-1" d="M180,141a5,5,0,0,1,1,.09,8,8,0,0,1,.81.2,7.63,7.63,0,0,1,.74.29l-.7,1.57-.29-.14-.37-.17-.43-.14a2.18,2.18,0,0,0-.43-.05.65.65,0,0,0-.38.1.31.31,0,0,0-.16.3.59.59,0,0,0,.29.44,3.32,3.32,0,0,0,.76.42,3.79,3.79,0,0,1,1.3.83,1.82,1.82,0,0,1,.45,1.3,2.34,2.34,0,0,1-.16.86,2.14,2.14,0,0,1-.47.72,2.41,2.41,0,0,1-.79.49,3.13,3.13,0,0,1-1.1.18,5.25,5.25,0,0,1-.91-.07,7.14,7.14,0,0,1-.79-.18l-.64-.21-.44-.18.72-1.61.25.12a3.94,3.94,0,0,0,.41.2,4.65,4.65,0,0,0,.49.17,1.73,1.73,0,0,0,.49.08,1,1,0,0,0,.49-.11.39.39,0,0,0,.19-.34.61.61,0,0,0-.24-.47,1.78,1.78,0,0,0-.59-.35,4,4,0,0,1-1.51-.95,2,2,0,0,1-.45-1.31,2,2,0,0,1,.17-.82,1.68,1.68,0,0,1,.49-.66,2.16,2.16,0,0,1,.77-.44A3.13,3.13,0,0,1,180,141Z"/><path class="cls-1" d="M183.05,141.22h1.15l.24-1.44,1.92-.42v1.86H188l-.27,1.62h-1.38V146a.56.56,0,0,0,.64.62,2.93,2.93,0,0,0,.67-.07l.34-.08.37,1.48c-.18.06-.44.14-.77.22a5.26,5.26,0,0,1-1.21.12,2.76,2.76,0,0,1-1.65-.44,1.72,1.72,0,0,1-.59-1.47v-3.5h-1.11Z"/><path class="cls-1" d="M194.87,144.82a7,7,0,0,0,.11,1.4,3.5,3.5,0,0,0,.27.89,1.89,1.89,0,0,0,.39.63l-1.78.56a1.44,1.44,0,0,1-.28-.35,2.57,2.57,0,0,1-.22-.44,2.8,2.8,0,0,1-.17-.61,2.19,2.19,0,0,1-.7,1,2,2,0,0,1-1.22.35,2.65,2.65,0,0,1-1.2-.25,2.22,2.22,0,0,1-.84-.71,3,3,0,0,1-.5-1.09,5.8,5.8,0,0,1-.16-1.43,4.06,4.06,0,0,1,.26-1.49,3.53,3.53,0,0,1,.72-1.18,3.34,3.34,0,0,1,1.1-.78,3.68,3.68,0,0,1,1.43-.28,6.19,6.19,0,0,1,.93.07c.32,0,.62.09.89.14s.5.09.68.14l.29.06ZM192,146.47a1.5,1.5,0,0,0,.33-.49,3.29,3.29,0,0,0,.22-.71,4.54,4.54,0,0,0,.08-.85V142.8l-.28-.08-.3,0a1.08,1.08,0,0,0-.56.14,1.1,1.1,0,0,0-.36.41,2.06,2.06,0,0,0-.18.62,5,5,0,0,0-.06.79c0,.26,0,.51,0,.75a2.81,2.81,0,0,0,.09.63,1.35,1.35,0,0,0,.22.45.49.49,0,0,0,.39.17A.57.57,0,0,0,192,146.47Z"/><path class="cls-1" d="M200.38,141.16h2.22v3.66a7,7,0,0,0,.11,1.4,4,4,0,0,0,.26.89,2.07,2.07,0,0,0,.4.63l-1.78.56a1.42,1.42,0,0,1-.25-.32,2.36,2.36,0,0,1-.23-.4,3.2,3.2,0,0,1-.18-.57,2.21,2.21,0,0,1-1,1,3.23,3.23,0,0,1-1.38.3,2.18,2.18,0,0,1-.93-.17,1.63,1.63,0,0,1-.63-.49,2,2,0,0,1-.35-.76,4.46,4.46,0,0,1-.11-1v-4.68h2.23v4.38a2.15,2.15,0,0,0,.12.79.43.43,0,0,0,.44.31c.26,0,.5-.18.73-.53a2.71,2.71,0,0,0,.33-1.45Z"/><path class="cls-1" d="M207.57,143.26a1.06,1.06,0,0,0-.35.26,1.28,1.28,0,0,0-.28.45,1.6,1.6,0,0,0-.12.65v3.57h-2.21v-3.64a6.71,6.71,0,0,0-.12-1.39,5.31,5.31,0,0,0-.27-.91,2.34,2.34,0,0,0-.38-.63l1.78-.56.24.33q.09.15.21.39a3.42,3.42,0,0,1,.18.54,2.35,2.35,0,0,1,.83-1,2.13,2.13,0,0,1,1.14-.3,2.81,2.81,0,0,1,.53.05,3.72,3.72,0,0,1,.38.11l-.57,2.11a1.09,1.09,0,0,0-.26-.1,1.18,1.18,0,0,0-.4,0A.88.88,0,0,0,207.57,143.26Z"/><path class="cls-1" d="M215.43,144.82a6.88,6.88,0,0,0,.12,1.4,4,4,0,0,0,.26.89,1.89,1.89,0,0,0,.39.63l-1.77.56a1.23,1.23,0,0,1-.28-.35,2.57,2.57,0,0,1-.22-.44,3.45,3.45,0,0,1-.18-.61,2.19,2.19,0,0,1-.7,1,2,2,0,0,1-1.21.35,2.65,2.65,0,0,1-1.2-.25,2.33,2.33,0,0,1-.85-.71,3.22,3.22,0,0,1-.5-1.09,6.32,6.32,0,0,1-.16-1.43,4.28,4.28,0,0,1,.26-1.49,3.89,3.89,0,0,1,.72-1.18,3.38,3.38,0,0,1,1.11-.78,3.65,3.65,0,0,1,1.43-.28,6,6,0,0,1,.92.07c.33,0,.63.09.9.14s.49.09.68.14l.28.06Zm-2.83,1.65a1.9,1.9,0,0,0,.33-.49,3.3,3.3,0,0,0,.21-.71,3.84,3.84,0,0,0,.08-.85V142.8a1.52,1.52,0,0,0-.27-.08l-.3,0a1.06,1.06,0,0,0-.56.14,1.1,1.1,0,0,0-.36.41,2.06,2.06,0,0,0-.19.62,5,5,0,0,0,0,.79c0,.26,0,.51,0,.75a2.81,2.81,0,0,0,.09.63,1.05,1.05,0,0,0,.22.45.48.48,0,0,0,.39.17A.58.58,0,0,0,212.6,146.47Z"/><path class="cls-1" d="M220.94,148.19v-4.37a2.19,2.19,0,0,0-.12-.79.44.44,0,0,0-.44-.3.91.91,0,0,0-.73.51,2.56,2.56,0,0,0-.34,1.44v3.51H217.1v-3.64a6.71,6.71,0,0,0-.12-1.39,5.31,5.31,0,0,0-.27-.91,2.34,2.34,0,0,0-.38-.63l1.78-.56a3.15,3.15,0,0,1,.25.33,2.26,2.26,0,0,1,.22.39,3.71,3.71,0,0,1,.17.56,2.28,2.28,0,0,1,1-1,3.26,3.26,0,0,1,1.4-.31,1.77,1.77,0,0,1,1.55.67,3,3,0,0,1,.46,1.77v4.69Z"/><path class="cls-1" d="M224,141.22h1.15l.24-1.44,1.91-.42v1.86H229l-.27,1.62h-1.39V146c0,.41.22.62.65.62a3,3,0,0,0,.67-.07l.34-.08.37,1.48c-.18.06-.44.14-.77.22a5.32,5.32,0,0,1-1.21.12,2.76,2.76,0,0,1-1.65-.44,1.69,1.69,0,0,1-.59-1.47v-3.5H224Z"/><path class="cls-1" d="M229.82,143.21a3.2,3.2,0,0,1,.76-1.2,3.27,3.27,0,0,1,1.12-.74,4,4,0,0,1,1.4-.25,3.64,3.64,0,0,1,1.12.16,2.1,2.1,0,0,1,.76.45,1.83,1.83,0,0,1,.43.67,2.55,2.55,0,0,1,.14.84,1.9,1.9,0,0,1-.25,1,2.55,2.55,0,0,1-.72.79,4.12,4.12,0,0,1-1.13.57,6.63,6.63,0,0,1-1.51.29,1.28,1.28,0,0,0,.36.68,1.07,1.07,0,0,0,.79.26,4.13,4.13,0,0,0,.66-.07l.64-.16c.23-.06.46-.14.69-.22l.42,1.46a8,8,0,0,1-.83.32c-.25.07-.54.14-.88.21a5.85,5.85,0,0,1-1,.1,3.74,3.74,0,0,1-1.46-.26,2.51,2.51,0,0,1-1-.7,2.78,2.78,0,0,1-.56-1.08,5.19,5.19,0,0,1-.17-1.41A4.74,4.74,0,0,1,229.82,143.21Zm2.55-.45a1,1,0,0,0-.3.4,2.44,2.44,0,0,0-.17.56,4.39,4.39,0,0,0-.07.61,2.37,2.37,0,0,0,.71-.13,1.38,1.38,0,0,0,.46-.28,1.14,1.14,0,0,0,.27-.36.88.88,0,0,0,.08-.37.65.65,0,0,0-.14-.43.53.53,0,0,0-.39-.16A.69.69,0,0,0,232.37,142.76Z"/><path class="cls-1" d="M238.84,141a5.06,5.06,0,0,1,1,.09c.3.06.57.13.8.2s.52.19.75.29l-.7,1.57-.29-.14-.38-.17-.43-.14a2.18,2.18,0,0,0-.43-.05.65.65,0,0,0-.38.1.32.32,0,0,0-.15.3.56.56,0,0,0,.29.44,3.12,3.12,0,0,0,.76.42,3.64,3.64,0,0,1,1.29.83,1.78,1.78,0,0,1,.46,1.3,2.57,2.57,0,0,1-.16.86,2.16,2.16,0,0,1-.48.72,2.31,2.31,0,0,1-.79.49,3.08,3.08,0,0,1-1.09.18,5.37,5.37,0,0,1-.92-.07,6.94,6.94,0,0,1-.78-.18l-.64-.21-.45-.18.73-1.61.24.12c.12.07.26.13.41.2l.49.17a1.8,1.8,0,0,0,.5.08,1,1,0,0,0,.48-.11.37.37,0,0,0,.19-.34.63.63,0,0,0-.23-.47,1.83,1.83,0,0,0-.6-.35,3.84,3.84,0,0,1-1.5-.95,2,2,0,0,1-.46-1.31,2,2,0,0,1,.17-.82,1.78,1.78,0,0,1,.49-.66,2.29,2.29,0,0,1,.78-.44A3,3,0,0,1,238.84,141Z"/><rect class="cls-2" x="4.65" y="119.22" width="107.34" height="14.85"/><path class="cls-1" d="M30.86,124.27a2.49,2.49,0,0,1,.84-.47,3,3,0,0,1,1-.16,1.76,1.76,0,0,1,1.55.66,3,3,0,0,1,.46,1.78v4.69H32.49V126.4a2.15,2.15,0,0,0-.12-.79.44.44,0,0,0-.44-.3.68.68,0,0,0-.37.12,1.16,1.16,0,0,0-.35.35,2.24,2.24,0,0,0-.25.56,2.74,2.74,0,0,0-.1.73v3.7H28.65V121l2.21-.38Z"/><path class="cls-1" d="M41.57,124.55a4.1,4.1,0,0,1,.76,2.63,5.3,5.3,0,0,1-.2,1.48,3.33,3.33,0,0,1-.62,1.18,2.87,2.87,0,0,1-1,.78,3.47,3.47,0,0,1-1.45.29,3.73,3.73,0,0,1-1.45-.25,2.51,2.51,0,0,1-1-.7,3.25,3.25,0,0,1-.57-1.13,5.28,5.28,0,0,1-.19-1.49,5.48,5.48,0,0,1,.2-1.49,3.33,3.33,0,0,1,.62-1.18,2.83,2.83,0,0,1,1-.78,3.46,3.46,0,0,1,1.46-.29A3,3,0,0,1,41.57,124.55Zm-3,.86a1,1,0,0,0-.26.41,2.53,2.53,0,0,0-.12.61,5.86,5.86,0,0,0,0,.75c0,.29,0,.55,0,.8a2.92,2.92,0,0,0,.15.66,1,1,0,0,0,.3.44.74.74,0,0,0,.49.16.6.6,0,0,0,.42-.15,1,1,0,0,0,.26-.41,3.26,3.26,0,0,0,.13-.61c0-.24,0-.48,0-.75a6.8,6.8,0,0,0,0-.8,2.83,2.83,0,0,0-.15-.65,1,1,0,0,0-.3-.44.72.72,0,0,0-.49-.16A.64.64,0,0,0,38.59,125.41Z"/><path class="cls-1" d="M45.69,123.61a4.49,4.49,0,0,1,1,.1,6.22,6.22,0,0,1,.8.2,7.63,7.63,0,0,1,.74.29l-.7,1.57-.28-.14-.38-.17-.43-.14a2.18,2.18,0,0,0-.43,0,.74.74,0,0,0-.38.09.35.35,0,0,0-.15.31.57.57,0,0,0,.28.44,3.41,3.41,0,0,0,.77.42,3.64,3.64,0,0,1,1.29.83,1.77,1.77,0,0,1,.46,1.29,2.58,2.58,0,0,1-.16.87,2.16,2.16,0,0,1-.48.72,2.31,2.31,0,0,1-.79.49,3.08,3.08,0,0,1-1.09.18,5.29,5.29,0,0,1-.92-.07,6.47,6.47,0,0,1-.78-.18l-.64-.21a3.58,3.58,0,0,1-.45-.19l.73-1.61.24.13c.12.07.26.13.41.2l.49.17a1.8,1.8,0,0,0,.5.08,1,1,0,0,0,.48-.11.37.37,0,0,0,.19-.34.65.65,0,0,0-.23-.48,2.43,2.43,0,0,0-.6-.35,3.72,3.72,0,0,1-1.5-.94,1.91,1.91,0,0,1-.46-1.31,2,2,0,0,1,.17-.82,1.78,1.78,0,0,1,.49-.66,2.12,2.12,0,0,1,.78-.44A3,3,0,0,1,45.69,123.61Z"/><path class="cls-1" d="M49.65,133.86v-6.73a6.64,6.64,0,0,0-.12-1.39,5.31,5.31,0,0,0-.27-.91,2.34,2.34,0,0,0-.38-.63l1.78-.56a2.75,2.75,0,0,1,.31.41,3.51,3.51,0,0,1,.22.5,3.17,3.17,0,0,1,.17.69,2.62,2.62,0,0,1,.74-1.2,1.85,1.85,0,0,1,1.22-.4,2.67,2.67,0,0,1,1.16.25,2.33,2.33,0,0,1,.82.71,3.26,3.26,0,0,1,.49,1.1,5.82,5.82,0,0,1,.16,1.44,4.16,4.16,0,0,1-.25,1.47,3.46,3.46,0,0,1-.71,1.17,3.5,3.5,0,0,1-1.07.79,3.11,3.11,0,0,1-1.33.28,3.4,3.4,0,0,1-.73-.08v2.71Zm2.84-8.42a1.47,1.47,0,0,0-.33.46,3,3,0,0,0-.22.68,4.09,4.09,0,0,0-.08.8v1.75l.27.06a1.15,1.15,0,0,0,.31,0,1,1,0,0,0,.56-.15,1.07,1.07,0,0,0,.36-.4,2.15,2.15,0,0,0,.18-.62,4.75,4.75,0,0,0,.06-.78c0-.26,0-.51,0-.75a3,3,0,0,0-.09-.65,1.57,1.57,0,0,0-.22-.45.48.48,0,0,0-.39-.16A.6.6,0,0,0,52.49,125.44Z"/><path class="cls-1" d="M57,125.79a3.2,3.2,0,0,1,.76-1.2,3.27,3.27,0,0,1,1.12-.74,3.78,3.78,0,0,1,1.4-.25,3.32,3.32,0,0,1,1.12.16,2.1,2.1,0,0,1,.76.45,1.71,1.71,0,0,1,.43.67,2.32,2.32,0,0,1,.14.84,1.9,1.9,0,0,1-.25,1,2.55,2.55,0,0,1-.72.79,3.85,3.85,0,0,1-1.13.56,6.62,6.62,0,0,1-1.51.3,1.43,1.43,0,0,0,.36.68,1.09,1.09,0,0,0,.79.26,4.13,4.13,0,0,0,.66-.07c.23-.05.45-.1.64-.16s.46-.14.69-.22l.42,1.45a5.74,5.74,0,0,1-.83.33l-.87.21a6,6,0,0,1-1.06.09,3.75,3.75,0,0,1-1.46-.25,2.61,2.61,0,0,1-1-.7,2.92,2.92,0,0,1-.56-1.08,5.68,5.68,0,0,1-.17-1.41A4.74,4.74,0,0,1,57,125.79Zm2.55-.45a.94.94,0,0,0-.3.4,2.44,2.44,0,0,0-.17.56,4.43,4.43,0,0,0-.07.6,2.06,2.06,0,0,0,.71-.12,1.77,1.77,0,0,0,.47-.28,1,1,0,0,0,.26-.36,1,1,0,0,0,.09-.37.61.61,0,0,0-.15-.43.53.53,0,0,0-.39-.16A.67.67,0,0,0,59.53,125.34Z"/><path class="cls-1" d="M68.71,130.88l-.09-.1a1.34,1.34,0,0,1-.19-.26,3.54,3.54,0,0,1-.23-.44,3.26,3.26,0,0,1-.17-.6,2.19,2.19,0,0,1-.7,1,2,2,0,0,1-1.21.35,2.65,2.65,0,0,1-1.2-.25,2.33,2.33,0,0,1-.85-.71,3,3,0,0,1-.49-1.09,5.78,5.78,0,0,1-.17-1.43,4.28,4.28,0,0,1,.26-1.49,3.89,3.89,0,0,1,.72-1.18,3.38,3.38,0,0,1,1.11-.78,3.68,3.68,0,0,1,1.43-.28l.27,0,.3,0v-3.05l2.21.37v6.39a6.71,6.71,0,0,0,.12,1.39,5.65,5.65,0,0,0,.26.9,1.89,1.89,0,0,0,.27.49l.12.15Zm-1.83-1.83a1.9,1.9,0,0,0,.33-.49,3.3,3.3,0,0,0,.21-.71,3.89,3.89,0,0,0,.08-.85v-1.62a1.52,1.52,0,0,0-.27-.08l-.3,0a1.06,1.06,0,0,0-.56.14,1.1,1.1,0,0,0-.36.41,2.06,2.06,0,0,0-.19.62,6.56,6.56,0,0,0,0,.79c0,.26,0,.51,0,.75a2.89,2.89,0,0,0,.09.63,1.18,1.18,0,0,0,.22.45.48.48,0,0,0,.39.17A.58.58,0,0,0,66.88,129.05Z"/><path class="cls-1" d="M77.33,127.39a7.91,7.91,0,0,0,.11,1.41,4.56,4.56,0,0,0,.27.89,1.89,1.89,0,0,0,.39.63l-1.78.56a1.72,1.72,0,0,1-.28-.35,3.67,3.67,0,0,1-.21-.44,3,3,0,0,1-.18-.61,2.19,2.19,0,0,1-.7,1,2,2,0,0,1-1.22.35,2.64,2.64,0,0,1-1.19-.25,2.18,2.18,0,0,1-.85-.71,3,3,0,0,1-.5-1.09,5.8,5.8,0,0,1-.16-1.43,4.28,4.28,0,0,1,.26-1.49A3.53,3.53,0,0,1,72,124.7a3.38,3.38,0,0,1,1.11-.78,3.63,3.63,0,0,1,1.42-.28,6.19,6.19,0,0,1,.93.07c.32,0,.62.08.89.14s.5.09.68.14l.29.06Zm-2.83,1.66a1.66,1.66,0,0,0,.32-.49,2.82,2.82,0,0,0,.22-.71,4.63,4.63,0,0,0,.08-.85v-1.62l-.27-.08-.31,0a.92.92,0,0,0-.91.55,2.06,2.06,0,0,0-.19.62,5,5,0,0,0-.06.79c0,.26,0,.51,0,.75a2.89,2.89,0,0,0,.09.63,1.18,1.18,0,0,0,.21.45.51.51,0,0,0,.4.17A.58.58,0,0,0,74.5,129.05Z"/><path class="cls-1" d="M79.11,123.74h2.2v6.43a4.17,4.17,0,0,1-.2,1.35,3.08,3.08,0,0,1-.55,1,4.12,4.12,0,0,1-.85.75,9.22,9.22,0,0,1-1.08.61l-.92-1.51a4.82,4.82,0,0,0,.73-.5,2,2,0,0,0,.42-.53,1.71,1.71,0,0,0,.2-.56,3.83,3.83,0,0,0,0-.6Zm2-3a1.25,1.25,0,0,1,.32.88,1.35,1.35,0,0,1-.32.91,1.38,1.38,0,0,1-1.85,0,1.24,1.24,0,0,1-.31-.85,1.39,1.39,0,0,1,.31-.93,1.17,1.17,0,0,1,1-.37A1.13,1.13,0,0,1,81.13,120.72Z"/><path class="cls-1" d="M82.74,125.79a3.3,3.3,0,0,1,1.88-1.94,3.78,3.78,0,0,1,1.4-.25,3.32,3.32,0,0,1,1.12.16,2.1,2.1,0,0,1,.76.45,1.71,1.71,0,0,1,.43.67,2.32,2.32,0,0,1,.14.84,1.9,1.9,0,0,1-.25,1,2.55,2.55,0,0,1-.72.79,3.85,3.85,0,0,1-1.13.56,6.62,6.62,0,0,1-1.51.3,1.43,1.43,0,0,0,.36.68,1.09,1.09,0,0,0,.79.26,3.9,3.9,0,0,0,.66-.07c.23-.05.45-.1.64-.16s.46-.14.69-.22l.42,1.45a5.74,5.74,0,0,1-.83.33l-.87.21a6,6,0,0,1-1.06.09,3.75,3.75,0,0,1-1.46-.25,2.61,2.61,0,0,1-1-.7,2.92,2.92,0,0,1-.56-1.08,5.68,5.68,0,0,1-.17-1.41A4.74,4.74,0,0,1,82.74,125.79Zm2.55-.45a.94.94,0,0,0-.3.4,2.44,2.44,0,0,0-.17.56,4.43,4.43,0,0,0-.07.6,2.06,2.06,0,0,0,.71-.12,1.63,1.63,0,0,0,.47-.28,1,1,0,0,0,.26-.36,1,1,0,0,0,.09-.37.61.61,0,0,0-.15-.43.53.53,0,0,0-.38-.16A.68.68,0,0,0,85.29,125.34Z"/><rect class="cls-2" x="292.25" y="116.95" width="107.34" height="14.85"/><path class="cls-1" d="M313.88,121.52H315l.24-1.44,1.92-.42v1.86h1.65l-.27,1.63h-1.38v3.12a.56.56,0,0,0,.64.62,3.62,3.62,0,0,0,.67-.07l.34-.09.38,1.49-.78.21a5.26,5.26,0,0,1-1.21.12,2.76,2.76,0,0,1-1.65-.43,1.72,1.72,0,0,1-.59-1.47v-3.5h-1.11Z"/><path class="cls-1" d="M323.19,123.57a1,1,0,0,0-.35.26,1.39,1.39,0,0,0-.28.45,1.76,1.76,0,0,0-.11.65v3.57h-2.21v-3.64a6.81,6.81,0,0,0-.12-1.4,5.17,5.17,0,0,0-.27-.9,2.62,2.62,0,0,0-.38-.63l1.78-.56.23.32a3.44,3.44,0,0,1,.21.39,2.73,2.73,0,0,1,.19.55,2.38,2.38,0,0,1,.83-1,2.19,2.19,0,0,1,1.14-.29,2.62,2.62,0,0,1,.52,0,3.59,3.59,0,0,1,.39.1l-.57,2.12a2.26,2.26,0,0,0-.26-.11,1.5,1.5,0,0,0-.4,0A.79.79,0,0,0,323.19,123.57Z"/><path class="cls-1" d="M331.06,125.12a7.71,7.71,0,0,0,.11,1.4,4.68,4.68,0,0,0,.27.9,1.89,1.89,0,0,0,.39.63l-1.78.56a2,2,0,0,1-.28-.35,3.67,3.67,0,0,1-.21-.44,4,4,0,0,1-.18-.61,2.11,2.11,0,0,1-.7,1,1.92,1.92,0,0,1-1.22.36,2.64,2.64,0,0,1-1.19-.25,2.18,2.18,0,0,1-.85-.71,3,3,0,0,1-.5-1.1,5.74,5.74,0,0,1-.16-1.43,4.22,4.22,0,0,1,.26-1.48,3.44,3.44,0,0,1,.72-1.18,3.38,3.38,0,0,1,1.11-.78,3.46,3.46,0,0,1,1.42-.28,7.75,7.75,0,0,1,.93.06c.33,0,.62.09.89.14l.68.14.29.07Zm-2.83,1.65a1.54,1.54,0,0,0,.32-.49,2.74,2.74,0,0,0,.22-.7,4.63,4.63,0,0,0,.08-.85v-1.62a1.25,1.25,0,0,0-.27-.08,2,2,0,0,0-.31,0,1,1,0,0,0-.56.15,1.09,1.09,0,0,0-.35.41,2.06,2.06,0,0,0-.19.62,4.75,4.75,0,0,0-.06.78c0,.27,0,.52,0,.75a3,3,0,0,0,.09.64,1.18,1.18,0,0,0,.21.45.51.51,0,0,0,.4.17A.56.56,0,0,0,328.23,126.77Z"/><path class="cls-1" d="M336.56,128.5v-4.37a2.15,2.15,0,0,0-.12-.79.43.43,0,0,0-.44-.3.93.93,0,0,0-.73.51,2.63,2.63,0,0,0-.33,1.43v3.52h-2.21v-3.64a6.81,6.81,0,0,0-.12-1.4,4.38,4.38,0,0,0-.28-.9,2.33,2.33,0,0,0-.37-.63l1.77-.56a3,3,0,0,1,.26.32,2.92,2.92,0,0,1,.21.4,3.94,3.94,0,0,1,.18.55,2.21,2.21,0,0,1,1-1,3.08,3.08,0,0,1,1.39-.31,1.76,1.76,0,0,1,1.56.67,3.09,3.09,0,0,1,.46,1.77v4.69Z"/><path class="cls-1" d="M342.48,121.34a5.06,5.06,0,0,1,1,.09,6.77,6.77,0,0,1,.81.21c.27.09.51.19.74.29l-.7,1.57-.29-.14-.38-.17a2.59,2.59,0,0,0-.42-.14,1.72,1.72,0,0,0-.44-.06.77.77,0,0,0-.38.1.35.35,0,0,0-.15.31.59.59,0,0,0,.29.44,3.12,3.12,0,0,0,.76.41,3.8,3.8,0,0,1,1.3.84,1.81,1.81,0,0,1,.45,1.29,2.27,2.27,0,0,1-.16.86,2,2,0,0,1-.48.72,2.16,2.16,0,0,1-.79.49,2.83,2.83,0,0,1-1.09.19,6.61,6.61,0,0,1-.92-.07,7.5,7.5,0,0,1-.78-.18l-.64-.21-.45-.19.73-1.61.25.13a3.8,3.8,0,0,0,.4.19,4.09,4.09,0,0,0,.49.18,1.86,1.86,0,0,0,.5.08.85.85,0,0,0,.48-.12.35.35,0,0,0,.19-.33.61.61,0,0,0-.23-.48,2,2,0,0,0-.59-.35,3.88,3.88,0,0,1-1.51-.94,2,2,0,0,1-.45-1.31,2,2,0,0,1,.16-.83,2.11,2.11,0,0,1,.49-.66,2.68,2.68,0,0,1,.78-.44A3.34,3.34,0,0,1,342.48,121.34Z"/><path class="cls-1" d="M346.45,131.59v-6.73a6.81,6.81,0,0,0-.12-1.4,4.38,4.38,0,0,0-.28-.9,2.33,2.33,0,0,0-.37-.63l1.77-.56a1.64,1.64,0,0,1,.31.41,2.95,2.95,0,0,1,.39,1.19,2.65,2.65,0,0,1,.74-1.2,1.79,1.79,0,0,1,1.22-.4,2.51,2.51,0,0,1,1.16.25,2.37,2.37,0,0,1,.83.71,3.37,3.37,0,0,1,.49,1.1,6.34,6.34,0,0,1,.16,1.44,4.11,4.11,0,0,1-.26,1.46,3.39,3.39,0,0,1-.7,1.18,3.43,3.43,0,0,1-1.07.78,3.15,3.15,0,0,1-1.33.29,3.26,3.26,0,0,1-.73-.08v2.71Zm2.83-8.42a1.88,1.88,0,0,0-.33.46,2.93,2.93,0,0,0-.21.67,3.59,3.59,0,0,0-.08.81v1.75l.26.06a2,2,0,0,0,.31,0,1,1,0,0,0,.56-.15,1,1,0,0,0,.36-.41,2,2,0,0,0,.19-.61,4.8,4.8,0,0,0,.05-.78c0-.26,0-.51,0-.76a3,3,0,0,0-.09-.64,1.05,1.05,0,0,0-.22-.45.48.48,0,0,0-.39-.17A.58.58,0,0,0,349.28,123.17Z"/><path class="cls-1" d="M359.25,122.28a4.1,4.1,0,0,1,.76,2.63,5.35,5.35,0,0,1-.2,1.48,3.41,3.41,0,0,1-.62,1.18,2.87,2.87,0,0,1-1,.78,3.47,3.47,0,0,1-1.45.29,3.92,3.92,0,0,1-1.45-.25,2.44,2.44,0,0,1-1-.71,3.12,3.12,0,0,1-.57-1.12,5.73,5.73,0,0,1-.19-1.49,5.42,5.42,0,0,1,.2-1.49,3.5,3.5,0,0,1,.62-1.18,2.91,2.91,0,0,1,1-.78,3.31,3.31,0,0,1,1.46-.29A3,3,0,0,1,359.25,122.28Zm-3,.86a1,1,0,0,0-.26.41,2.44,2.44,0,0,0-.12.61c0,.23,0,.48,0,.75a6.73,6.73,0,0,0,0,.8,2.48,2.48,0,0,0,.14.66,1.08,1.08,0,0,0,.3.44.74.74,0,0,0,.49.16.6.6,0,0,0,.42-.15.94.94,0,0,0,.26-.42,2.41,2.41,0,0,0,.13-.61c0-.23,0-.48,0-.74a6.58,6.58,0,0,0,0-.8,3.34,3.34,0,0,0-.14-.65,1.06,1.06,0,0,0-.31-.44.73.73,0,0,0-.49-.17A.64.64,0,0,0,356.27,123.14Z"/><path class="cls-1" d="M364.37,123.57a1,1,0,0,0-.35.26,1.12,1.12,0,0,0-.28.45,1.57,1.57,0,0,0-.12.65v3.57h-2.21v-3.64a6.81,6.81,0,0,0-.12-1.4,5.17,5.17,0,0,0-.27-.9,2.34,2.34,0,0,0-.38-.63l1.78-.56c.08.09.15.2.24.32l.21.39a3.55,3.55,0,0,1,.18.55,2.38,2.38,0,0,1,.83-1,2.22,2.22,0,0,1,1.14-.29,2.73,2.73,0,0,1,.53,0l.38.1-.57,2.12a1.69,1.69,0,0,0-.26-.11,1.5,1.5,0,0,0-.4,0A.75.75,0,0,0,364.37,123.57Z"/><path class="cls-1" d="M366.26,121.52h1.15l.23-1.44,1.92-.42v1.86h1.65l-.26,1.63h-1.39v3.12a.56.56,0,0,0,.64.62,3.73,3.73,0,0,0,.68-.07l.33-.09.38,1.49c-.19.06-.44.13-.78.21a5.2,5.2,0,0,1-1.21.12,2.71,2.71,0,0,1-1.64-.43,1.69,1.69,0,0,1-.6-1.47v-3.5h-1.1Z"/><path class="cls-1" d="M372.05,123.52a3.31,3.31,0,0,1,.75-1.2,3.17,3.17,0,0,1,1.13-.74,3.78,3.78,0,0,1,1.4-.25,3.36,3.36,0,0,1,1.12.16,2,2,0,0,1,.75.45,1.67,1.67,0,0,1,.44.67,2.49,2.49,0,0,1,.14.83,1.85,1.85,0,0,1-.25,1,2.59,2.59,0,0,1-.72.8,4.49,4.49,0,0,1-1.14.56,6.42,6.42,0,0,1-1.5.3,1.31,1.31,0,0,0,.35.67,1.07,1.07,0,0,0,.8.26,3.07,3.07,0,0,0,.65-.07,5.21,5.21,0,0,0,.65-.15c.23-.06.46-.14.68-.22l.42,1.45a5.6,5.6,0,0,1-.82.32,7.16,7.16,0,0,1-.88.21,5.06,5.06,0,0,1-1,.1,3.83,3.83,0,0,1-1.47-.25,2.58,2.58,0,0,1-1-.7,2.78,2.78,0,0,1-.56-1.08,5.23,5.23,0,0,1-.18-1.41A4.48,4.48,0,0,1,372.05,123.52Zm2.54-.46a1.28,1.28,0,0,0-.3.41,2.43,2.43,0,0,0-.16.56,3.26,3.26,0,0,0-.07.6,2.26,2.26,0,0,0,.7-.12,1.63,1.63,0,0,0,.47-.28,1.29,1.29,0,0,0,.27-.37,1,1,0,0,0,.08-.36.61.61,0,0,0-.15-.43.46.46,0,0,0-.38-.16A.73.73,0,0,0,374.59,123.06Z"/><rect class="cls-2" x="418.25" y="119.98" width="107.34" height="14.85"/><path class="cls-1" d="M450.06,126.49a2.23,2.23,0,0,0-.35-.34.74.74,0,0,0-.46-.14,1.42,1.42,0,0,0-.38.06.73.73,0,0,0-.39.26,1.57,1.57,0,0,0-.3.58,3.72,3.72,0,0,0-.12,1.06,3.4,3.4,0,0,0,.14,1.06,1.59,1.59,0,0,0,.33.61,1.09,1.09,0,0,0,.45.28,2,2,0,0,0,.47.07,1.63,1.63,0,0,0,.36-.05,2,2,0,0,0,.37-.09l.3-.09.14,0,.41,1.47-.15.07a4.29,4.29,0,0,1-.43.17,4,4,0,0,1-.66.16,4.5,4.5,0,0,1-.85.07,3.83,3.83,0,0,1-1.47-.25,2.61,2.61,0,0,1-1-.7,2.69,2.69,0,0,1-.58-1.08,5.23,5.23,0,0,1-.18-1.41,4.94,4.94,0,0,1,.26-1.66,3.52,3.52,0,0,1,.71-1.21,3.07,3.07,0,0,1,1.08-.74,3.76,3.76,0,0,1,1.35-.24,2.6,2.6,0,0,1,1.21.27,2.44,2.44,0,0,1,.84.72Z"/><path class="cls-1" d="M457.18,125.31a4.1,4.1,0,0,1,.77,2.63,5,5,0,0,1-.21,1.48,3.39,3.39,0,0,1-.61,1.18,2.91,2.91,0,0,1-1,.78,3.44,3.44,0,0,1-1.45.29,3.76,3.76,0,0,1-1.45-.25,2.55,2.55,0,0,1-1-.7,2.94,2.94,0,0,1-.57-1.13,5.33,5.33,0,0,1-.19-1.49,5.07,5.07,0,0,1,.2-1.49,3.17,3.17,0,0,1,.62-1.18,2.87,2.87,0,0,1,1-.78,3.34,3.34,0,0,1,1.46-.29A2.93,2.93,0,0,1,457.18,125.31Zm-3,.86a.94.94,0,0,0-.26.41,2.94,2.94,0,0,0-.13.61q0,.34,0,.75a6.8,6.8,0,0,0,0,.8,2.92,2.92,0,0,0,.15.66,1,1,0,0,0,.3.44.72.72,0,0,0,.49.16.6.6,0,0,0,.42-.15,1,1,0,0,0,.26-.42,2.44,2.44,0,0,0,.12-.61,5.8,5.8,0,0,0,0-.74c0-.29,0-.56,0-.8a2.71,2.71,0,0,0-.15-.65,1,1,0,0,0-.3-.44.75.75,0,0,0-.49-.17A.6.6,0,0,0,454.21,126.17Z"/><path class="cls-1" d="M466.56,131.53v-4.37a2.81,2.81,0,0,0-.09-.79.36.36,0,0,0-.38-.3q-.33,0-.63.48a2.5,2.5,0,0,0-.29,1.28v3.7H463v-4.37a3.31,3.31,0,0,0-.08-.79.36.36,0,0,0-.39-.3c-.23,0-.44.16-.63.49a2.59,2.59,0,0,0-.29,1.34v3.63h-2.21v-3.64a6.81,6.81,0,0,0-.12-1.4,4.38,4.38,0,0,0-.28-.9,2.33,2.33,0,0,0-.37-.63l1.77-.56a3,3,0,0,1,.24.32,2.11,2.11,0,0,1,.22.4,5.22,5.22,0,0,1,.19.56,2.09,2.09,0,0,1,.93-1,2.79,2.79,0,0,1,1.32-.31,1.77,1.77,0,0,1,1,.25,1.72,1.72,0,0,1,.63.7,2.16,2.16,0,0,1,.87-.73,2.83,2.83,0,0,1,1.12-.22,2,2,0,0,1,.9.18,1.42,1.42,0,0,1,.59.49,2.07,2.07,0,0,1,.31.77,4.4,4.4,0,0,1,.1,1v4.69Z"/><path class="cls-1" d="M470.16,126.55a3.33,3.33,0,0,1,.76-1.2,3.22,3.22,0,0,1,1.12-.74,3.78,3.78,0,0,1,1.4-.25,3.32,3.32,0,0,1,1.12.16,2.1,2.1,0,0,1,.76.45,1.64,1.64,0,0,1,.43.67,2.26,2.26,0,0,1,.14.83,1.91,1.91,0,0,1-.25,1,2.67,2.67,0,0,1-.72.79,4.41,4.41,0,0,1-1.13.56,6.62,6.62,0,0,1-1.51.3,1.48,1.48,0,0,0,.36.68,1.09,1.09,0,0,0,.79.25,3.09,3.09,0,0,0,.66-.07,5,5,0,0,0,.64-.15c.24-.06.46-.14.69-.22l.42,1.45a7.18,7.18,0,0,1-.83.33c-.25.07-.54.14-.87.2a5.16,5.16,0,0,1-1.06.1,3.75,3.75,0,0,1-1.46-.25,2.61,2.61,0,0,1-1-.7,2.92,2.92,0,0,1-.56-1.08,5.68,5.68,0,0,1-.17-1.41A4.7,4.7,0,0,1,470.16,126.55Zm2.55-.45a.94.94,0,0,0-.3.4,2.44,2.44,0,0,0-.17.56,4.43,4.43,0,0,0-.07.6,2.33,2.33,0,0,0,.71-.12,1.63,1.63,0,0,0,.47-.28,1.09,1.09,0,0,0,.26-.37.87.87,0,0,0,.09-.36.61.61,0,0,0-.15-.43.5.5,0,0,0-.39-.16A.67.67,0,0,0,472.71,126.1Z"/><path class="cls-1" d="M480.18,126.6a1,1,0,0,0-.35.26,1.24,1.24,0,0,0-.28.45,1.58,1.58,0,0,0-.11.65v3.57h-2.22v-3.64a7.71,7.71,0,0,0-.11-1.4,4.38,4.38,0,0,0-.28-.9,2.34,2.34,0,0,0-.38-.63l1.78-.56a3,3,0,0,1,.24.32,3.44,3.44,0,0,1,.21.39,2.22,2.22,0,0,1,.18.55,2.4,2.4,0,0,1,.84-1,2.19,2.19,0,0,1,1.14-.29,2.7,2.7,0,0,1,.52,0c.16,0,.28.07.39.1l-.58,2.12a1.35,1.35,0,0,0-.26-.11,1.45,1.45,0,0,0-.4,0A.75.75,0,0,0,480.18,126.6Z"/><path class="cls-1" d="M486.1,126.49a2.23,2.23,0,0,0-.35-.34.74.74,0,0,0-.46-.14,1.42,1.42,0,0,0-.38.06.73.73,0,0,0-.39.26,1.57,1.57,0,0,0-.3.58,3.72,3.72,0,0,0-.12,1.06,3.43,3.43,0,0,0,.13,1.06,1.6,1.6,0,0,0,.34.61,1,1,0,0,0,.45.28,2,2,0,0,0,.47.07,1.63,1.63,0,0,0,.36-.05,2.22,2.22,0,0,0,.37-.09l.3-.09.14,0,.41,1.47-.16.07a3.25,3.25,0,0,1-.42.17,4.57,4.57,0,0,1-.66.16,4.5,4.5,0,0,1-.85.07,3.83,3.83,0,0,1-1.47-.25,2.65,2.65,0,0,1-1-.7,2.8,2.8,0,0,1-.57-1.08,5.23,5.23,0,0,1-.18-1.41,4.71,4.71,0,0,1,.26-1.66,3.52,3.52,0,0,1,.71-1.21,2.9,2.9,0,0,1,1.08-.74,3.68,3.68,0,0,1,1.35-.24,2.53,2.53,0,0,1,1.2.27,2.27,2.27,0,0,1,.84.72Z"/><path class="cls-1" d="M490,121.47a1.29,1.29,0,0,1,.31.89,1.36,1.36,0,0,1-.31.91,1.2,1.2,0,0,1-.95.36,1.13,1.13,0,0,1-.9-.36,1.22,1.22,0,0,1-.32-.84,1.32,1.32,0,0,1,.33-.93,1.18,1.18,0,0,1,1-.38A1.12,1.12,0,0,1,490,121.47Zm-1.54,9.7A1.48,1.48,0,0,1,488,130v-5.5h2.22v4.87a.7.7,0,0,0,.09.43.38.38,0,0,0,.3.12l.22,0,.14,0,.2,1.39-.13.06-.29.11a3.13,3.13,0,0,1-.44.11,2.22,2.22,0,0,1-.53.05A2,2,0,0,1,488.45,131.17Z"/><path class="cls-1" d="M497.35,125.31a4.1,4.1,0,0,1,.76,2.63,5,5,0,0,1-.2,1.48,3.25,3.25,0,0,1-.62,1.18,2.87,2.87,0,0,1-1,.78,3.47,3.47,0,0,1-1.45.29,3.76,3.76,0,0,1-1.45-.25,2.41,2.41,0,0,1-1-.7,3.1,3.1,0,0,1-.58-1.13,5.73,5.73,0,0,1-.19-1.49,5.06,5.06,0,0,1,.21-1.49,3.31,3.31,0,0,1,.61-1.18,2.91,2.91,0,0,1,1-.78,3.31,3.31,0,0,1,1.46-.29A3,3,0,0,1,497.35,125.31Zm-3,.86a.86.86,0,0,0-.26.41,2.41,2.41,0,0,0-.13.61q0,.34,0,.75a6.8,6.8,0,0,0,0,.8,2.94,2.94,0,0,0,.14.66,1,1,0,0,0,.31.44.72.72,0,0,0,.49.16.64.64,0,0,0,.42-.15,1,1,0,0,0,.25-.42,2.41,2.41,0,0,0,.13-.61c0-.23,0-.48,0-.74a6.47,6.47,0,0,0,0-.8,2.32,2.32,0,0,0-.14-.65,1,1,0,0,0-.3-.44.77.77,0,0,0-.49-.17A.6.6,0,0,0,494.38,126.17Z"/></g></svg>