<svg xmlns="http://www.w3.org/2000/svg" viewBox="0 0 544.51 300.3"><defs><style>.cls-1{fill:#0f1d4d;}.cls-2{fill:#be9683;}.cls-3{fill:none;stroke:#0f1d4d;stroke-miterlimit:10;}</style></defs><g id="Capa_1" data-name="Capa 1"><polygon class="cls-1" points="524.58 231.73 524.58 265.71 55.8 265.71 55.8 241.2 149.28 214.18 241.45 251.14 333.61 260 425.78 263 524.58 231.73"/><polygon class="cls-2" points="524.58 144.41 524.58 231.73 425.78 263 333.61 260 241.45 251.14 149.28 214.18 55.8 241.2 55.8 206.57 149.28 29.26 241.45 153.75 333.61 202.8 425.78 132.26 524.58 144.41"/><line class="cls-3" x1="36.74" x2="36.74" y2="276.57"/><line class="cls-3" x1="27.22" y1="265.71" x2="544.51" y2="265.71"/><path class="cls-1" d="M.79,13.08A8,8,0,0,1,1.93,8.36,3.87,3.87,0,0,1,5.29,6.79a4.19,4.19,0,0,1,1.2.14V8A3.59,3.59,0,0,0,5.3,7.8,2.89,2.89,0,0,0,2.87,8.87,5.79,5.79,0,0,0,2,12.24H2A2.53,2.53,0,0,1,4.39,11a2.63,2.63,0,0,1,2.1.88,3.46,3.46,0,0,1,.77,2.36,3.86,3.86,0,0,1-.84,2.63,2.94,2.94,0,0,1-2.29.95,2.86,2.86,0,0,1-2.44-1.25A5.84,5.84,0,0,1,.79,13.08Zm3.33,3.69a1.83,1.83,0,0,0,1.5-.66,2.94,2.94,0,0,0,.53-1.89,2.58,2.58,0,0,0-.5-1.67,1.81,1.81,0,0,0-1.48-.61,2.34,2.34,0,0,0-1.11.27,2.17,2.17,0,0,0-.81.75A1.84,1.84,0,0,0,2,14a3.69,3.69,0,0,0,.27,1.41,2.38,2.38,0,0,0,.77,1A1.83,1.83,0,0,0,4.12,16.77Z"/><path class="cls-1" d="M15.18,12.29a8.31,8.31,0,0,1-.81,4.14A2.66,2.66,0,0,1,11.9,17.8a2.69,2.69,0,0,1-2.44-1.4,8.23,8.23,0,0,1-.83-4.11,8.35,8.35,0,0,1,.81-4.16A2.66,2.66,0,0,1,11.9,6.78a2.69,2.69,0,0,1,2.45,1.41A8.27,8.27,0,0,1,15.18,12.29Zm-5.41,0a8.39,8.39,0,0,0,.51,3.4,1.77,1.77,0,0,0,3.25,0,8.59,8.59,0,0,0,.5-3.38,8.53,8.53,0,0,0-.5-3.38,1.77,1.77,0,0,0-3.25,0A8.36,8.36,0,0,0,9.77,12.29Z"/><path class="cls-1" d="M23.12,12.29a8.31,8.31,0,0,1-.81,4.14,2.67,2.67,0,0,1-2.48,1.37,2.68,2.68,0,0,1-2.43-1.4,8.12,8.12,0,0,1-.83-4.11,8.36,8.36,0,0,1,.8-4.16,2.68,2.68,0,0,1,2.46-1.35,2.67,2.67,0,0,1,2.45,1.41A8.15,8.15,0,0,1,23.12,12.29Zm-5.41,0a8.61,8.61,0,0,0,.5,3.4,1.77,1.77,0,0,0,3.25,0A8.38,8.38,0,0,0,22,12.29a8.32,8.32,0,0,0-.51-3.38,1.77,1.77,0,0,0-3.25,0A8.57,8.57,0,0,0,17.71,12.29Z"/><path class="cls-1" d="M3.78,53.12A3.5,3.5,0,0,1,6.24,54a3,3,0,0,1,.9,2.3,3.47,3.47,0,0,1-1,2.61,3.75,3.75,0,0,1-2.7.94A4.64,4.64,0,0,1,.9,59.22V58.05a3.89,3.89,0,0,0,1.18.52,5.58,5.58,0,0,0,1.39.18,2.64,2.64,0,0,0,1.85-.6A2.28,2.28,0,0,0,6,56.39c0-1.49-.85-2.24-2.55-2.24a9.49,9.49,0,0,0-1.72.21L1.14,54l.37-5H6.44v1.12h-4l-.25,3.21A7.51,7.51,0,0,1,3.78,53.12Z"/><path class="cls-1" d="M15.18,54.29a8.31,8.31,0,0,1-.81,4.14A2.66,2.66,0,0,1,11.9,59.8a2.69,2.69,0,0,1-2.44-1.4,8.23,8.23,0,0,1-.83-4.11,8.35,8.35,0,0,1,.81-4.16,2.66,2.66,0,0,1,2.46-1.35,2.69,2.69,0,0,1,2.45,1.41A8.27,8.27,0,0,1,15.18,54.29Zm-5.41,0a8.39,8.39,0,0,0,.51,3.4,1.77,1.77,0,0,0,3.25,0,8.59,8.59,0,0,0,.5-3.38,8.53,8.53,0,0,0-.5-3.38,1.77,1.77,0,0,0-3.25,0A8.36,8.36,0,0,0,9.77,54.29Z"/><path class="cls-1" d="M23.12,54.29a8.31,8.31,0,0,1-.81,4.14,2.67,2.67,0,0,1-2.48,1.37,2.68,2.68,0,0,1-2.43-1.4,8.12,8.12,0,0,1-.83-4.11,8.36,8.36,0,0,1,.8-4.16,2.68,2.68,0,0,1,2.46-1.35,2.67,2.67,0,0,1,2.45,1.41A8.15,8.15,0,0,1,23.12,54.29Zm-5.41,0a8.61,8.61,0,0,0,.5,3.4,1.77,1.77,0,0,0,3.25,0A8.38,8.38,0,0,0,22,54.29a8.32,8.32,0,0,0-.51-3.38,1.77,1.77,0,0,0-3.25,0A8.57,8.57,0,0,0,17.71,54.29Z"/><path class="cls-1" d="M7.66,99.19H6.19v2.47H5.11V99.19H.29V98.13L5,90.89H6.19v7.2H7.66Zm-2.55-1.1V94.53c0-.7,0-1.49.07-2.37H5.12a10.25,10.25,0,0,1-.61,1.17L1.42,98.09Z"/><path class="cls-1" d="M15.18,96.29a8.31,8.31,0,0,1-.81,4.14,2.66,2.66,0,0,1-2.47,1.37,2.69,2.69,0,0,1-2.44-1.4,8.23,8.23,0,0,1-.83-4.11,8.35,8.35,0,0,1,.81-4.16,2.66,2.66,0,0,1,2.46-1.35,2.69,2.69,0,0,1,2.45,1.41A8.27,8.27,0,0,1,15.18,96.29Zm-5.41,0a8.39,8.39,0,0,0,.51,3.4,1.77,1.77,0,0,0,3.25,0,8.59,8.59,0,0,0,.5-3.38,8.53,8.53,0,0,0-.5-3.38,1.77,1.77,0,0,0-3.25,0A8.36,8.36,0,0,0,9.77,96.29Z"/><path class="cls-1" d="M23.12,96.29a8.31,8.31,0,0,1-.81,4.14,2.67,2.67,0,0,1-2.48,1.37,2.68,2.68,0,0,1-2.43-1.4,8.12,8.12,0,0,1-.83-4.11,8.36,8.36,0,0,1,.8-4.16,2.68,2.68,0,0,1,2.46-1.35,2.67,2.67,0,0,1,2.45,1.41A8.15,8.15,0,0,1,23.12,96.29Zm-5.41,0a8.61,8.61,0,0,0,.5,3.4,1.77,1.77,0,0,0,3.25,0,11.46,11.46,0,0,0,0-6.76,1.77,1.77,0,0,0-3.25,0A8.57,8.57,0,0,0,17.71,96.29Z"/><path class="cls-1" d="M6.82,135.47a2.62,2.62,0,0,1-.53,1.68,2.68,2.68,0,0,1-1.51.87v0a2.79,2.79,0,0,1,1.77.83,2.51,2.51,0,0,1,.57,1.72,2.9,2.9,0,0,1-1,2.36,4.22,4.22,0,0,1-2.79.82,7.07,7.07,0,0,1-1.44-.13,4.29,4.29,0,0,1-1.27-.45v-1.15a5.79,5.79,0,0,0,1.37.52,5.82,5.82,0,0,0,1.38.18C5.1,142.77,6,142,6,140.59c0-1.29-1-1.94-2.84-1.94h-1V137.6h1A2.85,2.85,0,0,0,5,137.05a1.85,1.85,0,0,0,.68-1.54,1.55,1.55,0,0,0-.5-1.23,1.93,1.93,0,0,0-1.35-.45,4,4,0,0,0-1.22.19,5.42,5.42,0,0,0-1.32.71l-.57-.82a4.79,4.79,0,0,1,3.09-1.12,3.23,3.23,0,0,1,2.24.72A2.5,2.5,0,0,1,6.82,135.47Z"/><path class="cls-1" d="M15.18,138.29a8.31,8.31,0,0,1-.81,4.14,2.66,2.66,0,0,1-2.47,1.37,2.69,2.69,0,0,1-2.44-1.4,8.23,8.23,0,0,1-.83-4.11,8.35,8.35,0,0,1,.81-4.16,2.66,2.66,0,0,1,2.46-1.35,2.69,2.69,0,0,1,2.45,1.41A8.27,8.27,0,0,1,15.18,138.29Zm-5.41,0a8.39,8.39,0,0,0,.51,3.4,1.77,1.77,0,0,0,3.25,0,8.59,8.59,0,0,0,.5-3.38,8.53,8.53,0,0,0-.5-3.38,1.77,1.77,0,0,0-3.25,0A8.36,8.36,0,0,0,9.77,138.29Z"/><path class="cls-1" d="M23.12,138.29a8.31,8.31,0,0,1-.81,4.14,2.67,2.67,0,0,1-2.48,1.37,2.68,2.68,0,0,1-2.43-1.4,8.12,8.12,0,0,1-.83-4.11,8.36,8.36,0,0,1,.8-4.16,2.68,2.68,0,0,1,2.46-1.35,2.67,2.67,0,0,1,2.45,1.41A8.15,8.15,0,0,1,23.12,138.29Zm-5.41,0a8.61,8.61,0,0,0,.5,3.4,1.77,1.77,0,0,0,3.25,0,11.46,11.46,0,0,0,0-6.76,1.77,1.77,0,0,0-3.25,0A8.57,8.57,0,0,0,17.71,138.29Z"/><path class="cls-1" d="M7.19,185.66H.68v-1l2.61-2.84a20.82,20.82,0,0,0,1.57-1.86,5.14,5.14,0,0,0,.57-1.08,3.25,3.25,0,0,0,.19-1.14,1.86,1.86,0,0,0-.48-1.35,1.76,1.76,0,0,0-1.34-.51,3.29,3.29,0,0,0-1.17.22,4.79,4.79,0,0,0-1.23.8L.81,176a4.36,4.36,0,0,1,3-1.23,3,3,0,0,1,2.19.78,2.74,2.74,0,0,1,.79,2.07,4.32,4.32,0,0,1-.53,2,12.65,12.65,0,0,1-2,2.52l-2.17,2.29v.06h5.1Z"/><path class="cls-1" d="M15.18,180.29a8.31,8.31,0,0,1-.81,4.14,2.66,2.66,0,0,1-2.47,1.37,2.69,2.69,0,0,1-2.44-1.4,8.23,8.23,0,0,1-.83-4.11,8.35,8.35,0,0,1,.81-4.16,2.66,2.66,0,0,1,2.46-1.35,2.69,2.69,0,0,1,2.45,1.41A8.27,8.27,0,0,1,15.18,180.29Zm-5.41,0a8.39,8.39,0,0,0,.51,3.4,1.77,1.77,0,0,0,3.25,0,8.59,8.59,0,0,0,.5-3.38,8.53,8.53,0,0,0-.5-3.38,1.77,1.77,0,0,0-3.25,0A8.36,8.36,0,0,0,9.77,180.29Z"/><path class="cls-1" d="M23.12,180.29a8.31,8.31,0,0,1-.81,4.14,2.67,2.67,0,0,1-2.48,1.37,2.68,2.68,0,0,1-2.43-1.4,8.12,8.12,0,0,1-.83-4.11,8.36,8.36,0,0,1,.8-4.16,2.68,2.68,0,0,1,2.46-1.35,2.67,2.67,0,0,1,2.45,1.41A8.15,8.15,0,0,1,23.12,180.29Zm-5.41,0a8.61,8.61,0,0,0,.5,3.4,1.77,1.77,0,0,0,3.25,0,11.46,11.46,0,0,0,0-6.76,1.77,1.77,0,0,0-3.25,0A8.57,8.57,0,0,0,17.71,180.29Z"/><path class="cls-1" d="M4.85,227.66H3.75V220c0-.63,0-1.23,0-1.8-.09.1-.2.21-.32.32s-.65.59-1.61,1.43l-.6-.83L3.9,217h.95Z"/><path class="cls-1" d="M15.18,222.29a8.31,8.31,0,0,1-.81,4.14,2.66,2.66,0,0,1-2.47,1.37,2.69,2.69,0,0,1-2.44-1.4,8.26,8.26,0,0,1-.83-4.11,8.35,8.35,0,0,1,.81-4.16,2.66,2.66,0,0,1,2.46-1.35,2.69,2.69,0,0,1,2.45,1.41A8.27,8.27,0,0,1,15.18,222.29Zm-5.41,0a8.36,8.36,0,0,0,.51,3.4,1.76,1.76,0,0,0,3.25,0,11.67,11.67,0,0,0,0-6.76,1.77,1.77,0,0,0-3.25,0A8.36,8.36,0,0,0,9.77,222.29Z"/><path class="cls-1" d="M23.12,222.29a8.31,8.31,0,0,1-.81,4.14,2.67,2.67,0,0,1-2.48,1.37,2.68,2.68,0,0,1-2.43-1.4,8.15,8.15,0,0,1-.83-4.11,8.36,8.36,0,0,1,.8-4.16,2.68,2.68,0,0,1,2.46-1.35,2.67,2.67,0,0,1,2.45,1.41A8.15,8.15,0,0,1,23.12,222.29Zm-5.41,0a8.57,8.57,0,0,0,.5,3.4,1.76,1.76,0,0,0,3.25,0,11.46,11.46,0,0,0,0-6.76,1.77,1.77,0,0,0-3.25,0A8.57,8.57,0,0,0,17.71,222.29Z"/><path class="cls-1" d="M23.12,264.29a8.31,8.31,0,0,1-.81,4.14,2.68,2.68,0,0,1-2.48,1.37,2.68,2.68,0,0,1-2.43-1.4,8.15,8.15,0,0,1-.83-4.11,8.36,8.36,0,0,1,.8-4.16,2.68,2.68,0,0,1,2.46-1.35,2.68,2.68,0,0,1,2.45,1.41A8.15,8.15,0,0,1,23.12,264.29Zm-5.42,0a8.36,8.36,0,0,0,.51,3.4,1.76,1.76,0,0,0,3.25,0,11.46,11.46,0,0,0,0-6.76,1.77,1.77,0,0,0-3.25,0A8.36,8.36,0,0,0,17.7,264.29Z"/><path class="cls-1" d="M50.38,296.23H43.87v-1.05l2.6-2.83a21.48,21.48,0,0,0,1.58-1.86,5,5,0,0,0,.57-1.09,3.48,3.48,0,0,0,.19-1.13,1.88,1.88,0,0,0-.48-1.36,1.8,1.8,0,0,0-1.34-.5,3.08,3.08,0,0,0-1.17.22,4.31,4.31,0,0,0-1.23.8l-.6-.83a4.4,4.4,0,0,1,3-1.23,3,3,0,0,1,2.19.77,2.81,2.81,0,0,1,.79,2.08,4.25,4.25,0,0,1-.53,2,12.11,12.11,0,0,1-2,2.52L45.28,295v.06h5.1Z"/><path class="cls-1" d="M58.37,290.86a8.38,8.38,0,0,1-.81,4.15,2.86,2.86,0,0,1-4.91,0,8.1,8.1,0,0,1-.83-4.11,8.32,8.32,0,0,1,.8-4.15,2.86,2.86,0,0,1,4.91.06A8.08,8.08,0,0,1,58.37,290.86Zm-5.41,0a8.39,8.39,0,0,0,.5,3.4,1.77,1.77,0,0,0,3.25,0,11.49,11.49,0,0,0,0-6.77,1.77,1.77,0,0,0-3.25,0A8.31,8.31,0,0,0,53,290.86Z"/><path class="cls-1" d="M63.91,296.23h-1.1V288.6q0-1,.06-1.8l-.32.32-1.62,1.43-.59-.84L63,285.52h.95Z"/><path class="cls-1" d="M74.25,290.86a8.38,8.38,0,0,1-.81,4.15A2.7,2.7,0,0,1,71,296.38,2.65,2.65,0,0,1,68.53,295a8.09,8.09,0,0,1-.84-4.11,8.3,8.3,0,0,1,.81-4.15,2.86,2.86,0,0,1,4.91.06A8.08,8.08,0,0,1,74.25,290.86Zm-5.42,0a8.36,8.36,0,0,0,.51,3.4,1.77,1.77,0,0,0,3.25,0,11.71,11.71,0,0,0,0-6.77,1.77,1.77,0,0,0-3.25,0A8.27,8.27,0,0,0,68.83,290.86Z"/><path class="cls-1" d="M143.7,296.23h-6.51v-1.05l2.61-2.83a20.82,20.82,0,0,0,1.57-1.86,5,5,0,0,0,.57-1.09,3.23,3.23,0,0,0,.19-1.13,1.88,1.88,0,0,0-.48-1.36,1.79,1.79,0,0,0-1.34-.5,3.08,3.08,0,0,0-1.17.22,4.31,4.31,0,0,0-1.23.8l-.59-.83a4.36,4.36,0,0,1,3-1.23,3,3,0,0,1,2.19.77,2.77,2.77,0,0,1,.79,2.08,4.25,4.25,0,0,1-.53,2,12.11,12.11,0,0,1-2,2.52L138.6,295v.06h5.1Z"/><path class="cls-1" d="M151.69,290.86a8.38,8.38,0,0,1-.81,4.15,2.86,2.86,0,0,1-4.91,0,8.2,8.2,0,0,1-.83-4.11,8.3,8.3,0,0,1,.81-4.15,2.86,2.86,0,0,1,4.91.06A8.2,8.2,0,0,1,151.69,290.86Zm-5.41,0a8.36,8.36,0,0,0,.51,3.4,1.68,1.68,0,0,0,1.62,1.07,1.7,1.7,0,0,0,1.63-1.08,11.71,11.71,0,0,0,0-6.77,1.7,1.7,0,0,0-1.63-1.07,1.67,1.67,0,0,0-1.62,1.06A8.27,8.27,0,0,0,146.28,290.86Z"/><path class="cls-1" d="M157.23,296.23h-1.1V288.6q0-1,.06-1.8l-.32.32-1.61,1.43-.6-.84,2.62-2.19h.95Z"/><path class="cls-1" d="M165.17,296.23h-1.1V288.6c0-.64,0-1.24.05-1.8l-.31.32-1.62,1.43-.59-.84,2.62-2.19h.95Z"/><path class="cls-1" d="M237,296.23h-6.51v-1.05l2.61-2.83a19.18,19.18,0,0,0,1.57-1.86,4.57,4.57,0,0,0,.57-1.09,3.23,3.23,0,0,0,.19-1.13,1.88,1.88,0,0,0-.48-1.36,1.79,1.79,0,0,0-1.34-.5,3.08,3.08,0,0,0-1.17.22,4.42,4.42,0,0,0-1.22.8l-.6-.83a4.38,4.38,0,0,1,3-1.23,3,3,0,0,1,2.19.77,2.77,2.77,0,0,1,.79,2.08,4.14,4.14,0,0,1-.53,2,12.34,12.34,0,0,1-2,2.52L231.93,295v.06H237Z"/><path class="cls-1" d="M245,290.86a8.38,8.38,0,0,1-.81,4.15,2.87,2.87,0,0,1-4.92,0,8.2,8.2,0,0,1-.83-4.11,8.3,8.3,0,0,1,.81-4.15,2.86,2.86,0,0,1,4.91.06A8.08,8.08,0,0,1,245,290.86Zm-5.42,0a8.36,8.36,0,0,0,.51,3.4,1.77,1.77,0,0,0,3.25,0,11.71,11.71,0,0,0,0-6.77,1.77,1.77,0,0,0-3.25,0A8.27,8.27,0,0,0,239.6,290.86Z"/><path class="cls-1" d="M250.55,296.23h-1.09V288.6c0-.64,0-1.24,0-1.8l-.32.32c-.12.11-.65.59-1.61,1.43l-.6-.84,2.62-2.19h1Z"/><path class="cls-1" d="M260.84,296.23h-6.52v-1.05l2.61-2.83a19.18,19.18,0,0,0,1.57-1.86,4.24,4.24,0,0,0,.57-1.09,3.23,3.23,0,0,0,.19-1.13,1.88,1.88,0,0,0-.48-1.36,1.76,1.76,0,0,0-1.33-.5,3.08,3.08,0,0,0-1.17.22,4.31,4.31,0,0,0-1.23.8l-.6-.83a4.38,4.38,0,0,1,3-1.23,3,3,0,0,1,2.19.77,2.78,2.78,0,0,1,.8,2.08,4.25,4.25,0,0,1-.53,2,12.46,12.46,0,0,1-2,2.52L255.74,295v.06h5.1Z"/><path class="cls-1" d="M330.35,296.23h-6.52v-1.05l2.61-2.83a19.18,19.18,0,0,0,1.57-1.86,4.24,4.24,0,0,0,.57-1.09,3.23,3.23,0,0,0,.19-1.13,1.88,1.88,0,0,0-.48-1.36,1.76,1.76,0,0,0-1.33-.5,3.08,3.08,0,0,0-1.17.22,4.31,4.31,0,0,0-1.23.8l-.6-.83a4.38,4.38,0,0,1,3-1.23,3,3,0,0,1,2.19.77,2.78,2.78,0,0,1,.8,2.08,4.25,4.25,0,0,1-.53,2,12.84,12.84,0,0,1-2,2.52L325.25,295v.06h5.1Z"/><path class="cls-1" d="M338.34,290.86a8.38,8.38,0,0,1-.81,4.15,2.7,2.7,0,0,1-2.48,1.37,2.65,2.65,0,0,1-2.43-1.41,8.09,8.09,0,0,1-.84-4.11,8.3,8.3,0,0,1,.81-4.15,2.86,2.86,0,0,1,4.91.06A8.08,8.08,0,0,1,338.34,290.86Zm-5.42,0a8.36,8.36,0,0,0,.51,3.4,1.77,1.77,0,0,0,3.25,0,11.49,11.49,0,0,0,0-6.77,1.77,1.77,0,0,0-3.25,0A8.27,8.27,0,0,0,332.92,290.86Z"/><path class="cls-1" d="M343.88,296.23h-1.1V288.6c0-.64,0-1.24.05-1.8l-.32.32c-.11.11-.65.59-1.61,1.43l-.6-.84,2.63-2.19h.95Z"/><path class="cls-1" d="M353.79,288a2.55,2.55,0,0,1-.54,1.68,2.62,2.62,0,0,1-1.5.87v.06a2.73,2.73,0,0,1,1.76.82,2.5,2.5,0,0,1,.58,1.73,2.91,2.91,0,0,1-1,2.35,4.24,4.24,0,0,1-2.79.83,7.86,7.86,0,0,1-1.44-.13,5,5,0,0,1-1.28-.45v-1.16a5.86,5.86,0,0,0,1.38.52,5.69,5.69,0,0,0,1.38.18c1.71,0,2.56-.72,2.56-2.17s-.94-1.95-2.83-1.95h-1v-1.05h1a2.79,2.79,0,0,0,1.83-.55,1.88,1.88,0,0,0,.68-1.53,1.55,1.55,0,0,0-.5-1.23,1.93,1.93,0,0,0-1.35-.45,3.86,3.86,0,0,0-1.23.19,5.49,5.49,0,0,0-1.31.7l-.57-.82a4.74,4.74,0,0,1,1.4-.82,5,5,0,0,1,1.68-.29,3.3,3.3,0,0,1,2.25.71A2.51,2.51,0,0,1,353.79,288Z"/><path class="cls-1" d="M423.67,296.23h-6.52v-1.05l2.61-2.83a21.48,21.48,0,0,0,1.58-1.86,5,5,0,0,0,.57-1.09,3.48,3.48,0,0,0,.19-1.13,1.85,1.85,0,0,0-.49-1.36,1.76,1.76,0,0,0-1.33-.5,3.08,3.08,0,0,0-1.17.22,4.31,4.31,0,0,0-1.23.8l-.6-.83a4.4,4.4,0,0,1,3-1.23,3,3,0,0,1,2.19.77,2.81,2.81,0,0,1,.79,2.08,4.25,4.25,0,0,1-.53,2,12.11,12.11,0,0,1-2,2.52L418.57,295v.06h5.1Z"/><path class="cls-1" d="M431.66,290.86a8.38,8.38,0,0,1-.81,4.15,2.86,2.86,0,0,1-4.91,0,8.1,8.1,0,0,1-.83-4.11,8.32,8.32,0,0,1,.8-4.15,2.86,2.86,0,0,1,4.91.06A8.08,8.08,0,0,1,431.66,290.86Zm-5.42,0a8.36,8.36,0,0,0,.51,3.4,1.77,1.77,0,0,0,3.25,0,11.49,11.49,0,0,0,0-6.77,1.77,1.77,0,0,0-3.25,0A8.27,8.27,0,0,0,426.24,290.86Z"/><path class="cls-1" d="M437.2,296.23h-1.1V288.6c0-.64,0-1.24,0-1.8l-.31.32-1.62,1.43-.59-.84,2.62-2.19h.95Z"/><path class="cls-1" d="M448,293.77h-1.47v2.46H445.4v-2.46h-4.82v-1.06l4.7-7.25h1.2v7.2H448Zm-2.55-1.11V289.1c0-.69,0-1.48.07-2.36h-.06a9.26,9.26,0,0,1-.61,1.16l-3.09,4.76Z"/><path class="cls-1" d="M517,296.23h-6.51v-1.05l2.6-2.83a21.48,21.48,0,0,0,1.58-1.86,5,5,0,0,0,.57-1.09,3.48,3.48,0,0,0,.19-1.13,1.88,1.88,0,0,0-.48-1.36,1.8,1.8,0,0,0-1.34-.5,3.08,3.08,0,0,0-1.17.22,4.31,4.31,0,0,0-1.23.8l-.6-.83a4.4,4.4,0,0,1,3-1.23,3,3,0,0,1,2.19.77,2.81,2.81,0,0,1,.79,2.08,4.25,4.25,0,0,1-.53,2,12.11,12.11,0,0,1-2,2.52L511.89,295v.06H517Z"/><path class="cls-1" d="M525,290.86a8.38,8.38,0,0,1-.81,4.15,2.86,2.86,0,0,1-4.91,0,8.2,8.2,0,0,1-.83-4.11,8.43,8.43,0,0,1,.8-4.15,2.86,2.86,0,0,1,4.91.06A8.08,8.08,0,0,1,525,290.86Zm-5.41,0a8.57,8.57,0,0,0,.5,3.4,1.77,1.77,0,0,0,3.25,0,11.49,11.49,0,0,0,0-6.77,1.77,1.77,0,0,0-3.25,0A8.48,8.48,0,0,0,519.57,290.86Z"/><path class="cls-1" d="M530.52,296.23h-1.1V288.6q0-1,.06-1.8l-.32.32-1.62,1.43-.59-.84,2.62-2.19h.95Z"/><path class="cls-1" d="M537.39,289.69a3.46,3.46,0,0,1,2.46.84,3,3,0,0,1,.9,2.29,3.47,3.47,0,0,1-1,2.61,3.74,3.74,0,0,1-2.7.95,4.73,4.73,0,0,1-2.56-.58v-1.17a3.66,3.66,0,0,0,1.18.51,5.17,5.17,0,0,0,1.39.19,2.6,2.6,0,0,0,1.85-.61,2.23,2.23,0,0,0,.67-1.76c0-1.49-.85-2.24-2.55-2.24a8.81,8.81,0,0,0-1.72.22l-.58-.41.37-5h4.93v1.12h-4l-.25,3.22A7.53,7.53,0,0,1,537.39,289.69Z"/><path class="cls-1" d="M380.69,45a2.51,2.51,0,0,1-.92,2.07,4.13,4.13,0,0,1-2.59.72,5.33,5.33,0,0,1-2.76-.6V45.83a6.41,6.41,0,0,0,1.38.55,5,5,0,0,0,1.41.2,3,3,0,0,0,1.62-.36,1.21,1.21,0,0,0,.56-1.11,1.24,1.24,0,0,0-.44-1,7.44,7.44,0,0,0-1.76-.94,9.15,9.15,0,0,1-1.76-.87,2.47,2.47,0,0,1-.78-.84,2.33,2.33,0,0,1-.25-1.13,2.2,2.2,0,0,1,.88-1.85,3.91,3.91,0,0,1,2.42-.68,6.6,6.6,0,0,1,2.8.63L380,39.65a6.13,6.13,0,0,0-2.42-.59,2.71,2.71,0,0,0-1.45.32,1,1,0,0,0-.48.89,1.16,1.16,0,0,0,.18.66,1.93,1.93,0,0,0,.59.52,13.61,13.61,0,0,0,1.55.71,5.71,5.71,0,0,1,2.14,1.25A2.31,2.31,0,0,1,380.69,45Z"/><path class="cls-1" d="M382.76,35.42a1,1,0,0,1,.23-.73.74.74,0,0,1,.57-.23.76.76,0,0,1,.56.23,1.27,1.27,0,0,1,0,1.46.77.77,0,0,1-.56.24.75.75,0,0,1-.57-.24A1,1,0,0,1,382.76,35.42Zm1.46,12.19h-1.34V38h1.34Z"/><path class="cls-1" d="M389.94,46.58a5.06,5.06,0,0,0,.68,0,4.38,4.38,0,0,0,.53-.12v1.11a2.14,2.14,0,0,1-.64.19,4.48,4.48,0,0,1-.77.07c-1.71,0-2.57-1-2.57-2.93v-5.7H385.9v-.7l1.27-.61.56-2h.78V38h2.58v1.13h-2.58v5.64a2.07,2.07,0,0,0,.38,1.33A1.28,1.28,0,0,0,389.94,46.58Z"/><path class="cls-1" d="M392.81,35.42a1,1,0,0,1,.23-.73.74.74,0,0,1,.57-.23.73.73,0,0,1,.55.23,1.23,1.23,0,0,1,0,1.46.74.74,0,0,1-.55.24.75.75,0,0,1-.57-.24A1,1,0,0,1,392.81,35.42Zm1.46,12.19h-1.35V38h1.35Z"/><path class="cls-1" d="M404.78,42.8a5.58,5.58,0,0,1-1.09,3.67,3.74,3.74,0,0,1-3,1.31,3.81,3.81,0,0,1-2.12-.6,3.89,3.89,0,0,1-1.42-1.73,6.43,6.43,0,0,1-.51-2.65,5.58,5.58,0,0,1,1.09-3.65,3.7,3.7,0,0,1,3-1.31,3.64,3.64,0,0,1,3,1.34A5.55,5.55,0,0,1,404.78,42.8Zm-6.76,0a4.84,4.84,0,0,0,.68,2.8,2.56,2.56,0,0,0,4,0,4.8,4.8,0,0,0,.69-2.81A4.66,4.66,0,0,0,402.7,40a2.61,2.61,0,0,0-4,0A4.79,4.79,0,0,0,398,42.8Z"/><path class="cls-1" d="M412.86,45a2.51,2.51,0,0,1-.92,2.07,4.13,4.13,0,0,1-2.59.72,5.33,5.33,0,0,1-2.76-.6V45.83a6.54,6.54,0,0,0,1.37.55,5.12,5.12,0,0,0,1.42.2,3,3,0,0,0,1.62-.36,1.21,1.21,0,0,0,.56-1.11,1.24,1.24,0,0,0-.44-1,7.44,7.44,0,0,0-1.76-.94,9.15,9.15,0,0,1-1.76-.87,2.47,2.47,0,0,1-.78-.84,2.33,2.33,0,0,1-.25-1.13,2.2,2.2,0,0,1,.88-1.85,3.91,3.91,0,0,1,2.42-.68,6.6,6.6,0,0,1,2.8.63l-.47,1.18a6.13,6.13,0,0,0-2.42-.59,2.71,2.71,0,0,0-1.45.32,1,1,0,0,0-.48.89,1.16,1.16,0,0,0,.18.66,1.93,1.93,0,0,0,.59.52,13.61,13.61,0,0,0,1.55.71,5.71,5.71,0,0,1,2.14,1.25A2.35,2.35,0,0,1,412.86,45Z"/><path class="cls-1" d="M423.1,47.78a3.92,3.92,0,0,1-3.1-1.29,5.27,5.27,0,0,1-1.14-3.6,5.83,5.83,0,0,1,1.06-3.68,3.4,3.4,0,0,1,2.83-1.37A3.22,3.22,0,0,1,425.39,39a4.77,4.77,0,0,1,1,3.13v.91h-6.12a4,4,0,0,0,.79,2.57,2.63,2.63,0,0,0,2.11.87,6.74,6.74,0,0,0,2.84-.64v1.29a7.36,7.36,0,0,1-1.35.48A7.56,7.56,0,0,1,423.1,47.78Zm-.36-8.72a2.14,2.14,0,0,0-1.71.75,3.62,3.62,0,0,0-.74,2.08h4.63a3.37,3.37,0,0,0-.56-2.1A1.93,1.93,0,0,0,422.74,39.06Z"/><path class="cls-1" d="M434.73,47.61V41.4a2.65,2.65,0,0,0-.49-1.75,2,2,0,0,0-1.55-.57,2.45,2.45,0,0,0-2,.81,4.37,4.37,0,0,0-.65,2.69v5h-1.34V38h1.09l.22,1.31H430a2.93,2.93,0,0,1,1.16-1.1,3.53,3.53,0,0,1,1.66-.39,3.19,3.19,0,0,1,2.41.84,3.72,3.72,0,0,1,.81,2.67v6.26Z"/><path class="cls-1" d="M442.38,47.78a3.63,3.63,0,0,1-3-1.28,5.51,5.51,0,0,1-1.06-3.63,5.78,5.78,0,0,1,1.07-3.72,3.75,3.75,0,0,1,3.06-1.31,5.59,5.59,0,0,1,1.28.15,4.07,4.07,0,0,1,1,.35l-.41,1.23a6.49,6.49,0,0,0-1-.31,3.76,3.76,0,0,0-.93-.13c-1.8,0-2.71,1.24-2.71,3.73a4.72,4.72,0,0,0,.66,2.71,2.24,2.24,0,0,0,2,.94,5.6,5.6,0,0,0,2.27-.51v1.28A4.45,4.45,0,0,1,442.38,47.78Z"/><path class="cls-1" d="M454.39,42.8a5.58,5.58,0,0,1-1.09,3.67,3.74,3.74,0,0,1-3,1.31,3.81,3.81,0,0,1-2.12-.6,3.89,3.89,0,0,1-1.42-1.73,6.43,6.43,0,0,1-.5-2.65,5.57,5.57,0,0,1,1.08-3.65,3.7,3.7,0,0,1,3-1.31,3.62,3.62,0,0,1,3,1.34A5.55,5.55,0,0,1,454.39,42.8Zm-6.76,0a4.84,4.84,0,0,0,.68,2.8,2.56,2.56,0,0,0,4,0A4.8,4.8,0,0,0,453,42.8a4.66,4.66,0,0,0-.69-2.77,2.61,2.61,0,0,0-4,0A4.79,4.79,0,0,0,447.63,42.8Z"/><path class="cls-1" d="M462.82,47.61V41.4a2.71,2.71,0,0,0-.49-1.75,2,2,0,0,0-1.55-.57,2.45,2.45,0,0,0-2,.81,4.37,4.37,0,0,0-.65,2.69v5h-1.34V38h1.09l.22,1.31h.06a2.86,2.86,0,0,1,1.16-1.1,3.53,3.53,0,0,1,1.66-.39,3.19,3.19,0,0,1,2.41.84,3.72,3.72,0,0,1,.81,2.67v6.26Z"/><path class="cls-1" d="M469.79,46.58a5.09,5.09,0,0,0,.69,0,4.15,4.15,0,0,0,.52-.12v1.11a2.14,2.14,0,0,1-.64.19,4.38,4.38,0,0,1-.76.07c-1.72,0-2.58-1-2.58-2.93v-5.7h-1.27v-.7l1.27-.61.57-2h.78V38h2.57v1.13h-2.57v5.64a2,2,0,0,0,.38,1.33A1.26,1.26,0,0,0,469.79,46.58Z"/><path class="cls-1" d="M476.83,37.84a4.93,4.93,0,0,1,1.06.11l-.19,1.34a4.73,4.73,0,0,0-1-.13,2.3,2.3,0,0,0-1.84,1,3.61,3.61,0,0,0-.77,2.35v5.15h-1.34V38h1.11l.15,1.77h.07a4.11,4.11,0,0,1,1.19-1.44A2.51,2.51,0,0,1,476.83,37.84Z"/><path class="cls-1" d="M485,47.61l-.26-1.37h-.07a3.77,3.77,0,0,1-1.32,1.22,3.68,3.68,0,0,1-1.65.32,2.83,2.83,0,0,1-2.07-.73,2.8,2.8,0,0,1-.75-2.09c0-1.94,1.44-3,4.3-3.05l1.51,0v-.6a2.55,2.55,0,0,0-.45-1.66,1.77,1.77,0,0,0-1.44-.54,5.52,5.52,0,0,0-2.51.73l-.41-1.11a6.15,6.15,0,0,1,1.44-.6,5.6,5.6,0,0,1,1.56-.22,3.22,3.22,0,0,1,2.36.76,3.33,3.33,0,0,1,.76,2.44v6.55Zm-3-1a2.6,2.6,0,0,0,2-.74,2.87,2.87,0,0,0,.72-2.08v-.87l-1.35.06a4.54,4.54,0,0,0-2.31.54,1.67,1.67,0,0,0-.71,1.48,1.56,1.56,0,0,0,.44,1.2A1.74,1.74,0,0,0,482,46.58Z"/><path class="cls-1" d="M494.81,46.32h-.07A3.08,3.08,0,0,1,492,47.78a3.22,3.22,0,0,1-2.71-1.28,6,6,0,0,1-1-3.66,6.11,6.11,0,0,1,1-3.69,3.19,3.19,0,0,1,2.7-1.31,3.13,3.13,0,0,1,2.77,1.42h.11l-.06-.69,0-.67V34h1.34V47.61H495Zm-2.69.25a2.36,2.36,0,0,0,2-.81,4.36,4.36,0,0,0,.62-2.61v-.31a5.1,5.1,0,0,0-.63-2.91,2.31,2.31,0,0,0-2-.87,2,2,0,0,0-1.81,1,5.25,5.25,0,0,0-.63,2.81,5.07,5.07,0,0,0,.62,2.77A2.08,2.08,0,0,0,492.12,46.57Z"/><path class="cls-1" d="M506.59,42.8a5.58,5.58,0,0,1-1.09,3.67,4.09,4.09,0,0,1-5.13.71,3.91,3.91,0,0,1-1.43-1.73,6.59,6.59,0,0,1-.5-2.65,5.57,5.57,0,0,1,1.08-3.65,3.72,3.72,0,0,1,3-1.31,3.65,3.65,0,0,1,3,1.34A5.54,5.54,0,0,1,506.59,42.8Zm-6.76,0a4.84,4.84,0,0,0,.68,2.8,2.56,2.56,0,0,0,4,0,4.8,4.8,0,0,0,.69-2.81,4.66,4.66,0,0,0-.69-2.77,2.29,2.29,0,0,0-2-1,2.32,2.32,0,0,0-2,.93A4.79,4.79,0,0,0,499.83,42.8Z"/><path class="cls-1" d="M514.67,45a2.48,2.48,0,0,1-.92,2.07,4.13,4.13,0,0,1-2.59.72,5.27,5.27,0,0,1-2.75-.6V45.83a6.13,6.13,0,0,0,1.37.55,5.1,5.1,0,0,0,1.41.2,3,3,0,0,0,1.62-.36,1.22,1.22,0,0,0,.57-1.11,1.25,1.25,0,0,0-.45-1,7.44,7.44,0,0,0-1.76-.94,9.15,9.15,0,0,1-1.76-.87,2.54,2.54,0,0,1-.77-.84,2.33,2.33,0,0,1-.26-1.13,2.23,2.23,0,0,1,.88-1.85,3.92,3.92,0,0,1,2.43-.68,6.67,6.67,0,0,1,2.8.63L514,39.65a6.13,6.13,0,0,0-2.42-.59,2.65,2.65,0,0,0-1.44.32,1,1,0,0,0-.49.89,1.16,1.16,0,0,0,.18.66,1.93,1.93,0,0,0,.59.52,13.61,13.61,0,0,0,1.55.71,5.63,5.63,0,0,1,2.14,1.25A2.31,2.31,0,0,1,514.67,45Z"/><path class="cls-1" d="M380.69,76.49a2.49,2.49,0,0,1-.92,2.07,4.13,4.13,0,0,1-2.59.72,5.33,5.33,0,0,1-2.76-.6V77.33a6.44,6.44,0,0,0,1.38.56,5.39,5.39,0,0,0,1.41.2,2.94,2.94,0,0,0,1.62-.37,1.32,1.32,0,0,0,.12-2.06,6.76,6.76,0,0,0-1.76-.94,9.15,9.15,0,0,1-1.76-.87,2.49,2.49,0,0,1-.78-.85,2.33,2.33,0,0,1-.25-1.13,2.21,2.21,0,0,1,.88-1.85,3.91,3.91,0,0,1,2.42-.67,6.6,6.6,0,0,1,2.8.63L380,71.16a6,6,0,0,0-2.42-.6,2.61,2.61,0,0,0-1.45.33,1,1,0,0,0-.48.89,1.15,1.15,0,0,0,.18.65,1.81,1.81,0,0,0,.59.52,13.61,13.61,0,0,0,1.55.71,5.71,5.71,0,0,1,2.14,1.25A2.31,2.31,0,0,1,380.69,76.49Z"/><path class="cls-1" d="M382.76,66.92a1,1,0,0,1,.23-.73.8.8,0,0,1,1.13,0,1,1,0,0,1,.23.72,1,1,0,0,1-.23.73.77.77,0,0,1-.56.24.75.75,0,0,1-.57-.24A1,1,0,0,1,382.76,66.92Zm1.46,12.19h-1.34V69.52h1.34Z"/><path class="cls-1" d="M389.94,78.09a3.82,3.82,0,0,0,.68-.06,4.38,4.38,0,0,0,.53-.12V79a2.14,2.14,0,0,1-.64.19,4.48,4.48,0,0,1-.77.07c-1.71,0-2.57-1-2.57-2.93v-5.7H385.9V70l1.27-.6.56-2h.78v2.22h2.58v1.13h-2.58v5.64a2.07,2.07,0,0,0,.38,1.33A1.29,1.29,0,0,0,389.94,78.09Z"/><path class="cls-1" d="M392.81,66.92a1,1,0,0,1,.23-.73.78.78,0,0,1,.57-.23.74.74,0,0,1,.55.24,1,1,0,0,1,.24.72,1,1,0,0,1-.24.73.74.74,0,0,1-.55.24.75.75,0,0,1-.57-.24A1,1,0,0,1,392.81,66.92Zm1.46,12.19h-1.35V69.52h1.35Z"/><path class="cls-1" d="M404.78,74.31A5.57,5.57,0,0,1,403.69,78a3.71,3.71,0,0,1-3,1.31,3.81,3.81,0,0,1-2.12-.6A3.89,3.89,0,0,1,397.13,77a6.34,6.34,0,0,1-.51-2.64,5.61,5.61,0,0,1,1.09-3.66,3.7,3.7,0,0,1,3-1.3,3.63,3.63,0,0,1,3,1.33A5.58,5.58,0,0,1,404.78,74.31Zm-6.76,0a4.88,4.88,0,0,0,.68,2.8,2.56,2.56,0,0,0,4,0,4.76,4.76,0,0,0,.69-2.8,4.69,4.69,0,0,0-.69-2.78,2.33,2.33,0,0,0-2-1,2.28,2.28,0,0,0-2,.94A4.75,4.75,0,0,0,398,74.31Z"/><path class="cls-1" d="M412.86,76.49a2.49,2.49,0,0,1-.92,2.07,4.13,4.13,0,0,1-2.59.72,5.33,5.33,0,0,1-2.76-.6V77.33a6.57,6.57,0,0,0,1.37.56,5.52,5.52,0,0,0,1.42.2,2.94,2.94,0,0,0,1.62-.37,1.32,1.32,0,0,0,.12-2.06,6.76,6.76,0,0,0-1.76-.94,9.15,9.15,0,0,1-1.76-.87,2.49,2.49,0,0,1-.78-.85,2.33,2.33,0,0,1-.25-1.13,2.21,2.21,0,0,1,.88-1.85,3.91,3.91,0,0,1,2.42-.67,6.6,6.6,0,0,1,2.8.63l-.47,1.18a6,6,0,0,0-2.42-.6,2.61,2.61,0,0,0-1.45.33,1,1,0,0,0-.48.89,1.15,1.15,0,0,0,.18.65,1.81,1.81,0,0,0,.59.52,13.61,13.61,0,0,0,1.55.71,5.71,5.71,0,0,1,2.14,1.25A2.35,2.35,0,0,1,412.86,76.49Z"/><path class="cls-1" d="M425.39,77.82h-.07a3.07,3.07,0,0,1-2.78,1.46A3.18,3.18,0,0,1,419.83,78a6,6,0,0,1-1-3.66,6.06,6.06,0,0,1,1-3.68,3.43,3.43,0,0,1,5.47.1h.11l-.06-.69,0-.67V65.5h1.35V79.11h-1.1Zm-2.68.25a2.35,2.35,0,0,0,2-.81,4.36,4.36,0,0,0,.62-2.61v-.31a5.1,5.1,0,0,0-.63-2.91,2.28,2.28,0,0,0-2-.87,2,2,0,0,0-1.81,1,5.27,5.27,0,0,0-.63,2.81,5,5,0,0,0,.63,2.77A2,2,0,0,0,422.71,78.07Z"/><path class="cls-1" d="M433.26,79.28a3.92,3.92,0,0,1-3.1-1.29,5.25,5.25,0,0,1-1.14-3.6,5.83,5.83,0,0,1,1.06-3.68,3.39,3.39,0,0,1,2.84-1.36,3.24,3.24,0,0,1,2.64,1.18,4.82,4.82,0,0,1,1,3.13v.92h-6.12a4,4,0,0,0,.79,2.56,2.65,2.65,0,0,0,2.11.88,6.76,6.76,0,0,0,2.84-.65v1.29a6.68,6.68,0,0,1-1.35.48A6.85,6.85,0,0,1,433.26,79.28Zm-.36-8.72a2.11,2.11,0,0,0-1.7.75,3.58,3.58,0,0,0-.75,2.09h4.64a3.38,3.38,0,0,0-.57-2.11A2,2,0,0,0,432.9,70.56Z"/><path class="cls-1" d="M444.54,76.49a2.47,2.47,0,0,1-.92,2.07,4.13,4.13,0,0,1-2.59.72,5.27,5.27,0,0,1-2.75-.6V77.33a6.15,6.15,0,0,0,1.37.56,5.51,5.51,0,0,0,1.41.2,2.94,2.94,0,0,0,1.62-.37,1.3,1.3,0,0,0,.12-2.06,6.65,6.65,0,0,0-1.75-.94,9,9,0,0,1-1.77-.87,2.56,2.56,0,0,1-.77-.85,2.33,2.33,0,0,1-.26-1.13,2.24,2.24,0,0,1,.88-1.85,3.92,3.92,0,0,1,2.43-.67,6.64,6.64,0,0,1,2.8.63l-.48,1.18a6,6,0,0,0-2.42-.6,2.55,2.55,0,0,0-1.44.33,1,1,0,0,0-.49.89,1.15,1.15,0,0,0,.18.65,1.81,1.81,0,0,0,.59.52,13.18,13.18,0,0,0,1.56.71A5.65,5.65,0,0,1,444,74.91,2.31,2.31,0,0,1,444.54,76.49Z"/><path class="cls-1" d="M449.6,78.09a3.82,3.82,0,0,0,.68-.06,4.38,4.38,0,0,0,.53-.12V79a2.14,2.14,0,0,1-.64.19,4.48,4.48,0,0,1-.77.07c-1.72,0-2.57-1-2.57-2.93v-5.7h-1.27V70l1.27-.6.56-2h.78v2.22h2.58v1.13h-2.58v5.64a2.07,2.07,0,0,0,.38,1.33A1.28,1.28,0,0,0,449.6,78.09Z"/><path class="cls-1" d="M456.63,69.35a4.83,4.83,0,0,1,1.06.1l-.18,1.35a4.12,4.12,0,0,0-1-.13,2.31,2.31,0,0,0-1.85.94,3.63,3.63,0,0,0-.76,2.36v5.14h-1.35V69.52h1.11l.16,1.78h.06a4.16,4.16,0,0,1,1.19-1.45A2.55,2.55,0,0,1,456.63,69.35Z"/><path class="cls-1" d="M460.62,69.52v6.22a2.63,2.63,0,0,0,.49,1.75,1.91,1.91,0,0,0,1.55.58,2.45,2.45,0,0,0,2-.82,4.41,4.41,0,0,0,.65-2.69v-5h1.34v9.59h-1.11l-.19-1.29h-.08a2.67,2.67,0,0,1-1.14,1.09,3.63,3.63,0,0,1-1.67.37,3.23,3.23,0,0,1-2.43-.83,3.7,3.7,0,0,1-.8-2.66V69.52Z"/><path class="cls-1" d="M469.42,66.92a1,1,0,0,1,.22-.73.78.78,0,0,1,.57-.23.76.76,0,0,1,.56.24,1,1,0,0,1,.23.72,1,1,0,0,1-.23.73.76.76,0,0,1-.56.24.75.75,0,0,1-.57-.24A1,1,0,0,1,469.42,66.92Zm1.46,12.19h-1.35V69.52h1.35Z"/><path class="cls-1" d="M479.77,77.82h-.08a3.07,3.07,0,0,1-2.78,1.46A3.18,3.18,0,0,1,474.2,78a6,6,0,0,1-1-3.66,6.06,6.06,0,0,1,1-3.68,3.44,3.44,0,0,1,5.48.1h.1l0-.69,0-.67V65.5H481V79.11h-1.1Zm-2.69.25a2.33,2.33,0,0,0,2-.81,4.29,4.29,0,0,0,.62-2.61v-.31a5.2,5.2,0,0,0-.62-2.91,2.31,2.31,0,0,0-2-.87,2,2,0,0,0-1.81,1,5.27,5.27,0,0,0-.63,2.81,5,5,0,0,0,.63,2.77A2,2,0,0,0,477.08,78.07Z"/><path class="cls-1" d="M491.55,74.31a5.57,5.57,0,0,1-1.1,3.66,3.68,3.68,0,0,1-3,1.31,3.8,3.8,0,0,1-2.11-.6A3.89,3.89,0,0,1,483.9,77a6.34,6.34,0,0,1-.51-2.64,5.55,5.55,0,0,1,1.09-3.66,3.7,3.7,0,0,1,3-1.3,3.63,3.63,0,0,1,3,1.33A5.58,5.58,0,0,1,491.55,74.31Zm-6.76,0a4.81,4.81,0,0,0,.68,2.8,2.56,2.56,0,0,0,4,0,4.76,4.76,0,0,0,.68-2.8,4.7,4.7,0,0,0-.68-2.78,2.34,2.34,0,0,0-2-1,2.28,2.28,0,0,0-2,.94A4.75,4.75,0,0,0,484.79,74.31Z"/><path class="cls-1" d="M499.63,76.49a2.49,2.49,0,0,1-.92,2.07,4.14,4.14,0,0,1-2.6.72,5.32,5.32,0,0,1-2.75-.6V77.33a6.57,6.57,0,0,0,1.37.56,5.52,5.52,0,0,0,1.42.2,2.94,2.94,0,0,0,1.62-.37,1.31,1.31,0,0,0,.11-2.06,6.65,6.65,0,0,0-1.75-.94,8.85,8.85,0,0,1-1.76-.87,2.49,2.49,0,0,1-.78-.85,2.33,2.33,0,0,1-.25-1.13,2.21,2.21,0,0,1,.88-1.85,3.89,3.89,0,0,1,2.42-.67,6.6,6.6,0,0,1,2.8.63L499,71.16a6,6,0,0,0-2.42-.6,2.6,2.6,0,0,0-1.44.33,1,1,0,0,0-.48.89,1.15,1.15,0,0,0,.18.65,1.87,1.87,0,0,0,.58.52,14,14,0,0,0,1.56.71,5.65,5.65,0,0,1,2.13,1.25A2.31,2.31,0,0,1,499.63,76.49Z"/><polygon class="cls-2" points="355.81 35.39 355.13 41.7 364.68 47.84 363.97 40.23 355.81 35.39"/><polygon class="cls-1" points="367.23 71.3 361.55 68.46 352.47 75.27 359.85 77.26 367.23 71.3"/></g></svg>