<svg xmlns="http://www.w3.org/2000/svg" viewBox="0 0 586.03 354.71"><defs><style>.cls-1,.cls-10,.cls-2,.cls-3,.cls-4,.cls-7,.cls-8,.cls-9{fill:none;stroke-miterlimit:10;}.cls-1,.cls-8{stroke:#61637b;}.cls-1,.cls-2,.cls-3,.cls-4{stroke-width:40px;}.cls-10,.cls-2{stroke:#8a8593;}.cls-3,.cls-9{stroke:#0f1d4d;}.cls-4,.cls-7{stroke:#384064;}.cls-5{fill:#0f1d4d;}.cls-6{fill:#dccbc1;}.cls-10,.cls-7,.cls-8,.cls-9{stroke-width:2px;}.cls-11{fill:#384064;}.cls-12{fill:#61637b;}.cls-13{fill:#8a8593;}.cls-14{fill:#101d4d;}</style></defs><g id="Capa_1" data-name="Capa 1"><path class="cls-1" d="M392,251.06A130,130,0,1,1,287.53,43.62"/><path class="cls-2" d="M413.77,204.8A129.38,129.38,0,0,1,392,251.06"/><path class="cls-3" d="M416.06,193.27q-.88,5.85-2.29,11.53"/><path class="cls-4" d="M287.53,43.62A130.14,130.14,0,0,1,416.06,193.27"/><path class="cls-5" d="M58.87,328.36l-4-11.34h-.06c.07.89.11,2,.11,3.2v8.14H53.63v-12.8H55.7l3.75,10.56h.07l3.78-10.56h2.06v12.8H64v-8.25c0-.94,0-2,.11-3.08H64L60,328.36Z"/><path class="cls-5" d="M76.06,323.55A5.53,5.53,0,0,1,75,327.21a3.72,3.72,0,0,1-3,1.32,3.81,3.81,0,0,1-2.12-.6,3.92,3.92,0,0,1-1.42-1.74,6.35,6.35,0,0,1-.5-2.64A5.57,5.57,0,0,1,69,319.9a3.7,3.7,0,0,1,3-1.31,3.64,3.64,0,0,1,3,1.34A5.55,5.55,0,0,1,76.06,323.55Zm-6.76,0a4.84,4.84,0,0,0,.68,2.8,2.57,2.57,0,0,0,4,0,4.8,4.8,0,0,0,.69-2.81,4.71,4.71,0,0,0-.69-2.78,2.33,2.33,0,0,0-2-.95,2.31,2.31,0,0,0-2,.94A4.77,4.77,0,0,0,69.3,323.55Z"/><path class="cls-5" d="M84.49,328.36v-6.21A2.71,2.71,0,0,0,84,320.4a2,2,0,0,0-1.55-.58,2.46,2.46,0,0,0-2,.82,4.36,4.36,0,0,0-.65,2.68v5H78.42v-9.59h1.09l.22,1.31h.06A2.86,2.86,0,0,1,81,319a3.53,3.53,0,0,1,1.66-.39,3.19,3.19,0,0,1,2.41.84,3.72,3.72,0,0,1,.81,2.67v6.26Z"/><path class="cls-5" d="M89.86,318.77V325a2.65,2.65,0,0,0,.49,1.75,2,2,0,0,0,1.55.57,2.41,2.41,0,0,0,2-.82,4.38,4.38,0,0,0,.65-2.68v-5h1.34v9.59H94.81l-.19-1.29h-.07a2.78,2.78,0,0,1-1.15,1.08,3.51,3.51,0,0,1-1.67.38,3.27,3.27,0,0,1-2.43-.83,3.74,3.74,0,0,1-.8-2.66v-6.27Z"/><path class="cls-5" d="M110.08,328.36v-6.24a2.74,2.74,0,0,0-.45-1.72,1.69,1.69,0,0,0-1.41-.58,2.18,2.18,0,0,0-1.85.78,3.92,3.92,0,0,0-.6,2.4v5.36h-1.35v-6.24a2.74,2.74,0,0,0-.45-1.72,1.7,1.7,0,0,0-1.42-.58,2.14,2.14,0,0,0-1.85.82,4.73,4.73,0,0,0-.58,2.68v5H98.77v-9.59h1.1l.21,1.31h.07a2.76,2.76,0,0,1,1.07-1.1,3.1,3.1,0,0,1,1.55-.39,2.6,2.6,0,0,1,2.72,1.63h.07a2.93,2.93,0,0,1,1.15-1.19,3.35,3.35,0,0,1,1.71-.44,2.87,2.87,0,0,1,2.26.84,3.92,3.92,0,0,1,.75,2.67v6.26Z"/><path class="cls-5" d="M118,328.53a3.93,3.93,0,0,1-3.11-1.29,5.29,5.29,0,0,1-1.14-3.6,5.81,5.81,0,0,1,1.06-3.68,3.4,3.4,0,0,1,2.84-1.37,3.24,3.24,0,0,1,2.64,1.19,4.81,4.81,0,0,1,1,3.12v.92H115.1a4,4,0,0,0,.78,2.57,2.64,2.64,0,0,0,2.11.87,6.61,6.61,0,0,0,2.84-.65v1.3a7.36,7.36,0,0,1-1.35.48A7.46,7.46,0,0,1,118,328.53Zm-.37-8.72a2.11,2.11,0,0,0-1.7.75,3.55,3.55,0,0,0-.75,2.08h4.64a3.35,3.35,0,0,0-.57-2.1A1.93,1.93,0,0,0,117.58,319.81Z"/><path class="cls-5" d="M129.57,328.36v-6.21a2.65,2.65,0,0,0-.49-1.75,2,2,0,0,0-1.55-.58,2.46,2.46,0,0,0-2,.82,4.36,4.36,0,0,0-.65,2.68v5H123.5v-9.59h1.09l.22,1.31h.07A2.8,2.8,0,0,1,126,319a3.46,3.46,0,0,1,1.65-.39,3.22,3.22,0,0,1,2.42.84,3.72,3.72,0,0,1,.81,2.67v6.26Z"/><path class="cls-5" d="M136.54,327.33a3.85,3.85,0,0,0,.69-.06,3.43,3.43,0,0,0,.53-.11v1.11a2.61,2.61,0,0,1-.64.19,4.48,4.48,0,0,1-.77.07c-1.72,0-2.57-1-2.57-2.93v-5.71H132.5v-.7l1.28-.6.56-2h.78v2.23h2.57v1.12h-2.57v5.65a2.07,2.07,0,0,0,.38,1.33A1.26,1.26,0,0,0,136.54,327.33Z"/><path class="cls-5" d="M147.19,323.55a5.53,5.53,0,0,1-1.09,3.66,3.72,3.72,0,0,1-3,1.32,3.78,3.78,0,0,1-2.11-.6,3.93,3.93,0,0,1-1.43-1.74,6.51,6.51,0,0,1-.5-2.64,5.57,5.57,0,0,1,1.08-3.65,3.72,3.72,0,0,1,3-1.31,3.65,3.65,0,0,1,3,1.34A5.54,5.54,0,0,1,147.19,323.55Zm-6.76,0a4.84,4.84,0,0,0,.68,2.8,2.58,2.58,0,0,0,4,0,4.88,4.88,0,0,0,.68-2.81,4.79,4.79,0,0,0-.68-2.78,2.34,2.34,0,0,0-2-.95,2.31,2.31,0,0,0-2,.94A4.84,4.84,0,0,0,140.43,323.55Z"/><path class="cls-5" d="M155.27,325.74a2.45,2.45,0,0,1-.92,2.06,4.05,4.05,0,0,1-2.59.73,5.29,5.29,0,0,1-2.75-.6v-1.35a6.13,6.13,0,0,0,1.37.55,5.51,5.51,0,0,0,1.41.2,3,3,0,0,0,1.62-.36,1.22,1.22,0,0,0,.57-1.11,1.25,1.25,0,0,0-.45-1,7.53,7.53,0,0,0-1.75-.94,9,9,0,0,1-1.77-.87,2.64,2.64,0,0,1-.77-.84,2.36,2.36,0,0,1-.26-1.13,2.21,2.21,0,0,1,.89-1.85,3.87,3.87,0,0,1,2.42-.68,6.67,6.67,0,0,1,2.8.63l-.48,1.18a6.13,6.13,0,0,0-2.42-.59,2.65,2.65,0,0,0-1.44.32,1,1,0,0,0-.49.89,1.16,1.16,0,0,0,.18.66,2.06,2.06,0,0,0,.59.52,12,12,0,0,0,1.56.7,5.78,5.78,0,0,1,2.13,1.26A2.29,2.29,0,0,1,155.27,325.74Z"/><path class="cls-5" d="M17.81,349.86v-6.2a2.61,2.61,0,0,0-.5-1.75,1.89,1.89,0,0,0-1.54-.58,2.44,2.44,0,0,0-2,.82,4.42,4.42,0,0,0-.64,2.69v5H11.74V336.24h1.34v4.13A8.51,8.51,0,0,1,13,341.6h.09a2.83,2.83,0,0,1,1.13-1.09,3.36,3.36,0,0,1,1.67-.4,3.25,3.25,0,0,1,2.44.84,3.69,3.69,0,0,1,.81,2.65v6.26Z"/><path class="cls-5" d="M21.8,337.67a1,1,0,0,1,.23-.73.8.8,0,0,1,1.12,0,1.23,1.23,0,0,1,0,1.46.77.77,0,0,1-1.12,0A1,1,0,0,1,21.8,337.67Zm1.46,12.19H21.91v-9.59h1.35Z"/><path class="cls-5" d="M31.83,347.24a2.51,2.51,0,0,1-.92,2.07,4.13,4.13,0,0,1-2.59.72,5.27,5.27,0,0,1-2.75-.6v-1.35a5.69,5.69,0,0,0,1.37.55,5.1,5.1,0,0,0,1.41.2,3,3,0,0,0,1.62-.36,1.3,1.3,0,0,0,.12-2.06,6.76,6.76,0,0,0-1.76-.94,10.51,10.51,0,0,1-1.76-.87,2.56,2.56,0,0,1-.77-.85,2.33,2.33,0,0,1-.26-1.13,2.2,2.2,0,0,1,.88-1.85,3.91,3.91,0,0,1,2.42-.68,6.68,6.68,0,0,1,2.81.63l-.48,1.19a6,6,0,0,0-2.42-.6,2.65,2.65,0,0,0-1.44.32,1,1,0,0,0-.49.9,1.15,1.15,0,0,0,.18.65,1.81,1.81,0,0,0,.59.52,13.61,13.61,0,0,0,1.55.71,5.63,5.63,0,0,1,2.14,1.25A2.31,2.31,0,0,1,31.83,347.24Z"/><path class="cls-5" d="M36.88,348.83a3.87,3.87,0,0,0,.69-.05,4.88,4.88,0,0,0,.53-.12v1.11a2.23,2.23,0,0,1-.64.19,4.48,4.48,0,0,1-.77.07c-1.72,0-2.57-1-2.57-2.93v-5.7H32.84v-.7l1.28-.61.56-2h.78v2.22H38v1.13H35.46V347a2.07,2.07,0,0,0,.38,1.33A1.26,1.26,0,0,0,36.88,348.83Z"/><path class="cls-5" d="M47.53,345.05a5.58,5.58,0,0,1-1.09,3.67,4.09,4.09,0,0,1-5.13.71,3.91,3.91,0,0,1-1.43-1.73,6.59,6.59,0,0,1-.5-2.65,5.57,5.57,0,0,1,1.08-3.65,3.72,3.72,0,0,1,3-1.31,3.65,3.65,0,0,1,3,1.34A5.56,5.56,0,0,1,47.53,345.05Zm-6.76,0a4.84,4.84,0,0,0,.68,2.8,2.29,2.29,0,0,0,2,1,2.32,2.32,0,0,0,2-1,4.85,4.85,0,0,0,.68-2.81,4.76,4.76,0,0,0-.68-2.77,2.62,2.62,0,0,0-4,0A4.87,4.87,0,0,0,40.77,345.05Zm1.56-6.27c.26-.36.54-.8.84-1.31s.53-1,.7-1.34h1.64v.18a12.57,12.57,0,0,1-1.06,1.4A12.32,12.32,0,0,1,43.23,339h-.9Z"/><path class="cls-5" d="M53.94,340.09a4.86,4.86,0,0,1,1.06.11l-.19,1.35a4.06,4.06,0,0,0-1-.13,2.29,2.29,0,0,0-1.84.94,3.61,3.61,0,0,0-.77,2.35v5.15H49.89v-9.59H51l.15,1.77h.07a4.11,4.11,0,0,1,1.19-1.44A2.51,2.51,0,0,1,53.94,340.09Z"/><path class="cls-5" d="M56.54,337.67a1,1,0,0,1,.23-.73.78.78,0,0,1,.57-.23.8.8,0,0,1,.56.23,1.27,1.27,0,0,1,0,1.46.77.77,0,0,1-.56.24.75.75,0,0,1-.57-.24A1,1,0,0,1,56.54,337.67ZM58,349.86H56.66v-9.59H58Z"/><path class="cls-5" d="M64.4,350a3.61,3.61,0,0,1-3-1.28,5.51,5.51,0,0,1-1.06-3.63,5.73,5.73,0,0,1,1.07-3.71,3.73,3.73,0,0,1,3.06-1.32,5.59,5.59,0,0,1,1.28.15,4.22,4.22,0,0,1,1,.35l-.41,1.24a5.52,5.52,0,0,0-1-.32,3.76,3.76,0,0,0-.93-.13q-2.71,0-2.71,3.73a4.7,4.7,0,0,0,.66,2.71,2.23,2.23,0,0,0,2,.94,5.6,5.6,0,0,0,2.27-.51v1.28A4.45,4.45,0,0,1,64.4,350Z"/><path class="cls-5" d="M76.41,345.05a5.58,5.58,0,0,1-1.1,3.67,3.72,3.72,0,0,1-3,1.31,3.8,3.8,0,0,1-2.11-.6,3.89,3.89,0,0,1-1.42-1.73,6.43,6.43,0,0,1-.51-2.65,5.58,5.58,0,0,1,1.09-3.65,3.7,3.7,0,0,1,3-1.31,3.64,3.64,0,0,1,3,1.34A5.57,5.57,0,0,1,76.41,345.05Zm-6.76,0a4.76,4.76,0,0,0,.68,2.8,2.27,2.27,0,0,0,2,1,2.3,2.3,0,0,0,2-1,4.78,4.78,0,0,0,.68-2.81,4.68,4.68,0,0,0-.68-2.77,2.61,2.61,0,0,0-4,0A4.79,4.79,0,0,0,69.65,345.05Z"/><path class="cls-5" d="M84.49,347.24a2.51,2.51,0,0,1-.92,2.07A4.14,4.14,0,0,1,81,350a5.32,5.32,0,0,1-2.75-.6v-1.35a6,6,0,0,0,1.37.55,5.12,5.12,0,0,0,1.42.2,3,3,0,0,0,1.62-.36,1.31,1.31,0,0,0,.11-2.06,6.65,6.65,0,0,0-1.75-.94,10.51,10.51,0,0,1-1.76-.87,2.49,2.49,0,0,1-.78-.85,2.33,2.33,0,0,1-.25-1.13,2.2,2.2,0,0,1,.88-1.85,3.91,3.91,0,0,1,2.42-.68,6.6,6.6,0,0,1,2.8.63l-.48,1.19a6,6,0,0,0-2.42-.6,2.7,2.7,0,0,0-1.44.32,1,1,0,0,0-.48.9,1.15,1.15,0,0,0,.18.65,1.81,1.81,0,0,0,.59.52,12.8,12.8,0,0,0,1.55.71,5.65,5.65,0,0,1,2.13,1.25A2.31,2.31,0,0,1,84.49,347.24Z"/><path class="cls-5" d="M102.29,349.86v-6.24a2.76,2.76,0,0,0-.45-1.72,1.69,1.69,0,0,0-1.41-.57,2.19,2.19,0,0,0-1.85.78,3.89,3.89,0,0,0-.6,2.39v5.36H96.63v-6.24a2.76,2.76,0,0,0-.45-1.72,1.69,1.69,0,0,0-1.42-.57,2.12,2.12,0,0,0-1.85.82,4.69,4.69,0,0,0-.58,2.68v5H91v-9.59h1.1l.21,1.31h.07a2.67,2.67,0,0,1,1.07-1.09,3.11,3.11,0,0,1,1.55-.4,2.61,2.61,0,0,1,2.72,1.63h.07a2.93,2.93,0,0,1,1.15-1.19,3.35,3.35,0,0,1,1.71-.44,2.87,2.87,0,0,1,2.26.84,3.94,3.94,0,0,1,.75,2.67v6.26Z"/><path class="cls-5" d="M107.67,340.27v6.22a2.59,2.59,0,0,0,.5,1.75,1.92,1.92,0,0,0,1.54.58,2.46,2.46,0,0,0,2-.82,4.42,4.42,0,0,0,.64-2.69v-5h1.35v9.59h-1.11l-.2-1.29h-.07a2.81,2.81,0,0,1-1.15,1.09,3.6,3.6,0,0,1-1.67.37,3.19,3.19,0,0,1-2.42-.83,3.7,3.7,0,0,1-.81-2.66v-6.27Z"/><path class="cls-5" d="M120.33,350a3.92,3.92,0,0,1-3.1-1.29,5.25,5.25,0,0,1-1.14-3.6,5.83,5.83,0,0,1,1.06-3.68,3.4,3.4,0,0,1,2.84-1.37,3.24,3.24,0,0,1,2.64,1.19,4.82,4.82,0,0,1,1,3.13v.92h-6.12a4,4,0,0,0,.79,2.56,2.64,2.64,0,0,0,2.11.87,6.74,6.74,0,0,0,2.84-.64v1.29a7.36,7.36,0,0,1-1.35.48A6.91,6.91,0,0,1,120.33,350Zm-.36-8.72a2.11,2.11,0,0,0-1.7.75,3.55,3.55,0,0,0-.75,2.08h4.64a3.37,3.37,0,0,0-.57-2.1A1.93,1.93,0,0,0,120,341.31Z"/><path class="cls-5" d="M130,340.11a3.22,3.22,0,0,1,2.72,1.29,7.44,7.44,0,0,1,0,7.33A3.2,3.2,0,0,1,130,350a3.55,3.55,0,0,1-1.58-.34,3.09,3.09,0,0,1-1.21-1.07h-.09l-.29,1.24h-1V336.24h1.34v3.31c0,.74,0,1.41-.06,2h.06A3.12,3.12,0,0,1,130,340.11Zm-.2,1.22a2.27,2.27,0,0,0-2,.85,5.16,5.16,0,0,0-.61,2.87,5.09,5.09,0,0,0,.63,2.9,2.28,2.28,0,0,0,2,.87,2,2,0,0,0,1.84-1,5.27,5.27,0,0,0,.61-2.8,5.06,5.06,0,0,0-.61-2.79A2.07,2.07,0,0,0,129.82,341.33Z"/><path class="cls-5" d="M137.4,349.86h-1.35V336.24h1.35Z"/><path class="cls-5" d="M144,350a3.92,3.92,0,0,1-3.1-1.29,5.25,5.25,0,0,1-1.14-3.6,5.83,5.83,0,0,1,1.06-3.68,3.4,3.4,0,0,1,2.84-1.37,3.24,3.24,0,0,1,2.64,1.19,4.82,4.82,0,0,1,1,3.13v.92h-6.12a4,4,0,0,0,.79,2.56,2.64,2.64,0,0,0,2.11.87,6.74,6.74,0,0,0,2.84-.64v1.29a7.36,7.36,0,0,1-1.35.48A6.91,6.91,0,0,1,144,350Zm-.36-8.72a2.11,2.11,0,0,0-1.7.75,3.55,3.55,0,0,0-.75,2.08h4.64a3.37,3.37,0,0,0-.57-2.1A1.93,1.93,0,0,0,143.63,341.31Z"/><path class="cls-5" d="M155.27,347.24a2.48,2.48,0,0,1-.92,2.07,4.11,4.11,0,0,1-2.59.72,5.29,5.29,0,0,1-2.75-.6v-1.35a5.69,5.69,0,0,0,1.37.55,5.1,5.1,0,0,0,1.41.2,3,3,0,0,0,1.62-.36,1.3,1.3,0,0,0,.12-2.06,6.83,6.83,0,0,0-1.75-.94,10.31,10.31,0,0,1-1.77-.87,2.56,2.56,0,0,1-.77-.85,2.33,2.33,0,0,1-.26-1.13,2.21,2.21,0,0,1,.89-1.85,3.87,3.87,0,0,1,2.42-.68,6.67,6.67,0,0,1,2.8.63l-.48,1.19a6,6,0,0,0-2.42-.6,2.65,2.65,0,0,0-1.44.32,1,1,0,0,0-.49.9,1.15,1.15,0,0,0,.18.65,1.92,1.92,0,0,0,.59.52,13.18,13.18,0,0,0,1.56.71,5.65,5.65,0,0,1,2.13,1.25A2.31,2.31,0,0,1,155.27,347.24Z"/><path class="cls-5" d="M58.87,15.36,54.85,4h-.06c.07.89.11,2,.11,3.2v8.14H53.63V2.56H55.7l3.75,10.56h.07L63.3,2.56h2.06v12.8H64V7.11c0-.94,0-2,.11-3.08H64L60,15.36Z"/><path class="cls-5" d="M76.06,10.55A5.53,5.53,0,0,1,75,14.21a3.72,3.72,0,0,1-3,1.32,3.81,3.81,0,0,1-2.12-.6,3.92,3.92,0,0,1-1.42-1.74,6.35,6.35,0,0,1-.5-2.64A5.57,5.57,0,0,1,69,6.9a3.7,3.7,0,0,1,3-1.31,3.64,3.64,0,0,1,3,1.34A5.55,5.55,0,0,1,76.06,10.55Zm-6.76,0a4.84,4.84,0,0,0,.68,2.8,2.57,2.57,0,0,0,4,0,4.8,4.8,0,0,0,.69-2.81A4.71,4.71,0,0,0,74,7.77a2.33,2.33,0,0,0-2-.95,2.31,2.31,0,0,0-2,.94A4.77,4.77,0,0,0,69.3,10.55Z"/><path class="cls-5" d="M84.49,15.36V9.15A2.71,2.71,0,0,0,84,7.4a2,2,0,0,0-1.55-.58,2.46,2.46,0,0,0-2,.82,4.36,4.36,0,0,0-.65,2.68v5H78.42V5.77h1.09l.22,1.31h.06A2.86,2.86,0,0,1,81,6a3.53,3.53,0,0,1,1.66-.39A3.19,3.19,0,0,1,85,6.43a3.72,3.72,0,0,1,.81,2.67v6.26Z"/><path class="cls-5" d="M89.86,5.77V12a2.65,2.65,0,0,0,.49,1.75,2,2,0,0,0,1.55.57,2.41,2.41,0,0,0,2-.82,4.38,4.38,0,0,0,.65-2.68v-5h1.34v9.59H94.81l-.19-1.29h-.07a2.78,2.78,0,0,1-1.15,1.08,3.51,3.51,0,0,1-1.67.38,3.27,3.27,0,0,1-2.43-.83A3.74,3.74,0,0,1,88.5,12V5.77Z"/><path class="cls-5" d="M110.08,15.36V9.12a2.74,2.74,0,0,0-.45-1.72,1.69,1.69,0,0,0-1.41-.58,2.18,2.18,0,0,0-1.85.78,3.92,3.92,0,0,0-.6,2.4v5.36h-1.35V9.12A2.74,2.74,0,0,0,104,7.4a1.7,1.7,0,0,0-1.42-.58,2.14,2.14,0,0,0-1.85.82,4.73,4.73,0,0,0-.58,2.68v5H98.77V5.77h1.1l.21,1.31h.07A2.76,2.76,0,0,1,101.22,6a3.1,3.1,0,0,1,1.55-.39,2.6,2.6,0,0,1,2.72,1.63h.07A2.93,2.93,0,0,1,106.71,6a3.35,3.35,0,0,1,1.71-.44,2.87,2.87,0,0,1,2.26.84,3.92,3.92,0,0,1,.75,2.67v6.26Z"/><path class="cls-5" d="M118,15.53a3.93,3.93,0,0,1-3.11-1.29,5.29,5.29,0,0,1-1.14-3.6A5.81,5.81,0,0,1,114.76,7a3.4,3.4,0,0,1,2.84-1.37,3.24,3.24,0,0,1,2.64,1.19,4.81,4.81,0,0,1,1,3.12v.92H115.1a4,4,0,0,0,.78,2.57,2.64,2.64,0,0,0,2.11.87,6.61,6.61,0,0,0,2.84-.65v1.3a7.36,7.36,0,0,1-1.35.48A7.46,7.46,0,0,1,118,15.53Zm-.37-8.72a2.11,2.11,0,0,0-1.7.75,3.55,3.55,0,0,0-.75,2.08h4.64a3.35,3.35,0,0,0-.57-2.1A1.93,1.93,0,0,0,117.58,6.81Z"/><path class="cls-5" d="M129.57,15.36V9.15a2.65,2.65,0,0,0-.49-1.75,2,2,0,0,0-1.55-.58,2.46,2.46,0,0,0-2,.82,4.36,4.36,0,0,0-.65,2.68v5H123.5V5.77h1.09l.22,1.31h.07A2.8,2.8,0,0,1,126,6a3.46,3.46,0,0,1,1.65-.39,3.22,3.22,0,0,1,2.42.84,3.72,3.72,0,0,1,.81,2.67v6.26Z"/><path class="cls-5" d="M136.54,14.33a3.85,3.85,0,0,0,.69-.06,3.43,3.43,0,0,0,.53-.11v1.11a2.61,2.61,0,0,1-.64.19,4.48,4.48,0,0,1-.77.07c-1.72,0-2.57-1-2.57-2.93V6.89H132.5v-.7l1.28-.6.56-2h.78V5.77h2.57V6.89h-2.57v5.65a2.07,2.07,0,0,0,.38,1.33A1.26,1.26,0,0,0,136.54,14.33Z"/><path class="cls-5" d="M147.19,10.55a5.53,5.53,0,0,1-1.09,3.66,3.72,3.72,0,0,1-3,1.32,3.78,3.78,0,0,1-2.11-.6,3.93,3.93,0,0,1-1.43-1.74,6.51,6.51,0,0,1-.5-2.64,5.57,5.57,0,0,1,1.08-3.65,3.72,3.72,0,0,1,3-1.31,3.65,3.65,0,0,1,3,1.34A5.54,5.54,0,0,1,147.19,10.55Zm-6.76,0a4.84,4.84,0,0,0,.68,2.8,2.58,2.58,0,0,0,4,0,4.88,4.88,0,0,0,.68-2.81,4.79,4.79,0,0,0-.68-2.78,2.34,2.34,0,0,0-2-.95,2.31,2.31,0,0,0-2,.94A4.84,4.84,0,0,0,140.43,10.55Z"/><path class="cls-5" d="M155.27,12.74a2.45,2.45,0,0,1-.92,2.06,4.05,4.05,0,0,1-2.59.73,5.29,5.29,0,0,1-2.75-.6V13.58a6.13,6.13,0,0,0,1.37.55,5.51,5.51,0,0,0,1.41.2,3,3,0,0,0,1.62-.36,1.22,1.22,0,0,0,.57-1.11,1.25,1.25,0,0,0-.45-1,7.53,7.53,0,0,0-1.75-.94,9,9,0,0,1-1.77-.87,2.64,2.64,0,0,1-.77-.84A2.36,2.36,0,0,1,149,8.12a2.21,2.21,0,0,1,.89-1.85,3.87,3.87,0,0,1,2.42-.68,6.67,6.67,0,0,1,2.8.63l-.48,1.18a6.13,6.13,0,0,0-2.42-.59,2.65,2.65,0,0,0-1.44.32,1,1,0,0,0-.49.89,1.16,1.16,0,0,0,.18.66,2.06,2.06,0,0,0,.59.52,12,12,0,0,0,1.56.7,5.78,5.78,0,0,1,2.13,1.26A2.29,2.29,0,0,1,155.27,12.74Z"/><path class="cls-5" d="M88.59,36.86v-6.2a2.61,2.61,0,0,0-.49-1.75,1.92,1.92,0,0,0-1.55-.58,2.43,2.43,0,0,0-2,.82,4.42,4.42,0,0,0-.64,2.69v5H82.52V23.24h1.35v4.13a10.23,10.23,0,0,1-.07,1.23h.08A2.89,2.89,0,0,1,85,27.51a3.41,3.41,0,0,1,1.67-.4,3.24,3.24,0,0,1,2.44.84,3.64,3.64,0,0,1,.82,2.65v6.26Z"/><path class="cls-5" d="M92.58,24.67a1,1,0,0,1,.23-.73.78.78,0,0,1,.57-.23.8.8,0,0,1,.56.23,1.27,1.27,0,0,1,0,1.46.77.77,0,0,1-.56.24.75.75,0,0,1-.57-.24A1,1,0,0,1,92.58,24.67ZM94,36.86H92.7V27.27H94Z"/><path class="cls-5" d="M102.62,34.24a2.49,2.49,0,0,1-.93,2.07A4.09,4.09,0,0,1,99.1,37a5.32,5.32,0,0,1-2.75-.6V35.08a5.86,5.86,0,0,0,1.37.55,5.12,5.12,0,0,0,1.42.2,3,3,0,0,0,1.61-.36,1.3,1.3,0,0,0,.12-2.06,6.65,6.65,0,0,0-1.75-.94,10.12,10.12,0,0,1-1.76-.87,2.49,2.49,0,0,1-.78-.85,2.33,2.33,0,0,1-.25-1.13,2.2,2.2,0,0,1,.88-1.85,3.89,3.89,0,0,1,2.42-.68,6.64,6.64,0,0,1,2.8.63L102,28.91a6,6,0,0,0-2.42-.6,2.7,2.7,0,0,0-1.44.32,1,1,0,0,0-.48.9,1.15,1.15,0,0,0,.18.65,1.71,1.71,0,0,0,.59.52,12.08,12.08,0,0,0,1.55.71,5.65,5.65,0,0,1,2.13,1.25A2.31,2.31,0,0,1,102.62,34.24Z"/><path class="cls-5" d="M107.67,35.83a3.87,3.87,0,0,0,.69,0,4.15,4.15,0,0,0,.52-.12v1.11a2.14,2.14,0,0,1-.64.19,4.38,4.38,0,0,1-.76.07c-1.72,0-2.58-1-2.58-2.93V28.4h-1.27v-.7l1.27-.61.57-2h.78v2.22h2.57V28.4h-2.57V34a2,2,0,0,0,.38,1.33A1.26,1.26,0,0,0,107.67,35.83Z"/><path class="cls-5" d="M118.32,32.05a5.64,5.64,0,0,1-1.09,3.67,3.74,3.74,0,0,1-3,1.31,3.81,3.81,0,0,1-2.12-.6,3.89,3.89,0,0,1-1.42-1.73,6.43,6.43,0,0,1-.5-2.65,5.57,5.57,0,0,1,1.08-3.65,3.7,3.7,0,0,1,3-1.31,3.64,3.64,0,0,1,3,1.34A5.57,5.57,0,0,1,118.32,32.05Zm-6.76,0a4.76,4.76,0,0,0,.68,2.8,2.56,2.56,0,0,0,4,0,4.77,4.77,0,0,0,.69-2.81,4.68,4.68,0,0,0-.69-2.77,2.61,2.61,0,0,0-4,0A4.79,4.79,0,0,0,111.56,32.05Zm1.55-6.27c.26-.36.54-.8.84-1.31a14.1,14.1,0,0,0,.71-1.34h1.63v.18a11.44,11.44,0,0,1-1.06,1.4A11.36,11.36,0,0,1,114,26h-.9Z"/><path class="cls-5" d="M124.72,27.09a4.8,4.8,0,0,1,1.06.11l-.18,1.35a4.12,4.12,0,0,0-1-.13,2.31,2.31,0,0,0-1.85.94,3.6,3.6,0,0,0-.76,2.35v5.15h-1.35V27.27h1.11l.16,1.77H122a4.22,4.22,0,0,1,1.19-1.44A2.56,2.56,0,0,1,124.72,27.09Z"/><path class="cls-5" d="M127.33,24.67a1,1,0,0,1,.23-.73.8.8,0,0,1,1.12,0,1.23,1.23,0,0,1,0,1.46.77.77,0,0,1-1.12,0A1,1,0,0,1,127.33,24.67Zm1.46,12.19h-1.35V27.27h1.35Z"/><path class="cls-5" d="M135.18,37a3.64,3.64,0,0,1-3-1.28,5.57,5.57,0,0,1-1.06-3.63,5.68,5.68,0,0,1,1.08-3.71,3.7,3.7,0,0,1,3.05-1.32,5.53,5.53,0,0,1,1.28.15,4.33,4.33,0,0,1,1,.35l-.42,1.24a5.25,5.25,0,0,0-1-.32,3.76,3.76,0,0,0-.93-.13q-2.7,0-2.7,3.73a4.7,4.7,0,0,0,.66,2.71,2.22,2.22,0,0,0,2,.94,5.69,5.69,0,0,0,2.28-.51v1.28A4.49,4.49,0,0,1,135.18,37Z"/><path class="cls-5" d="M147.19,32.05a5.58,5.58,0,0,1-1.09,3.67,4.09,4.09,0,0,1-5.13.71,3.91,3.91,0,0,1-1.43-1.73,6.59,6.59,0,0,1-.5-2.65,5.57,5.57,0,0,1,1.08-3.65,3.72,3.72,0,0,1,3-1.31,3.65,3.65,0,0,1,3,1.34A5.56,5.56,0,0,1,147.19,32.05Zm-6.76,0a4.84,4.84,0,0,0,.68,2.8,2.27,2.27,0,0,0,2,1,2.32,2.32,0,0,0,2-1,4.85,4.85,0,0,0,.68-2.81,4.76,4.76,0,0,0-.68-2.77,2.62,2.62,0,0,0-4,0A4.87,4.87,0,0,0,140.43,32.05Z"/><path class="cls-5" d="M155.27,34.24a2.48,2.48,0,0,1-.92,2.07,4.11,4.11,0,0,1-2.59.72,5.29,5.29,0,0,1-2.75-.6V35.08a5.69,5.69,0,0,0,1.37.55,5.1,5.1,0,0,0,1.41.2,3,3,0,0,0,1.62-.36,1.3,1.3,0,0,0,.12-2.06,6.83,6.83,0,0,0-1.75-.94A10.31,10.31,0,0,1,150,31.6a2.56,2.56,0,0,1-.77-.85,2.33,2.33,0,0,1-.26-1.13,2.21,2.21,0,0,1,.89-1.85,3.87,3.87,0,0,1,2.42-.68,6.67,6.67,0,0,1,2.8.63l-.48,1.19a6,6,0,0,0-2.42-.6,2.65,2.65,0,0,0-1.44.32,1,1,0,0,0-.49.9,1.15,1.15,0,0,0,.18.65,1.92,1.92,0,0,0,.59.52,13.18,13.18,0,0,0,1.56.71,5.65,5.65,0,0,1,2.13,1.25A2.31,2.31,0,0,1,155.27,34.24Z"/><path class="cls-5" d="M76.5,46.17a1,1,0,0,1,.22-.73.78.78,0,0,1,.57-.23.76.76,0,0,1,.56.24,1,1,0,0,1,.23.72,1,1,0,0,1-.23.73.76.76,0,0,1-.56.24.75.75,0,0,1-.57-.24A1,1,0,0,1,76.5,46.17ZM78,58.36H76.61V48.77H78Z"/><path class="cls-5" d="M86.88,58.36v-6.2a2.63,2.63,0,0,0-.5-1.75,1.9,1.9,0,0,0-1.54-.58,2.45,2.45,0,0,0-2,.81,4.32,4.32,0,0,0-.65,2.69v5H80.8V48.77h1.1l.22,1.31h.06A2.84,2.84,0,0,1,83.34,49,3.51,3.51,0,0,1,85,48.6a3.23,3.23,0,0,1,2.41.83,3.75,3.75,0,0,1,.81,2.68v6.25Z"/><path class="cls-5" d="M102.29,58.36V52.12a2.78,2.78,0,0,0-.45-1.72,1.69,1.69,0,0,0-1.41-.57,2.18,2.18,0,0,0-1.85.78A3.92,3.92,0,0,0,98,53v5.35H96.63V52.12a2.78,2.78,0,0,0-.45-1.72,1.69,1.69,0,0,0-1.42-.57,2.11,2.11,0,0,0-1.85.82,4.71,4.71,0,0,0-.58,2.68v5H91V48.77h1.1l.21,1.31h.07A2.74,2.74,0,0,1,93.43,49,3.1,3.1,0,0,1,95,48.6a2.6,2.6,0,0,1,2.72,1.62h.07A3,3,0,0,1,98.92,49a3.34,3.34,0,0,1,1.71-.43,2.9,2.9,0,0,1,2.26.83,4,4,0,0,1,.75,2.68v6.25Z"/><path class="cls-5" d="M107.67,48.77V55a2.63,2.63,0,0,0,.49,1.75,1.92,1.92,0,0,0,1.55.58,2.43,2.43,0,0,0,2-.82,4.42,4.42,0,0,0,.64-2.69v-5h1.34v9.59h-1.11l-.19-1.28h-.07a2.78,2.78,0,0,1-1.15,1.08,3.6,3.6,0,0,1-1.67.38,3.22,3.22,0,0,1-2.42-.83,3.74,3.74,0,0,1-.81-2.67V48.77Z"/><path class="cls-5" d="M120.33,58.54a3.93,3.93,0,0,1-3.1-1.3,5.24,5.24,0,0,1-1.14-3.59A5.84,5.84,0,0,1,117.15,50,3.39,3.39,0,0,1,120,48.6a3.2,3.2,0,0,1,2.63,1.18,4.78,4.78,0,0,1,1,3.13v.92h-6.12a4,4,0,0,0,.79,2.56,2.61,2.61,0,0,0,2.11.88,6.76,6.76,0,0,0,2.84-.65v1.3a6.61,6.61,0,0,1-1.35.47A6.86,6.86,0,0,1,120.33,58.54ZM120,49.81a2.12,2.12,0,0,0-1.71.76,3.59,3.59,0,0,0-.74,2.08h4.64a3.38,3.38,0,0,0-.57-2.11A2,2,0,0,0,120,49.81Z"/><path class="cls-5" d="M130,48.61a3.17,3.17,0,0,1,2.71,1.3,5.94,5.94,0,0,1,1,3.65,6,6,0,0,1-1,3.67A3.2,3.2,0,0,1,130,58.54a3.63,3.63,0,0,1-1.59-.35,3.1,3.1,0,0,1-1.2-1.06h-.1l-.28,1.23h-1V44.75h1.34v3.3c0,.74,0,1.41-.06,2h.06A3.12,3.12,0,0,1,130,48.61Zm-.2,1.22a2.28,2.28,0,0,0-2,.85,5.09,5.09,0,0,0-.61,2.88,5,5,0,0,0,.63,2.89,2.28,2.28,0,0,0,2,.87,2,2,0,0,0,1.84-1,5.27,5.27,0,0,0,.61-2.8,5.06,5.06,0,0,0-.61-2.79A2.09,2.09,0,0,0,129.82,49.83Z"/><path class="cls-5" d="M137.39,58.36h-1.34V44.75h1.34Z"/><path class="cls-5" d="M144,58.54a3.93,3.93,0,0,1-3.1-1.3,5.24,5.24,0,0,1-1.14-3.59A5.84,5.84,0,0,1,140.81,50a3.39,3.39,0,0,1,2.84-1.36,3.24,3.24,0,0,1,2.64,1.18,4.84,4.84,0,0,1,1,3.13v.92h-6.12a4,4,0,0,0,.79,2.56,2.61,2.61,0,0,0,2.11.88,6.76,6.76,0,0,0,2.84-.65v1.3a6.61,6.61,0,0,1-1.35.47A6.86,6.86,0,0,1,144,58.54Zm-.36-8.73a2.12,2.12,0,0,0-1.71.76,3.59,3.59,0,0,0-.74,2.08h4.64a3.38,3.38,0,0,0-.57-2.11A2,2,0,0,0,143.63,49.81Z"/><path class="cls-5" d="M155.27,55.75a2.48,2.48,0,0,1-.92,2.06,4.13,4.13,0,0,1-2.59.73,5.26,5.26,0,0,1-2.75-.61V56.58a6.15,6.15,0,0,0,1.37.56,5.51,5.51,0,0,0,1.41.2,2.94,2.94,0,0,0,1.62-.37,1.3,1.3,0,0,0,.12-2.06,6.76,6.76,0,0,0-1.76-.94A9.15,9.15,0,0,1,150,53.1a2.56,2.56,0,0,1-.77-.85,2.33,2.33,0,0,1-.26-1.13,2.21,2.21,0,0,1,.88-1.84,3.86,3.86,0,0,1,2.43-.68,6.67,6.67,0,0,1,2.8.63l-.48,1.18a6,6,0,0,0-2.42-.6,2.55,2.55,0,0,0-1.44.33,1,1,0,0,0-.49.89,1.19,1.19,0,0,0,.18.66,1.8,1.8,0,0,0,.59.51,12,12,0,0,0,1.55.71,5.63,5.63,0,0,1,2.14,1.25A2.31,2.31,0,0,1,155.27,55.75Z"/><path class="cls-5" d="M485.34,110a3.26,3.26,0,0,1-1.13,2.64,4.66,4.66,0,0,1-3.08.94,7.23,7.23,0,0,1-3.24-.59v-1.43a7.8,7.8,0,0,0,1.59.52,7.66,7.66,0,0,0,1.7.2,3.19,3.19,0,0,0,2.07-.57,1.89,1.89,0,0,0,.7-1.57,2.12,2.12,0,0,0-.25-1.09,2.38,2.38,0,0,0-.82-.78,11.3,11.3,0,0,0-1.76-.81,5.58,5.58,0,0,1-2.37-1.52,3.51,3.51,0,0,1-.7-2.28,3,3,0,0,1,1-2.36,4.09,4.09,0,0,1,2.72-.87,7.47,7.47,0,0,1,3.25.7l-.43,1.3a6.73,6.73,0,0,0-2.85-.67,2.6,2.6,0,0,0-1.71.51,1.73,1.73,0,0,0-.61,1.41,2.16,2.16,0,0,0,.23,1.08,2.08,2.08,0,0,0,.76.78,9.19,9.19,0,0,0,1.65.79,6.44,6.44,0,0,1,2.56,1.54A3.16,3.16,0,0,1,485.34,110Z"/><path class="cls-5" d="M493,113.36l-.27-1.37h-.06a3.87,3.87,0,0,1-1.33,1.22,3.82,3.82,0,0,1-1.65.32,2.57,2.57,0,0,1-2.81-2.83c0-1.93,1.43-3,4.3-3l1.5,0V107a2.53,2.53,0,0,0-.45-1.66,1.76,1.76,0,0,0-1.43-.54,5.49,5.49,0,0,0-2.51.73l-.42-1.11a5.76,5.76,0,0,1,1.44-.6,5.62,5.62,0,0,1,1.57-.22,3.19,3.19,0,0,1,2.35.76,3.33,3.33,0,0,1,.76,2.44v6.55Zm-3-1a2.61,2.61,0,0,0,2-.74,2.87,2.87,0,0,0,.72-2.08v-.87l-1.34.06a4.61,4.61,0,0,0-2.32.54,1.66,1.66,0,0,0-.7,1.48,1.53,1.53,0,0,0,.44,1.2A1.74,1.74,0,0,0,490,112.33Z"/><path class="cls-5" d="M502.86,113.36v-6.21a2.65,2.65,0,0,0-.5-1.75,1.93,1.93,0,0,0-1.54-.58,2.46,2.46,0,0,0-2,.82,4.29,4.29,0,0,0-.65,2.68v5h-1.35v-9.59h1.1l.22,1.31h.06a2.86,2.86,0,0,1,1.16-1.1,3.51,3.51,0,0,1,1.66-.39,3.19,3.19,0,0,1,2.41.84,3.72,3.72,0,0,1,.81,2.67v6.26Z"/><path class="cls-5" d="M509.83,112.33a3.93,3.93,0,0,0,.69-.06,3.27,3.27,0,0,0,.52-.11v1.11a2.48,2.48,0,0,1-.64.19,4.4,4.4,0,0,1-.77.07c-1.71,0-2.57-1-2.57-2.93v-5.71h-1.27v-.7l1.27-.6.56-2h.78v2.23H511v1.12H508.4v5.65a2.07,2.07,0,0,0,.38,1.33A1.28,1.28,0,0,0,509.83,112.33Z"/><path class="cls-5" d="M514.08,103.77V110a2.65,2.65,0,0,0,.49,1.75,2,2,0,0,0,1.55.57,2.43,2.43,0,0,0,2-.82,4.45,4.45,0,0,0,.64-2.68v-5h1.34v9.59H519l-.19-1.29h-.07a2.78,2.78,0,0,1-1.15,1.08,3.49,3.49,0,0,1-1.67.38,3.27,3.27,0,0,1-2.43-.83,3.74,3.74,0,0,1-.8-2.66v-6.27Z"/><path class="cls-5" d="M528.45,113.36l-.27-1.37h-.06a3.2,3.2,0,0,1-3,1.54,2.57,2.57,0,0,1-2.82-2.83c0-1.93,1.43-3,4.3-3l1.5,0V107a2.54,2.54,0,0,0-.44-1.66,1.77,1.77,0,0,0-1.44-.54,5.49,5.49,0,0,0-2.51.73l-.41-1.11a5.54,5.54,0,0,1,1.43-.6,5.67,5.67,0,0,1,1.57-.22,3.19,3.19,0,0,1,2.35.76,3.34,3.34,0,0,1,.77,2.44v6.55Zm-3-1a2.65,2.65,0,0,0,2-.74,2.91,2.91,0,0,0,.71-2.08v-.87l-1.34.06a4.54,4.54,0,0,0-2.31.54,1.64,1.64,0,0,0-.71,1.48,1.56,1.56,0,0,0,.44,1.2A1.76,1.76,0,0,0,525.41,112.33Z"/><path class="cls-5" d="M536.26,103.59a5,5,0,0,1,1.07.11l-.19,1.34a4.73,4.73,0,0,0-1-.13,2.3,2.3,0,0,0-1.84,1,3.61,3.61,0,0,0-.77,2.35v5.15h-1.34v-9.59h1.11l.15,1.77h.06a4.22,4.22,0,0,1,1.19-1.44A2.56,2.56,0,0,1,536.26,103.59Z"/><path class="cls-5" d="M538.87,101.17a1,1,0,0,1,.23-.73.74.74,0,0,1,.57-.23.73.73,0,0,1,.55.23,1,1,0,0,1,.24.73,1,1,0,0,1-.24.73.74.74,0,0,1-.55.24.75.75,0,0,1-.57-.24A1,1,0,0,1,538.87,101.17Zm1.46,12.19H539v-9.59h1.34Z"/><path class="cls-5" d="M550.84,108.55a5.53,5.53,0,0,1-1.09,3.66,3.72,3.72,0,0,1-3,1.32,3.81,3.81,0,0,1-2.12-.6,3.92,3.92,0,0,1-1.42-1.74,6.35,6.35,0,0,1-.5-2.64,5.57,5.57,0,0,1,1.08-3.65,3.7,3.7,0,0,1,3-1.31,3.64,3.64,0,0,1,3,1.34A5.55,5.55,0,0,1,550.84,108.55Zm-6.76,0a4.84,4.84,0,0,0,.68,2.8,2.57,2.57,0,0,0,4,0,4.8,4.8,0,0,0,.69-2.81,4.71,4.71,0,0,0-.69-2.78,2.33,2.33,0,0,0-2-1,2.31,2.31,0,0,0-2,.94A4.77,4.77,0,0,0,544.08,108.55Z"/><path class="cls-5" d="M487.91,134.86h-1.57l-6.47-10.74h-.07c.09,1.26.13,2.42.13,3.47v7.27h-1.27V122.07h1.56l6.45,10.69h.06c0-.16,0-.67-.07-1.52s-.05-1.47,0-1.83v-7.34h1.29Z"/><path class="cls-5" d="M496.42,134.86l-.27-1.37h-.06a3.87,3.87,0,0,1-1.33,1.22,3.66,3.66,0,0,1-1.64.32,2.83,2.83,0,0,1-2.07-.73,2.8,2.8,0,0,1-.75-2.09c0-1.94,1.43-3,4.3-3.05l1.5,0v-.6a2.55,2.55,0,0,0-.45-1.66,1.75,1.75,0,0,0-1.43-.54,5.49,5.49,0,0,0-2.51.73l-.42-1.11a6.61,6.61,0,0,1,1.44-.6,5.62,5.62,0,0,1,1.57-.22,3.24,3.24,0,0,1,2.35.76,3.34,3.34,0,0,1,.77,2.44v6.55Zm-3-1a2.57,2.57,0,0,0,2-.74,2.86,2.86,0,0,0,.72-2.08v-.87l-1.34.06a4.54,4.54,0,0,0-2.31.54,1.64,1.64,0,0,0-.71,1.48,1.53,1.53,0,0,0,.44,1.2A1.69,1.69,0,0,0,493.38,133.83Z"/><path class="cls-5" d="M503.05,133.83a3.87,3.87,0,0,0,.69-.05,4.15,4.15,0,0,0,.52-.12v1.11a2.14,2.14,0,0,1-.64.19,4.38,4.38,0,0,1-.76.07c-1.72,0-2.58-1-2.58-2.93v-5.7H499v-.7l1.27-.61.57-2h.77v2.22h2.58v1.13h-2.58V132a2,2,0,0,0,.39,1.33A1.26,1.26,0,0,0,503.05,133.83Z"/><path class="cls-5" d="M507.3,125.27v6.22a2.65,2.65,0,0,0,.5,1.75,1.92,1.92,0,0,0,1.54.58,2.46,2.46,0,0,0,2-.82,4.42,4.42,0,0,0,.64-2.69v-5h1.35v9.59h-1.11l-.2-1.29H512a2.81,2.81,0,0,1-1.15,1.09,3.57,3.57,0,0,1-1.67.37,3.19,3.19,0,0,1-2.42-.83,3.7,3.7,0,0,1-.81-2.66v-6.27Z"/><path class="cls-5" d="M520.26,125.09a5,5,0,0,1,1.07.11l-.19,1.35a4.12,4.12,0,0,0-1-.13,2.29,2.29,0,0,0-1.84.94,3.61,3.61,0,0,0-.77,2.35v5.15h-1.34v-9.59h1.11l.15,1.77h.06a4.22,4.22,0,0,1,1.19-1.44A2.56,2.56,0,0,1,520.26,125.09Z"/><path class="cls-5" d="M528.44,134.86l-.26-1.37h-.07a3.77,3.77,0,0,1-1.32,1.22,3.68,3.68,0,0,1-1.65.32,2.83,2.83,0,0,1-2.07-.73,2.8,2.8,0,0,1-.75-2.09c0-1.94,1.43-3,4.3-3.05l1.51,0v-.6a2.55,2.55,0,0,0-.45-1.66,1.77,1.77,0,0,0-1.44-.54,5.49,5.49,0,0,0-2.51.73l-.41-1.11a6.33,6.33,0,0,1,1.43-.6,5.72,5.72,0,0,1,1.57-.22,3.24,3.24,0,0,1,2.35.76,3.34,3.34,0,0,1,.77,2.44v6.55Zm-3-1a2.6,2.6,0,0,0,2-.74,2.85,2.85,0,0,0,.71-2.08v-.87l-1.34.06a4.54,4.54,0,0,0-2.31.54,1.67,1.67,0,0,0-.71,1.48,1.56,1.56,0,0,0,.44,1.2A1.74,1.74,0,0,0,525.41,133.83Z"/><path class="cls-5" d="M533.55,134.86h-1.34V121.24h1.34Z"/><path class="cls-5" d="M540.15,135a3.91,3.91,0,0,1-3.1-1.29,5.25,5.25,0,0,1-1.14-3.6,5.83,5.83,0,0,1,1.06-3.68,3.4,3.4,0,0,1,2.83-1.37,3.23,3.23,0,0,1,2.64,1.19,4.77,4.77,0,0,1,1,3.13v.92H537.3a4,4,0,0,0,.79,2.56,2.63,2.63,0,0,0,2.11.87,6.66,6.66,0,0,0,2.83-.64v1.29a7,7,0,0,1-1.34.48A6.91,6.91,0,0,1,540.15,135Zm-.36-8.72a2.13,2.13,0,0,0-1.71.75,3.69,3.69,0,0,0-.75,2.08H542a3.43,3.43,0,0,0-.56-2.1A1.93,1.93,0,0,0,539.79,126.31Z"/><path class="cls-5" d="M551.38,134.86H545v-1l4.84-7.47h-4.54v-1.13h6v1.13l-4.78,7.33h4.9Z"/><path class="cls-5" d="M558.92,134.86l-.27-1.37h-.06a3.71,3.71,0,0,1-1.33,1.22,3.6,3.6,0,0,1-1.64.32,2.83,2.83,0,0,1-2.07-.73,2.8,2.8,0,0,1-.75-2.09c0-1.94,1.43-3,4.3-3.05l1.5,0v-.6a2.55,2.55,0,0,0-.44-1.66,1.77,1.77,0,0,0-1.44-.54,5.49,5.49,0,0,0-2.51.73l-.42-1.11a6.61,6.61,0,0,1,1.44-.6,5.67,5.67,0,0,1,1.57-.22,3.24,3.24,0,0,1,2.35.76,3.34,3.34,0,0,1,.77,2.44v6.55Zm-3-1a2.61,2.61,0,0,0,2-.74,2.9,2.9,0,0,0,.71-2.08v-.87l-1.34.06a4.54,4.54,0,0,0-2.31.54,1.64,1.64,0,0,0-.71,1.48,1.56,1.56,0,0,0,.44,1.2A1.71,1.71,0,0,0,555.88,133.83Z"/><path class="cls-5" d="M485.84,300.36H477.7v-1.17L484,288.9h-6.09v-1.34h7.77v1.17L479.37,299h6.47Z"/><path class="cls-5" d="M495.58,295.55a5.53,5.53,0,0,1-1.09,3.66,3.7,3.7,0,0,1-3,1.32,3.78,3.78,0,0,1-2.11-.6,3.93,3.93,0,0,1-1.43-1.74,6.51,6.51,0,0,1-.5-2.64,5.52,5.52,0,0,1,1.09-3.65,3.69,3.69,0,0,1,3-1.31,3.64,3.64,0,0,1,3,1.34A5.54,5.54,0,0,1,495.58,295.55Zm-6.76,0a4.84,4.84,0,0,0,.68,2.8,2.58,2.58,0,0,0,4,0,4.88,4.88,0,0,0,.68-2.81,4.79,4.79,0,0,0-.68-2.78,2.34,2.34,0,0,0-2-.95,2.29,2.29,0,0,0-2,.94A4.76,4.76,0,0,0,488.82,295.55Z"/><path class="cls-5" d="M504,300.36v-6.21a2.65,2.65,0,0,0-.49-1.75,1.94,1.94,0,0,0-1.55-.58,2.48,2.48,0,0,0-2,.82,4.36,4.36,0,0,0-.64,2.68v5h-1.35v-9.59H499l.21,1.31h.07a2.8,2.8,0,0,1,1.16-1.1,3.51,3.51,0,0,1,1.66-.39,3.19,3.19,0,0,1,2.41.84,3.72,3.72,0,0,1,.81,2.67v6.26Z"/><path class="cls-5" d="M513.58,300.36l-.27-1.37h-.06a3.87,3.87,0,0,1-1.33,1.22,3.82,3.82,0,0,1-1.65.32,2.56,2.56,0,0,1-2.81-2.83c0-1.93,1.43-2.95,4.29-3l1.51-.05V294a2.53,2.53,0,0,0-.45-1.66,1.77,1.77,0,0,0-1.44-.54,5.52,5.52,0,0,0-2.51.73l-.41-1.11a5.76,5.76,0,0,1,1.44-.6,5.62,5.62,0,0,1,1.57-.22,3.21,3.21,0,0,1,2.35.76,3.33,3.33,0,0,1,.76,2.44v6.55Zm-3-1a2.62,2.62,0,0,0,2-.74,2.87,2.87,0,0,0,.72-2.08v-.87l-1.35.06a4.57,4.57,0,0,0-2.31.54,1.67,1.67,0,0,0-.71,1.48,1.53,1.53,0,0,0,.45,1.2A1.74,1.74,0,0,0,510.54,299.33Z"/><path class="cls-5" d="M525.5,300.36h-1.38V288.88h-3.75v-1.32h8.88v1.32H525.5Z"/><path class="cls-5" d="M530.77,289.28a14.53,14.53,0,0,0,.83-1.31c.3-.52.54-1,.71-1.34H534v.18a12.57,12.57,0,0,1-1.06,1.4,13.43,13.43,0,0,1-1.22,1.29h-.9Zm1.4,11.08h-1.35v-9.59h1.35Z"/><path class="cls-5" d="M539.15,300.53a3.5,3.5,0,0,1-1.59-.35,3.1,3.1,0,0,1-1.2-1.06h-.1a12.8,12.8,0,0,1,.1,1.59v4H535V290.77h1.09l.19,1.31h.06a3.18,3.18,0,0,1,1.21-1.14,3.47,3.47,0,0,1,1.58-.35,3.2,3.2,0,0,1,2.72,1.3,7.44,7.44,0,0,1,0,7.33A3.2,3.2,0,0,1,539.15,300.53Zm-.2-8.71a2.29,2.29,0,0,0-2,.82,4.37,4.37,0,0,0-.63,2.59v.32a5,5,0,0,0,.63,2.89,2.28,2.28,0,0,0,2,.87,2,2,0,0,0,1.8-1,5.13,5.13,0,0,0,.65-2.78,4.92,4.92,0,0,0-.65-2.75A2.11,2.11,0,0,0,539,291.82Z"/><path class="cls-5" d="M545.07,288.17a1,1,0,0,1,.22-.73.74.74,0,0,1,.57-.23.75.75,0,0,1,.56.23,1,1,0,0,1,.23.73,1,1,0,0,1-.23.73.76.76,0,0,1-.56.24.75.75,0,0,1-.57-.24A1,1,0,0,1,545.07,288.17Zm1.45,12.19h-1.34v-9.59h1.34Z"/><path class="cls-5" d="M552.92,300.53a3.65,3.65,0,0,1-3-1.28,5.53,5.53,0,0,1-1.06-3.63A5.78,5.78,0,0,1,550,291.9a3.75,3.75,0,0,1,3.06-1.31,5.59,5.59,0,0,1,1.28.15,4.07,4.07,0,0,1,1,.35l-.41,1.23a7.88,7.88,0,0,0-1-.32,4.23,4.23,0,0,0-.93-.12q-2.72,0-2.71,3.72a4.73,4.73,0,0,0,.66,2.72,2.23,2.23,0,0,0,2,.94,5.6,5.6,0,0,0,2.27-.51V300A4.56,4.56,0,0,1,552.92,300.53Z"/><path class="cls-5" d="M562.73,300.36l-.27-1.37h-.07a3.77,3.77,0,0,1-1.32,1.22,3.82,3.82,0,0,1-1.65.32,2.57,2.57,0,0,1-2.82-2.83c0-1.93,1.44-2.95,4.3-3l1.51-.05V294a2.53,2.53,0,0,0-.45-1.66,1.77,1.77,0,0,0-1.44-.54,5.52,5.52,0,0,0-2.51.73l-.41-1.11a5.76,5.76,0,0,1,1.44-.6,5.6,5.6,0,0,1,1.56-.22,3.22,3.22,0,0,1,2.36.76,3.33,3.33,0,0,1,.76,2.44v6.55Zm-3-1a2.62,2.62,0,0,0,2-.74,2.87,2.87,0,0,0,.72-2.08v-.87l-1.35.06a4.54,4.54,0,0,0-2.31.54,1.67,1.67,0,0,0-.71,1.48,1.53,1.53,0,0,0,.45,1.2A1.74,1.74,0,0,0,559.69,299.33Z"/><path class="cls-5" d="M572.22,297.74a2.46,2.46,0,0,1-.93,2.06,4.05,4.05,0,0,1-2.59.73,5.32,5.32,0,0,1-2.75-.6v-1.35a6.33,6.33,0,0,0,1.37.55,5.51,5.51,0,0,0,1.41.2,3,3,0,0,0,1.62-.36,1.22,1.22,0,0,0,.57-1.11,1.25,1.25,0,0,0-.45-1,7.31,7.31,0,0,0-1.75-.94,8.85,8.85,0,0,1-1.76-.87,2.56,2.56,0,0,1-.78-.84,2.36,2.36,0,0,1-.26-1.13,2.21,2.21,0,0,1,.89-1.85,3.89,3.89,0,0,1,2.42-.68,6.64,6.64,0,0,1,2.8.63l-.48,1.18a6.13,6.13,0,0,0-2.42-.59,2.65,2.65,0,0,0-1.44.32,1,1,0,0,0-.49.89,1.09,1.09,0,0,0,.19.66,1.88,1.88,0,0,0,.58.52,12,12,0,0,0,1.56.7,5.78,5.78,0,0,1,2.13,1.26A2.29,2.29,0,0,1,572.22,297.74Z"/><path class="cls-6" d="M413,222.64a2.63,2.63,0,0,1-1,1.35,1.54,1.54,0,0,1-1.41.07,1.88,1.88,0,0,1-.83-.62,2.19,2.19,0,0,1-.37-1.08,3.32,3.32,0,0,1-1.21.64,1.65,1.65,0,0,1-1-.08,1.78,1.78,0,0,1-1.14-1.13,3.32,3.32,0,0,1,1.29-3.32,1.8,1.8,0,0,1,1.59,0,1.91,1.91,0,0,1,.88.64,2.37,2.37,0,0,1,.4,1.15,2.59,2.59,0,0,1,1-.41,2,2,0,0,1,1,.13,1.51,1.51,0,0,1,1,1A2.64,2.64,0,0,1,413,222.64ZM408.38,220a.65.65,0,0,0-.53,0,.78.78,0,0,0-.37.44c-.19.5-.1.82.29,1a.88.88,0,0,0,.51,0A3.08,3.08,0,0,0,409,221a2.05,2.05,0,0,0-.22-.71A.8.8,0,0,0,408.38,220Zm3.33,2.14a.53.53,0,0,0,0-.41.47.47,0,0,0-.29-.28.9.9,0,0,0-.88.22,1.3,1.3,0,0,0,.18.54.64.64,0,0,0,.31.25.5.5,0,0,0,.4,0A.55.55,0,0,0,411.71,222.12Z"/><path class="cls-6" d="M405.75,225.06h-.13a20.38,20.38,0,0,1-2.2-1.81l.5-1.16c.37.26.8.54,1.28.84s.86.54,1.16.7Z"/><path class="cls-6" d="M407.17,229.7a1.79,1.79,0,0,1-.7.81,1.89,1.89,0,0,1-1,.31,2.83,2.83,0,0,1-1.2-.28,2.44,2.44,0,0,1-1.38-1.39,2.75,2.75,0,0,1,.28-2.09,4,4,0,0,1,1.15-1.55l1.43.67a4.24,4.24,0,0,0-.67.67,3.75,3.75,0,0,0-.47.71,1.18,1.18,0,0,0-.12.79.93.93,0,0,0,1.19.56,1.26,1.26,0,0,0,.55-.65,2.64,2.64,0,0,0,.23-.9l.6-.44,3.31,1.82-1.6,3.42-1.46-.69,1-2-.82-.48a2.62,2.62,0,0,1-.14.49C407.24,229.54,407.21,229.63,407.17,229.7Z"/><path class="cls-6" d="M399.81,238.46a2.64,2.64,0,0,1-1.24-1.18,1.49,1.49,0,0,1,.08-1.4,1.46,1.46,0,0,1,1.12-.79,2.68,2.68,0,0,1,1.66.37,2.59,2.59,0,0,1,1.24,1.18,1.43,1.43,0,0,1-.07,1.36,1.53,1.53,0,0,1-1.13.83A2.61,2.61,0,0,1,399.81,238.46Zm1-1.81a2.66,2.66,0,0,0-.76-.31c-.17,0-.28,0-.34.11s0,.24.13.37a3.16,3.16,0,0,0,.64.44,3.72,3.72,0,0,0,.72.3c.19,0,.32,0,.38-.1s0-.22-.1-.35A3.24,3.24,0,0,0,400.77,236.65ZM405,239.3l-4.55-6.61.64-1.19,4.55,6.61Zm-.31-3.91a2.68,2.68,0,0,1-1.25-1.19,1.49,1.49,0,0,1,.08-1.4,1.46,1.46,0,0,1,1.12-.79,2.62,2.62,0,0,1,1.66.38,2.7,2.7,0,0,1,1.25,1.17,1.49,1.49,0,0,1-.08,1.37,1.52,1.52,0,0,1-1.12.82A2.65,2.65,0,0,1,404.7,235.39Zm.95-1.82a2.64,2.64,0,0,0-.75-.3c-.18,0-.29,0-.34.11s0,.21.09.33a2.42,2.42,0,0,0,.68.46,2.86,2.86,0,0,0,.75.32c.17,0,.29,0,.34-.11s0-.22-.1-.35A2.75,2.75,0,0,0,405.65,233.57Z"/><path class="cls-6" d="M418.91,197a1.77,1.77,0,0,1-1.07-.53,2.12,2.12,0,0,1-.53-1.18h0c-.31,1.07-.94,1.53-1.91,1.39a1.88,1.88,0,0,1-1.45-.94,3.29,3.29,0,0,1-.27-2.09,5.52,5.52,0,0,1,.22-1,5.08,5.08,0,0,1,.44-.92l1.59.22a3.88,3.88,0,0,0-.48.83,3.37,3.37,0,0,0-.23.8,1.61,1.61,0,0,0,.05.88.62.62,0,0,0,.52.34.61.61,0,0,0,.46-.07,1,1,0,0,0,.31-.42,3.52,3.52,0,0,0,.19-.79l.06-.4,1.44.21-.06.41c-.13.9,0,1.38.55,1.45a.46.46,0,0,0,.44-.14.92.92,0,0,0,.21-.51,2.39,2.39,0,0,0-.26-1.36l1.38-.55a3.46,3.46,0,0,1,.4,1.14,4.54,4.54,0,0,1,0,1.27,2.65,2.65,0,0,1-.67,1.53A1.44,1.44,0,0,1,418.91,197Z"/><path class="cls-6" d="M413.79,205.47a2.7,2.7,0,0,1-1.54-.76,1.53,1.53,0,0,1-.32-1.37,1.44,1.44,0,0,1,.84-1.08,2.67,2.67,0,0,1,1.69-.13,2.74,2.74,0,0,1,1.54.77,1.48,1.48,0,0,1,.32,1.33,1.51,1.51,0,0,1-.84,1.11A2.54,2.54,0,0,1,413.79,205.47Zm5.21-.71-6.27-5,.27-1.32,6.27,5Zm-4.83-1.3a2.9,2.9,0,0,0-.81-.07c-.17,0-.27.09-.29.2s.05.24.22.32a3.37,3.37,0,0,0,.75.23,3.5,3.5,0,0,0,.77.08c.2,0,.31-.08.34-.21s0-.22-.2-.3A3,3,0,0,0,414.17,203.46Zm3.4-2.35a2.67,2.67,0,0,1-1.54-.77,1.48,1.48,0,0,1-.33-1.36,1.45,1.45,0,0,1,.84-1.09,2.64,2.64,0,0,1,1.7-.12,2.7,2.7,0,0,1,1.53.76,1.46,1.46,0,0,1,.32,1.33,1.51,1.51,0,0,1-.83,1.12A2.61,2.61,0,0,1,417.57,201.11Zm.38-2a3,3,0,0,0-.81-.08c-.17,0-.27.1-.29.21s0,.21.19.3a4.08,4.08,0,0,0,1.59.32c.17,0,.27-.09.29-.2s0-.22-.19-.31A2.78,2.78,0,0,0,418,199.1Z"/><path class="cls-6" d="M380.32,86.38,377,83l.9-.89,2.39-.08c.7,0,1.16-.07,1.4-.11a2,2,0,0,0,.55-.13,1,1,0,0,0,.37-.24.55.55,0,0,0,.19-.43.67.67,0,0,0-.21-.45,1.24,1.24,0,0,0-.58-.31,4.92,4.92,0,0,0-.91-.12l.2-1.56a5.88,5.88,0,0,1,1.11.11,2.93,2.93,0,0,1,.76.32,3.33,3.33,0,0,1,.72.58,2.57,2.57,0,0,1,.63,1,1.89,1.89,0,0,1,.05,1.05,1.92,1.92,0,0,1-.53.91,3.27,3.27,0,0,1-.62.47,3.18,3.18,0,0,1-.71.28,5.46,5.46,0,0,1-.9.12c-.34,0-1,0-2,0l0,0,1.75,1.79Z"/><path class="cls-6" d="M383,84.78A6.29,6.29,0,0,1,385,83.45a2.86,2.86,0,0,1,1.8,0,3.88,3.88,0,0,1,1.6,1.12,6.61,6.61,0,0,1,.57.75l-1.12,1a5.23,5.23,0,0,0-.59-.79,1.84,1.84,0,0,0-1.21-.71,2,2,0,0,0-1.35.57l0,0a1.37,1.37,0,0,1,1.5.42,1.66,1.66,0,0,1,.46,1.42A3.17,3.17,0,0,1,384,89.53a2.47,2.47,0,0,1-2.27-2.72A3.55,3.55,0,0,1,383,84.78Zm.47,2.88a.53.53,0,0,0,.48.19,1.31,1.31,0,0,0,.67-.36c.43-.39.5-.74.22-1a.63.63,0,0,0-.5-.22.82.82,0,0,0-.53.23,1.42,1.42,0,0,0-.45.65A.56.56,0,0,0,383.43,87.66Z"/><path class="cls-6" d="M386.67,91.35l-.05.12a20.68,20.68,0,0,1-2.6,1.16l-.82-1c.4-.22.84-.48,1.33-.78s.86-.53,1.14-.72Z"/><path class="cls-6" d="M391.46,92.16a1.9,1.9,0,0,1,.42,1,1.93,1.93,0,0,1-.19,1.07,2.76,2.76,0,0,1-.79.94,2.41,2.41,0,0,1-1.85.62,2.83,2.83,0,0,1-1.76-1.18,4.3,4.3,0,0,1-.87-1.72l1.24-1a4.32,4.32,0,0,0,.3.9,3.63,3.63,0,0,0,.43.75A1.14,1.14,0,0,0,389,94a.85.85,0,0,0,.7-.2.82.82,0,0,0,.33-.61,1.23,1.23,0,0,0-.33-.79,3,3,0,0,0-.7-.61l-.13-.73L392,88.9l2.34,2.95-1.26,1-1.4-1.77-.79.53a3,3,0,0,1,.38.34Z"/><path class="cls-6" d="M399.07,98.34l-7.95,1.13-.77-1.1,7.94-1.13Zm-3.64-1.46a2.72,2.72,0,0,1-1.62.59,1.53,1.53,0,0,1-1.22-.7,1.48,1.48,0,0,1-.21-1.36,2.74,2.74,0,0,1,1.08-1.32,2.69,2.69,0,0,1,1.61-.59,1.5,1.5,0,0,1,1.19.68,1.52,1.52,0,0,1,.23,1.38A2.63,2.63,0,0,1,395.43,96.88Zm.57,5.74a2.67,2.67,0,0,1-1.61.59,1.49,1.49,0,0,1-1.21-.7,1.47,1.47,0,0,1-.22-1.36A2.72,2.72,0,0,1,394,99.84a2.67,2.67,0,0,1,1.6-.59,1.45,1.45,0,0,1,1.19.68,1.48,1.48,0,0,1,.24,1.37A2.53,2.53,0,0,1,396,102.62Zm-1.77-7.4a2.49,2.49,0,0,0-.61.53c-.11.15-.12.27-.06.36s.18.11.35.07a3,3,0,0,0,.71-.41,2.81,2.81,0,0,0,.62-.53c.1-.14.12-.26.05-.35s-.18-.12-.35-.07A2.56,2.56,0,0,0,394.23,95.22Zm.58,5.74a2.7,2.7,0,0,0-.61.54c-.11.14-.13.26-.06.35s.2.13.39.06a3.12,3.12,0,0,0,.67-.39,2.66,2.66,0,0,0,.59-.51c.13-.15.16-.27.08-.38s-.19-.12-.36-.07A3.21,3.21,0,0,0,394.81,101Z"/><path class="cls-6" d="M176.91,241.25a6,6,0,0,1-2.29.88,2.73,2.73,0,0,1-1.76-.31,3.77,3.77,0,0,1-1.34-1.42,5.68,5.68,0,0,1-.4-.85l1.3-.77a4.76,4.76,0,0,0,.41.9,1.86,1.86,0,0,0,1,.93,2,2,0,0,0,1.44-.28l0-.05a1.35,1.35,0,0,1-1.37-.71,1.63,1.63,0,0,1-.16-1.49A2.69,2.69,0,0,1,175,236.8a2.74,2.74,0,0,1,1.92-.41,2.49,2.49,0,0,1,1.67,3.14A3.56,3.56,0,0,1,176.91,241.25Zm.13-2.91a.52.52,0,0,0-.43-.28,1.13,1.13,0,0,0-.73.22c-.5.29-.64.61-.43,1a.6.6,0,0,0,.44.32.77.77,0,0,0,.57-.11,1.44,1.44,0,0,0,.57-.55A.53.53,0,0,0,177,238.34Z"/><path class="cls-6" d="M174.61,230.93l2.25,4.24-1.12.59-2.32-.6c-.67-.16-1.13-.26-1.36-.3a2,2,0,0,0-.58,0,1,1,0,0,0-.41.13.53.53,0,0,0-.31.35.63.63,0,0,0,.07.49,1.32,1.32,0,0,0,.47.47,4.93,4.93,0,0,0,.84.37l-.64,1.44a5.35,5.35,0,0,1-1-.42,2.66,2.66,0,0,1-.64-.52,3.11,3.11,0,0,1-.53-.76,2.55,2.55,0,0,1-.32-1.13,1.74,1.74,0,0,1,.24-1,1.85,1.85,0,0,1,.77-.72,2.87,2.87,0,0,1,.73-.28,2.7,2.7,0,0,1,.76-.06,4.45,4.45,0,0,1,.89.13q.5.12,2,.6l0,0-1.17-2.21Z"/><path class="cls-6" d="M165.08,227.45l8,.34.56,1.22-8-.34Zm3.31,2.1a2.75,2.75,0,0,1,1.7-.29,1.54,1.54,0,0,1,1.07.91,1.5,1.5,0,0,1,0,1.38,3.25,3.25,0,0,1-3,1.39,1.62,1.62,0,0,1-1-2.28A2.67,2.67,0,0,1,168.39,229.55Zm.48-5.75a2.72,2.72,0,0,1,1.69-.29,1.54,1.54,0,0,1,1.07.91,1.47,1.47,0,0,1,0,1.38,3.27,3.27,0,0,1-3,1.38,1.47,1.47,0,0,1-1.05-.88,1.51,1.51,0,0,1,0-1.39A2.62,2.62,0,0,1,168.87,223.8Zm.4,7.6a2.66,2.66,0,0,0,.7-.41c.12-.12.16-.24.11-.34s-.15-.15-.33-.13a2.83,2.83,0,0,0-.77.26,2.92,2.92,0,0,0-.7.42c-.13.12-.17.23-.12.34s.16.15.34.13A3.1,3.1,0,0,0,169.27,231.4Zm.47-5.75a2.47,2.47,0,0,0,.7-.42q.19-.18.12-.33c-.05-.12-.18-.16-.37-.13a3.26,3.26,0,0,0-.73.26,2.91,2.91,0,0,0-.68.39c-.15.12-.2.25-.14.36s.16.15.34.13A2.94,2.94,0,0,0,169.74,225.65Z"/><polyline class="cls-7" points="165 10.62 322 10.62 322 48.62"/><polyline class="cls-8" points="165 324.62 234 324.62 234 292.12"/><polyline class="cls-9" points="429 204.62 450 204.62 450 109.62 471 109.62"/><polyline class="cls-10" points="411 242.62 411 294.62 468 294.62"/><circle class="cls-11" cx="165.5" cy="10.12" r="4"/><circle class="cls-12" cx="166" cy="324.62" r="4"/><circle class="cls-13" cx="468" cy="294.62" r="4"/><circle class="cls-14" cx="468" cy="109.62" r="4"/></g></svg>