<svg xmlns="http://www.w3.org/2000/svg" viewBox="0 0 586.03 354.71"><defs><style>.cls-1,.cls-10,.cls-2,.cls-3,.cls-4,.cls-7,.cls-8,.cls-9{fill:none;stroke-miterlimit:10;}.cls-1,.cls-8{stroke:#61637b;}.cls-1,.cls-2,.cls-3,.cls-4{stroke-width:40px;}.cls-10,.cls-2{stroke:#8a8593;}.cls-3,.cls-9{stroke:#0f1d4d;}.cls-4,.cls-7{stroke:#384064;}.cls-5{font-size:17.92px;fill:#0f1d4d;font-family:OpenSans-Regular, Open Sans;}.cls-6{font-size:10px;fill:#dccbc1;font-family:OpenSans-ExtraBold, Open Sans;font-weight:800;}.cls-10,.cls-7,.cls-8,.cls-9{stroke-width:2px;}.cls-11{fill:#384064;}.cls-12{fill:#61637b;}.cls-13{fill:#8a8593;}.cls-14{fill:#101d4d;}</style></defs><g id="Capa_1" data-name="Capa 1"><path class="cls-1" d="M392,251.06A130,130,0,1,1,287.53,43.62"/><path class="cls-2" d="M413.77,204.8A129.38,129.38,0,0,1,392,251.06"/><path class="cls-3" d="M416.06,193.27q-.88,5.85-2.29,11.53"/><path class="cls-4" d="M287.53,43.62A130.14,130.14,0,0,1,416.06,193.27"/><text class="cls-5" transform="translate(52 328.36) scale(0.93 1)">Monumentos <tspan x="-45.05" y="21.5">históricos muebles</tspan></text><text class="cls-5" transform="translate(52 15.36) scale(0.93 1)">Monumentos <tspan x="31.44" y="21.5">históricos </tspan><tspan x="25.05" y="43.01">inmuebles</tspan></text><text class="cls-5" transform="translate(477.03 113.36) scale(0.93 1)">Santuario <tspan x="0" y="21.5">Naturaleza</tspan></text><text class="cls-5" transform="translate(477.03 300.36) scale(0.93 1)">Zona Típicas</text><text class="cls-6" transform="matrix(-0.34, 0.86, -0.93, -0.37, 407.26, 217.46)">8</text><text class="cls-6" transform="translate(405.3 222.41) rotate(113.26) scale(0.93 1)">,</text><text class="cls-6" transform="translate(404.21 225) rotate(115.12) scale(0.93 1)">5</text><text class="cls-6" transform="translate(401.98 229.86) rotate(118.29) scale(0.93 1)">%</text><text class="cls-6" transform="translate(414.07 191.35) rotate(98.23) scale(0.93 1)">3</text><text class="cls-6" transform="translate(413.36 196.62) rotate(101.39) scale(0.93 1)">%</text><text class="cls-6" transform="translate(376.77 82.76) rotate(45.55) scale(0.93 1)">2</text><text class="cls-6" transform="translate(380.51 86.57) rotate(47.95) scale(0.93 1)">6</text><text class="cls-6" transform="translate(384.1 90.57) rotate(49.78) scale(0.93 1)">,</text><text class="cls-6" transform="translate(385.93 92.71) rotate(51.62) scale(0.93 1)">5</text><text class="cls-6" transform="translate(389.27 96.85) rotate(54.76) scale(0.93 1)">%</text><text class="cls-6" transform="translate(179.68 240) rotate(-120.33) scale(0.93 1)">6</text><text class="cls-6" transform="matrix(-0.43, -0.82, 0.88, -0.47, 176.99, 235.41)">2</text><text class="cls-6" transform="matrix(-0.39, -0.84, 0.91, -0.42, 174.44, 230.7)">%</text><polyline class="cls-7" points="165 10.62 322 10.62 322 48.62"/><polyline class="cls-8" points="165 324.62 234 324.62 234 292.12"/><polyline class="cls-9" points="429 204.62 450 204.62 450 109.62 471 109.62"/><polyline class="cls-10" points="411 242.62 411 294.62 468 294.62"/><circle class="cls-11" cx="165.5" cy="10.12" r="4"/><circle class="cls-12" cx="166" cy="324.62" r="4"/><circle class="cls-13" cx="468" cy="294.62" r="4"/><circle class="cls-14" cx="468" cy="109.62" r="4"/></g></svg>